<?xml version="1.0" encoding="utf-8"?>
<!-- Generator: Adobe Illustrator 19.2.1, SVG Export Plug-In . SVG Version: 6.00 Build 0)  -->
<svg version="1.1" id="Layer_1" xmlns="http://www.w3.org/2000/svg" xmlns:xlink="http://www.w3.org/1999/xlink" x="0px" y="0px"
	 viewBox="0 0 21 23" style="enable-background:new 0 0 21 23;" xml:space="preserve">
<style type="text/css">
	.st0{fill-rule:evenodd;clip-rule:evenodd;fill:#161615;}
</style>
<g>
	<path class="st0" d="M7.5,0.8C7.7,0.4,8,0,8.5,0c0.4,0,0.8,0.3,1,0.4c0.2,0.2,0.6,0.5,0.8,0.6c0.3,0.2,0.6,0.4,0.7,0.5
		c0.3,0.2,0.7,0.3,1.2,0.6c0.5,0.3,0.6,0.4,1,0.6c0.3,0.2,0.9,0.4,1.2,0.6c0.3,0.2,0.9,0.5,1.2,0.7c0.3,0.2,0.7,0.4,1,0.5
		c0.3,0.1,0.5,0.3,0.7,0.5c0.3,0.2,0.7,0.5,0.9,0.8C18.7,6,18.6,6.1,19,6.5c0.4,0.5,0.5,0.7,0.7,1.1c0.2,0.3,0.5,1.2,0.8,1.8
		c0.3,0.6,0.4,1.5,0.4,1.8c0,0.4,0.1,1.2,0.1,1.6s-0.1,1.7-0.1,2c-0.1,0.3-0.2,0.7-0.3,1.1c-0.1,0.4-0.5,1.1-0.7,1.3
		c-0.1,0.2-0.4,0.6-0.5,0.9c-0.2,0.3-0.7,0.8-1,1.1c-0.3,0.3-0.8,0.8-1.1,1.1c-0.3,0.3-0.7,0.6-1,0.9c-0.3,0.3-0.8,0.6-1.3,0.8
		c-0.5,0.2-1.4,0.5-1.8,0.6c-0.4,0.1-0.7,0.1-1.1,0.2C11.7,22.9,10.7,23,10,23c-0.7,0-1.1,0-1.6-0.1c-0.4-0.2-1-0.2-1.6-0.5
		c-0.7-0.3-1.1-0.5-1.9-1c-0.5-0.3-0.7-0.5-1-0.7C3.6,20.4,3.2,20,3,19.8c-0.2-0.3-0.8-0.9-1.1-1.2c-0.3-0.3-0.8-0.9-1.1-1.6
		c-0.3-0.6-0.7-1.7-0.8-2.9C0,12.9,0,12.4,0,11.6c0.1-0.8,0.3-1.3,0.4-1.6C0.5,9.8,0.6,9.3,0.8,9C1,8.6,1.5,7.7,1.9,7.1
		c0.4-0.7,0.9-1.3,1.4-1.8c0.5-0.5,0.8-0.8,1-0.9C4.5,4.2,5,3.7,5.2,3.4c0.2-0.3,0.6-0.5,1.4-1.6C7.2,1.2,7.2,1.1,7.5,0.8z"/>
</g>
</svg>
