<?xml version="1.0" encoding="utf-8"?>
<!-- Generator: Adobe Illustrator 19.2.1, SVG Export Plug-In . SVG Version: 6.00 Build 0)  -->
<svg version="1.1" id="Layer_1" xmlns="http://www.w3.org/2000/svg" xmlns:xlink="http://www.w3.org/1999/xlink" x="0px" y="0px"
	 viewBox="0 0 968.5 804.3" style="enable-background:new 0 0 968.5 804.3;" xml:space="preserve">
<style type="text/css">
	.st0{fill:#161615;}
</style>
<path class="st0" d="M596.3,197.1c-1,1.9-1.5,4-1.7,6.1c-0.2,2.3-0.3,4.7-0.7,7c-0.5,2.5,0.2,5.2-0.2,7.7c-0.4,2.3-0.8,4.6-1.1,6.9
	c-0.3,2.3-0.5,4.7-0.7,7c-0.4,5.2-0.4,10.4-0.5,15.6c-0.1,4.6-1.5,9.5,0.8,13.8c1.7,3.2,5,5.4,6.4,8.8c1.2,3.1,1,7,0.7,10.3
	c-0.1,0.8-0.2,1.6-0.3,2.4c-0.2,1.1-0.2,2.2-0.2,3.4c0,2.7-0.1,5.5-0.1,8.2c0,2.6,0,5.2-0.1,7.8c-0.1,2-0.7,4.1-0.9,6.2
	c-0.2,2.1-0.3,4.3,0,6.4c0.2,1.9,0.6,3.7,0.7,5.5c0.2,3.4-0.2,7.3,1.1,10.5c1.2,2.8,3.9,3.9,6.7,3.9c0.2,0,0.3,0,0.5,0
	c6.5-0.3,12.5-3.8,18.3-6.3c6.9-3,14.1-5.4,20.5-9.5c3.1-1.9,5.9-4.2,8.2-7.1c2.4-3,3.9-6.6,4.8-10.4c2.1-8.9,1.6-18.2,2.7-27.2
	c0.3-2.4,0.9-4.7,1.2-7.1c0.3-2.4,0.2-4.9,0.3-7.4c0.1-2.4,0.7-4.7,0.8-7.1c0.1-2.3-0.1-4.6-0.2-6.9c-0.1-3.3-0.1-7.1,2.4-9.5
	c1.8-1.7,4.2-2.8,6.5-3.6c6.3-2.3,13.1-3.3,19.7-4.4c2.9-0.5,5.7-0.9,8.6-1.5c0.9-0.2,1.8-0.3,2.7-0.3c2,0,3.8,0.6,5.4,2.2
	c2.2,2.3,3,5.6,3,8.7c0,1.8-0.5,3.6-0.5,5.4c0,1.2,0.1,2.5-0.1,3.7c-0.2,1.2-0.3,2.5-0.4,3.7c-0.1,2.4-0.1,4.8-0.4,7.2
	c-0.2,2.4-0.9,4.7-1.3,7.1c-0.9,4.9-1.7,9.8-2.6,14.7c-0.4,2.5-0.3,5-0.4,7.5c-0.1,2.1-0.6,4.2-0.7,6.3c-0.2,3.7,0.4,7.6,1.5,11.2
	c1,3.4,2.9,6,6.1,7.8c2.5,1.4,5,1.9,7.7,1.9c1.2,0,2.4-0.1,3.6-0.3c1.9-0.3,3.8-0.7,5.7-0.9c2.3-0.3,4.6-0.4,7-0.5
	c4.1-0.2,8.4-0.4,12.2-2.1c7.9-3.6,10.3-13.7,11.5-21.5c0.7-4.6,1.1-9.3,1.6-13.9c0.3-2.3,0.5-4.6,0.9-7c0.4-2.3,1-4.6,1.3-6.9
	c0.3-2.5,0.1-5,0.4-7.5c0.3-2.5,0.5-5,0.6-7.5c0.2-2.7,0.4-5.4,0.5-8.1c0.2-2.6,1-5.3,1.5-7.9c1-5.1,1.9-10.2,2.9-15.3
	c1-4.9,2.4-9.8,2.8-14.8c0.1-1.3,0.1-2.5,0.2-3.8c0.1-1.2,0.3-2.4,0.5-3.6c0.3-2.5,0.2-5.2,0.2-7.8c0-1.3,0-2.5,0.3-3.7
	c0.2-1.2,0.4-2.4,0.5-3.7c0.3-2.5,0.4-5,0.5-7.5c0.2-4.9,0.5-9.6,1.3-14.4c0.2-1.2,0.1-2.4,0.2-3.6c0.1-1.5,0.1-2.9,0.2-4.4
	c0.1-2.3,0.6-4.5,1-6.8c1.4-10,1.2-20.1,1.2-30.2c0-1.2,0-2.5,0-3.7c0-1.4-0.1-2.8,0-4.1c0.2-1.5,0.5-3,0.6-4.5
	c0.3-3.7,0.4-7.3,0.3-11c-0.1-6.6-0.5-13.4-2-19.8c-0.1-0.3-0.1-0.4-0.1-0.5c0,0.1,0.1,0.2,0.1,0.5c-0.6-2.4-0.5-4.8-1.1-7.2
	c-0.4-1.7-1.1-3.4-1.7-5.1c-1.1-3-2.3-5.9-3.7-8.7c-2.7-5.2-6-10.1-10.3-14.1c-10-9.3-23.7-12.3-36.9-12.4c-0.3,0-0.5,0-0.7,0
	c-0.5,0-1,0-1.5,0.3c-0.6,0.3-1.2,0.4-1.8,0.6c-1.5,0.4-3.1,0.5-4.7,0.5c-1.3,0.1-2.5,0.1-3.8,0.1c-0.8,0-1.5,0-2.3,0
	c-1.5,0-3,0-4.5,0.1c-3.9,0.2-7.8,1.4-11.6,2.3c-4.2,1.1-8.4,2.4-12.4,4.2c-8.3,3.8-15.8,9.8-22.5,15.9c-3.6,3.2-7,6.5-10.4,9.9
	c-3.4,3.4-7,6.7-10.1,10.3c-3.2,3.6-5.4,7.7-7.4,12c-2,4.4-4.3,8.6-6.6,12.8c-4.7,8.6-6.9,18-8.9,27.5c-0.5,2.4-1,4.7-1.5,7.1
	c-0.3,1.1-0.5,2.3-0.8,3.4c-0.3,1.3-0.4,2.5-0.5,3.8c-0.1,1.3-0.1,2.6-0.2,3.8c-0.1,1.2-0.4,2.4-0.6,3.6c-0.2,2.3-0.3,4.5-0.3,6.8
	c0,4.8,0.3,9.6-0.3,14.3c-0.3,2.2-0.8,4.4-0.9,6.6c-0.1,2.4,0.2,4.8,0.3,7.3c0.1,2.3-0.1,4.5-0.8,6.6c-0.6,1.8-1.5,3.4-2.6,4.9
	c-2.1,3-4.9,5.5-7.3,8.3C598.2,194,597.1,195.5,596.3,197.1z M602.5,195.2c0.8-1,1.7-1.9,2.7-2.9c1.6-1.7,3.3-3.5,4.8-5.7
	c1.3-1.9,2.4-3.9,3.1-5.9c1-3,1.1-5.9,1-8.1c0-0.9-0.1-1.9-0.1-2.7c-0.1-1.5-0.2-2.9-0.1-4.3c0-1.1,0.2-2.3,0.4-3.5
	c0.2-0.9,0.3-1.8,0.4-2.7c0.4-3.8,0.4-7.5,0.3-11.1c0-1.2,0-2.5,0-3.7c0-1.8,0-4.1,0.3-6.4c0.1-0.5,0.1-1,0.2-1.5
	c0.1-0.7,0.2-1.4,0.3-2.1c0.1-1,0.1-1.9,0.2-2.8c0-0.4,0-0.8,0-1.2c0.1-1.3,0.2-2.2,0.4-3.1c0.3-1.2,0.5-2.3,0.8-3.5
	c0.4-1.9,0.8-3.8,1.2-5.7l0.3-1.5c2-9.7,4.1-18.4,8.5-26.4l0.2-0.4c2.2-4.1,4.6-8.3,6.6-12.7c2.1-4.7,4.2-8.1,6.8-11.1
	c2.2-2.5,4.6-4.8,7.1-7.3c1-0.9,1.9-1.9,2.9-2.8c4-4,7.2-7,10.2-9.7c6.1-5.5,13.5-11.6,21.5-15.2c3.3-1.5,7-2.8,11.8-4
	c0.5-0.1,0.9-0.2,1.4-0.4c3.3-0.9,6.4-1.7,9.4-1.9c1.5-0.1,2.9-0.1,4.3-0.1l1.1,0l1.1,0c1.2,0,2.6,0,4-0.1c1.6-0.1,3.5-0.2,5.5-0.6
	c0.6-0.1,1.5-0.4,2.4-0.8c0,0,0,0,0,0c0.1,0,0.2,0,0.3,0l0.4,0c14.8,0.1,26.3,3.9,34.2,11.3c3.6,3.4,6.8,7.8,9.5,13
	c1.3,2.5,2.4,5.2,3.5,8.2l0.2,0.6c0.5,1.4,1,2.7,1.3,4c0.2,0.9,0.3,2,0.4,3.1c0.1,1,0.2,2.1,0.4,3.2c0,0.1,0,0.3,0.1,0.4l0,0.1
	l0.1,0.4c1.5,6.1,1.8,12.7,1.9,18.9c0.1,4.1,0,7.5-0.3,10.6c-0.1,0.7-0.2,1.4-0.3,2.2c-0.1,0.7-0.2,1.4-0.3,2.2
	c-0.1,1.2-0.1,2.4-0.1,3.4c0,0.4,0,0.8,0,1.2v3.7c0,1.4,0,2.9,0,4.3c0,8.4,0.1,17.1-1.1,25.3c-0.1,0.7-0.2,1.4-0.3,2.1
	c-0.3,1.6-0.6,3.3-0.7,5.1c0,1-0.1,1.9-0.1,2.9l-0.1,1.5c0,0.4,0,0.8,0,1.2c0,0.7,0,1.4-0.1,2c-0.8,5.2-1.1,10.2-1.3,14.9
	c-0.1,2.2-0.2,4.8-0.5,7.2c-0.1,1.2-0.3,2.3-0.5,3.4c-0.3,1.4-0.3,2.7-0.3,3.9l0,0.4c0,0.9,0,1.8,0,2.7c0,1.7,0,3.3-0.2,4.7
	c-0.1,0.4-0.1,0.9-0.2,1.3c-0.1,0.8-0.2,1.6-0.3,2.5c-0.1,0.7-0.1,1.5-0.1,2.2c0,0.5-0.1,1.1-0.1,1.6c-0.2,3.1-0.9,6.2-1.7,9.5
	c-0.4,1.5-0.7,3.1-1,4.7c-0.5,2.4-0.9,4.8-1.4,7.2c-0.5,2.7-1,5.4-1.5,8.1c-0.2,0.8-0.3,1.6-0.5,2.4c-0.5,1.9-0.9,3.9-1.1,6
	l-0.3,4.2l-0.3,3.9c-0.2,2.9-0.4,5.2-0.6,7.3c-0.2,1.4-0.2,2.7-0.2,4c0,1.2-0.1,2.4-0.2,3.5c-0.1,1.1-0.4,2.3-0.6,3.6
	c-0.2,1-0.4,2.1-0.6,3.2c-0.3,2.1-0.6,4.3-0.9,7.1c-0.1,1.3-0.3,2.5-0.4,3.8c-0.3,3.3-0.7,6.7-1.2,10c-1.1,7.1-3.1,15.7-9.2,18.4
	c-2.9,1.3-6.7,1.5-10.2,1.7l-0.5,0l-0.5,0c-2.2,0.1-4.4,0.2-6.7,0.5c-1.1,0.1-2.2,0.3-3.3,0.5c-0.9,0.2-1.7,0.3-2.5,0.4
	c-1.2,0.2-2.2,0.2-3.1,0.2c-2.2,0-4.1-0.4-5.8-1.4c-2.1-1.2-3.4-2.9-4.2-5.4c-1-3.4-1.5-6.8-1.3-9.8c0-0.8,0.2-1.7,0.3-2.7
	c0.2-1.1,0.4-2.3,0.4-3.6c0-0.7,0-1.5,0.1-2.2c0-1.7,0.1-3.3,0.3-4.8c0.4-2.3,0.8-4.6,1.2-6.9c0.5-2.6,0.9-5.2,1.4-7.8
	c0.1-0.7,0.3-1.5,0.5-2.3c0.3-1.6,0.7-3.3,0.9-5.1c0.2-1.6,0.2-3.2,0.3-4.7c0-0.9,0.1-1.7,0.1-2.6c0.1-1.3,0.2-2.3,0.3-3.2
	c0.2-1.3,0.2-2.5,0.2-3.5c0-0.3,0-0.6,0-0.9c0-0.6,0.1-1.3,0.2-2.1c0.1-1,0.3-2.1,0.3-3.3c0-4.6-1.5-8.7-4.1-11.4
	c-2.2-2.3-5-3.5-8.3-3.5c-1.1,0-2.2,0.1-3.5,0.4c-2.2,0.4-4.5,0.8-6.7,1.2l-1.7,0.3l-1.1,0.2c-6.4,1-13,2.1-19.3,4.4
	c-2.8,1-5.6,2.2-7.9,4.5c-3.9,3.8-3.7,9.3-3.6,12.5c0,0.6,0.1,1.2,0.1,1.8c0.1,1.7,0.2,3.2,0.1,4.7c0,1-0.2,2-0.4,3.1
	c-0.2,1.3-0.4,2.6-0.5,4.1c0,0.8,0,1.7-0.1,2.5c0,1.6,0,3.1-0.2,4.5c-0.1,1-0.3,2-0.5,3.1c-0.2,1.3-0.5,2.6-0.7,4
	c-0.4,3.6-0.6,7.2-0.8,10.7c-0.3,5.6-0.6,10.9-1.8,16.1c-0.9,3.6-2.2,6.5-4,8.8c-1.8,2.2-4.1,4.2-7.2,6.2c-4.5,2.8-9.4,4.8-14.6,7
	c-1.8,0.7-3.6,1.5-5.3,2.2c-1.3,0.5-2.5,1.1-3.7,1.7c-4.5,2.1-8.8,4.1-13.2,4.3c-0.1,0-0.2,0-0.3,0c-1.6,0-2.6-0.5-3.1-1.5
	c-0.7-1.7-0.7-3.9-0.8-6.2c0-0.9,0-1.9-0.1-2.9c-0.1-1.4-0.3-2.7-0.5-3.9c-0.1-0.6-0.2-1.2-0.3-1.9c-0.2-1.5-0.2-3.3,0-5.5
	c0.1-0.8,0.2-1.6,0.4-2.5c0.2-1.2,0.4-2.4,0.5-3.8c0.1-1.8,0.1-3.7,0.1-5.4c0-0.9,0-1.7,0-2.6l0-1.1l0.1-7.1l0-0.6
	c0-0.8,0-1.6,0.1-2.2c0.1-0.8,0.2-1.7,0.3-2.7c0.3-3.8,0.5-8.3-1-12.1c-1-2.5-2.6-4.4-4.1-6c-1-1.1-1.9-2.1-2.4-3.2
	c-1.1-2.1-0.8-4.8-0.6-7.9c0.1-1.3,0.2-2.7,0.3-4l0-1.9c0.1-4.5,0.1-9.1,0.4-13.5c0.2-2.4,0.4-4.6,0.7-6.8c0.2-1.2,0.4-2.5,0.6-3.8
	c0.2-1,0.4-2,0.5-3c0.2-1.6,0.2-3.1,0.1-4.5c-0.1-1.1-0.1-2.2,0-3c0.4-1.8,0.5-3.6,0.6-5.3c0.1-0.7,0.1-1.4,0.2-2.1
	c0.2-1.9,0.6-3.4,1.3-4.7C600.4,197.8,601.3,196.5,602.5,195.2z M676.3,160l0.2,0c3.7,0,7.2-0.9,10.5-1.8c1.1-0.3,2.2-0.6,3.2-0.9
	c1.6-0.5,3.2-0.9,4.7-1.3c3.2-0.7,6.4-0.8,9.9-1l0.8,0l0.4,0c3.4-0.1,7.3-0.3,11-1.6c1.7-0.6,3.2-1.5,4.6-2.6c1.3-0.2,2.5-1.1,3-2.4
	l0-0.1l0,0c0,0,0,0,0-0.1l0,0l0.1-0.1c0-0.1,0-0.1,0.1-0.2c0-0.1,0.1-0.1,0.1-0.2l0.4-1.1l0.1-0.2l0.3-0.7c0.1-0.1,0.1-0.3,0.1-0.4
	c0.1-0.2,0.2-0.4,0.3-0.6c0,0,0-0.1,0.1-0.1c0,0,0,0,0,0c0,0,0,0,0,0c0,0,0,0,0,0l0-0.1l0-0.1c0,0,0,0,0,0c0,0,0-0.1,0.1-0.1
	c0,0,0-0.1,0.1-0.1l0.1-0.2l0-0.1c0.1-0.3,0.2-0.6,0.2-0.9c0.4-1.4,0.6-2.7,0.7-3.9c0.6-4.9,0.5-9.7,0.4-14.4c-0.1-3-0.1-5.9,0-8.8
	c0-1,0.1-2,0.2-3.1c0.3-5.1,0.6-10.8-1-16.2c-1-3.3-2.8-6-5.3-7.8c-2.6-1.9-5.9-3-10.1-3.3c-0.2,0-0.4,0-0.6-0.1
	c-0.6-0.1-1.3-0.1-2-0.1c-0.6,0-1.2,0.1-1.7,0.2c-0.3,0.1-0.6,0.1-0.8,0.2c-0.2,0-0.3,0-0.5,0c-0.2,0-0.4,0-0.6,0
	c-0.1,0-0.3,0-0.4,0c-1.2,0-2.2,0.2-3.1,0.4c-0.2,0-0.4,0.1-0.6,0.1c-1,0.2-2,0.3-3.1,0.4l-0.3,0l-0.1,0c-2.5,0.3-5,0.7-7.6,1.5
	c-2.1,0.7-4.3,1.8-6.5,3c-8.7,5.1-15,13.1-16.7,21.5c-1,4.7-1,9.3-1,13.8c0,3,0,5.8-0.3,8.6c-0.1,0.6-0.1,1.2-0.2,1.8
	c-0.3,2.8-0.6,5.6-0.6,8.5c0,2.8-0.1,7,2.2,10.4C668.9,158.5,672.3,160,676.3,160z M668.8,145.5c0-3.3,0.4-6.6,0.8-10
	c0.7-7.3-0.2-14.8,1.2-22c1.7-8.1,7.8-14.8,14.8-18.9c1.8-1.1,3.8-2,5.8-2.7c2.2-0.8,4.6-1.1,6.9-1.4c1.2-0.2,2.4-0.3,3.6-0.5
	c1-0.2,2-0.4,3-0.4c0.1,0,0.2,0,0.3,0c0.4,0,0.9,0.1,1.3,0.1c0.1,0,0.2,0,0.4,0c0.4,0,0.8-0.2,1.1-0.3c0.3-0.1,0.6-0.1,0.9-0.1
	c0.8,0,1.6,0.1,2.2,0.2c2.8,0.2,5.8,0.9,8.1,2.6c1.9,1.4,3.2,3.5,3.9,5.7c1.8,5.7,0.9,12.1,0.7,18c-0.3,7.6,0.5,15.3-0.4,22.9
	c-0.2,1.5-0.4,3.1-1,4.5c0,0,0,0,0,0c0,0,0,0,0,0c0,0,0,0,0,0c0,0,0,0,0,0c-1.3,3.1-3.6,5.3-6.7,6.4c-3.3,1.2-6.8,1.3-10.2,1.4
	c-3.8,0.2-7.6,0.3-11.4,1.1c-2.7,0.6-5.4,1.5-8.1,2.2c-3.1,0.8-6.3,1.6-9.6,1.6c0,0-0.1,0-0.1,0c-2.1,0-4.6-0.6-5.9-2.4
	C668.8,151.3,668.8,148.1,668.8,145.5z M722.4,143.2C722.4,143.2,722.4,143.2,722.4,143.2C722.4,143.2,722.4,143.2,722.4,143.2
	C722.4,143.2,722.4,143.2,722.4,143.2z M156.9,513.1c3.6-0.8,7.2-1.6,10.9-2.5c3.4-0.8,6.8-1.8,10.1-2.7c2.9-0.8,5.9-1.4,8.4-3
	c2.5-1.5,4-4,4.8-6.8c0.8-3.2,0.8-6.5,1.2-9.8c0.4-3.5,1.2-7,1.5-10.5c0.2-3.6,0.2-7.2,0.3-10.8c0.1-1.8,0.2-3.6,0.3-5.4
	c0.2-1.7,0.6-3.4,0.8-5.1c0.2-1.5,0.1-3.1,0.1-4.6c0-1.6,0.1-3.3,0.1-4.9c0-1.9-0.1-3.8,0.3-5.7c0.3-1.7,0.5-3.4,0.6-5.1
	c0.4-7.1-0.3-14.2,0.8-21.2c0.3-1.6,0.6-3.1,0.6-4.8c0-1.6-0.1-3.3-0.2-4.9c0-1.6,0.2-3.3,0.3-4.9c0-2,0.1-4,0.1-5.9
	c0-2,0.1-4,0.1-5.9c0-1-0.1-2.1,0.1-3.1c0.2-0.8,0.3-1.6,0.4-2.4c0.5-3.6,0.5-7.2,0.8-10.9c0.2-1.7,0.6-3.4,0.7-5.2
	c0.1-1.9,0.2-3.8,0.3-5.8c0.1-1.8,0.5-3.6,0.7-5.4c0.2-1.9,0.2-3.8,0.3-5.7c0.2-3.8,0.6-7.4,1.3-11.1c0.7-3.7,1.2-7.4,1.6-11.1
	c0.4-3.8,0.7-7.7,1-11.5c0.3-4,0.3-8,0.3-12c0-4,0-7.9,0-11.9c0-1.1,0-2.1,0-3.2c0-0.9,0.2-1.7,0.3-2.5c0.3-1.8,0.5-3.7,0.7-5.5
	c0.3-3.6,0.4-7.2,0.7-10.9c0.2-3.5,0.7-6.9,1.4-10.3c0.6-3.4,0.8-6.8,1.1-10.2c0.3-3.1,0.8-6.4,2.3-9.1c2.7-5.1,8.4-7.4,13.5-9.3
	c13.6-5.2,26.6-11.9,39.8-18.1c7-3.2,14-6.3,21-9.5c7.1-3.3,14.2-6.7,21.2-10c14.1-6.7,28.3-13.1,42.8-18.8c3.7-1.4,7.3-2.9,11-4.3
	c1.8-0.7,3.5-1.5,5.3-2c1.7-0.5,3.5-1,5.2-1.6c3.4-1.2,6.7-3,9.9-4.7c3.2-1.7,6.3-3.5,9.5-5.2c6.6-3.6,13.5-6.6,20.4-9.6
	c7.1-3.1,14.2-6.1,21.2-9.3c6.9-3.1,13.7-6.5,20.4-10c6.8-3.5,13.6-6.8,20.4-10.3c3.1-1.6,6.1-3.4,9.3-4.9c2.6-1.2,5.3-2.3,7.8-3.9
	c2.2-1.4,4.1-3.3,5.1-5.7c0.9-2.1,1.2-4.4,1.3-6.7c0.1-4.9-0.8-10.1-2.9-14.6c-0.8-1.7-1.7-3.4-3.2-4.5c-2.3-1.8-5.4-2.3-8.3-2.4
	c-1.9,1.3-4.6,1.6-6.8,2.1c-2.8,0.7-5.5,1.8-8.2,2.8c-3.4,1.3-6.8,2.5-10.2,3.9c-3.4,1.3-7,2-10.3,3.4
	c-13.9,5.6-28.2,10.1-42.3,15.1c-7.1,2.5-14.1,5.1-21,7.9c-3.5,1.4-7.2,2.5-10.8,3.5c-3.6,1.1-7.1,2.5-10.7,3.9
	c-14,5.6-28.4,10.3-42.7,15.2c-7.1,2.4-14.2,4.8-21.3,7.4c-7.1,2.6-14.1,5.5-21.1,8.1c-7.2,2.7-14.7,4.4-21.8,7.1
	c-7.1,2.7-14,5.5-21.1,8.2c-7.2,2.7-14.4,5.3-21.5,8c-3.6,1.4-7.2,2.9-10.9,4c-3.8,1.1-7.6,2.2-11.4,3.3c-3.6,1.1-7.1,2.8-10.7,4.1
	c-3.6,1.4-7.3,2.7-10.9,4c-3.5,1.3-7.2,1.7-10.6,3.1c-3.4,1.4-6.8,2.7-10.2,4c-14.3,5.3-28.9,9.7-43.6,13.4
	c-3.7,0.9-7.5,1.3-11.3,1.3c-1.3,0-2.5,0-3.8-0.1c-5-0.3-9.5-2-14-4.1c-5.4-2.5-10.5-5.4-15.2-9.1c-2-1.5-3.9-3.2-5.5-5.1
	c-1.3-1.6-2.5-3.3-3.8-4.9c-3-3.7-6.6-7.2-11.3-8.5c-1.2-0.3-2.3-0.5-3.5-0.5c-4,0-7.9,1.6-11.2,3.8c-9,5.8-14.2,16.1-18,25.7
	c-2,5.1-3.7,10.3-5.2,15.5c-1.5,5.1-1.9,10.4-1.6,15.6c0.1,2.5,0.4,5,1.1,7.5c0.8,2.8,2.5,5.3,4.3,7.5c3.9,4.6,9.1,8,14.4,11
	c11.1,6.3,23.2,10.9,35.8,12.7c4.2,0.6,8.5,1,12.8,1c2.7,0,5.4-0.1,8.1-0.4c1.8-0.2,3.6-0.4,5.4-0.7c1.9-0.3,3.7-0.8,5.6-1
	c3.8-0.3,7.8-0.2,11.5-1.4c3.3-1.1,6.4-2.6,9.8-3.2c1.8-0.3,3.6-0.4,5.4-0.8c1.7-0.3,3.2-0.8,4.8-1.4c3.1-1,6.2-1.9,9.4-2.1
	c0.6,0,1.3-0.1,1.9-0.1c0.2,0,0.5,0,0.7,0c0,0,0,0,0.1,0c0.2,0,0.4,0,0.7,0c0.2,0,0.5,0,0.6,0.1c0.2,0.1,0.5,0.5,0.6,0.7
	c0.8,1,1.4,2.1,1.9,3.3c2.2,5.6,1.6,12.1,1.5,17.9c-0.1,3.5,0.1,6.9,0.1,10.4c0,1.6,0,3.2-0.3,4.8c-0.3,1.8-0.2,3.7-0.3,5.5
	c-0.1,4,0,8-0.2,12c-0.1,1.8-0.7,3.7-1.1,5.5c-0.4,1.8-0.8,3.6-1.3,5.4c-1,3.6-2.2,7-3.8,10.3c-1.6,3.4-3.4,6.6-4.9,10
	c-1.5,3.4-2.8,6.9-4.3,10.3c-1.4,3.1-3.2,5.9-5,8.8c-3.2,5-7,10.9-5.3,17.1c1.4,5.1,5,9.1,7.4,13.7c3,5.9,5.6,12.1,7.7,18.4
	c1.1,3.3,2.1,6.7,3,10.1c0.9,3.2,1.8,6.5,2.3,9.8c0.3,2.1,0.2,4.3,0.1,6.5c-0.1,2.5-0.3,5-0.6,7.5c-0.1,0.9-0.2,1.9-0.4,2.8
	c-0.3,1.5-0.2,3.1-0.2,4.6c0,2-0.1,3.9-0.1,5.9c0,1.9,0.2,4-0.2,5.8c-0.7,3.6-1,7.2-1.3,10.9c-0.3,3.4-0.9,6.7-1.6,10
	c-1,4.6-1.7,9.9,0.3,14.3c1.9,4.2,6.5,6.6,11,7.2c1,0.1,2,0.2,3,0.2C145.9,516.1,151.5,514.3,156.9,513.1z M129.9,507.1
	c-1.5-3.3-0.9-7.8-0.1-11.8c0.8-3.9,1.3-7.2,1.6-10.5c0.1-0.5,0.1-1.1,0.1-1.6c0.3-3.1,0.5-6,1.1-8.8c0.4-1.7,0.3-3.5,0.3-5
	c0-0.5,0-1,0-1.6l0.1-2.9l0.1-2.9c0-0.4,0-0.8,0-1.2c0-1,0-2,0.2-2.8c0.2-1.1,0.3-2.1,0.4-3c0.3-2.6,0.5-5.2,0.7-7.8l0-0.2
	c0.1-2.2,0.2-4.6-0.1-7.1c-0.4-2.9-1.2-5.8-2-8.6c-0.2-0.6-0.3-1.1-0.5-1.7c-1-3.6-2-7.1-3.1-10.3c-2.2-6.7-4.9-13.1-7.9-19
	c-0.9-1.8-2-3.5-3-5.1c-1.7-2.6-3.3-5.1-4-7.8c-1.2-4.5,2-9.5,4.8-13.9c2-3.1,3.8-6,5.3-9.3c0.8-1.9,1.6-3.7,2.3-5.6
	c0.7-1.7,1.3-3.2,2-4.8c0.9-1.9,1.8-3.8,2.8-5.8c0.7-1.4,1.4-2.8,2.1-4.2c1.8-3.7,3.1-7.3,4.1-11c0.5-2,1-4,1.3-5.6
	c0.1-0.5,0.2-1,0.4-1.4c0.4-1.4,0.8-3,0.9-4.7c0.2-2.8,0.2-5.5,0.2-8.2c0-1.3,0-2.6,0-4c0-0.4,0-0.8,0-1.3c0-1.3,0-2.6,0.2-3.8
	c0.3-1.9,0.3-3.7,0.3-5.4c0-1.3,0-2.7,0-4c0-2.1-0.1-4.2,0-6.3c0-0.9,0-1.7,0.1-2.6c0.2-5.3,0.4-11.4-1.8-16.9
	c-0.6-1.6-1.5-3-2.4-4.3l0-0.1c-0.3-0.4-0.9-1.2-1.8-1.7c-1-0.5-1.9-0.6-2.5-0.6c-0.2,0-0.4,0-0.6,0l-0.1,0c-0.3,0-0.5,0-0.8,0
	c-0.7,0-1.5,0-2.2,0.1c-3.7,0.3-7.1,1.3-10.3,2.3l-0.5,0.2c-1.3,0.4-2.6,0.8-3.8,1.1c-0.8,0.2-1.7,0.3-2.7,0.4
	c-0.9,0.1-1.7,0.2-2.7,0.4c-2.6,0.4-5,1.3-7.3,2.2c-1.1,0.4-2.1,0.8-3.1,1.1c-2.4,0.8-5.1,0.9-8,1c-0.8,0-1.7,0.1-2.5,0.1
	c-1.5,0.1-2.9,0.4-4.2,0.7c-0.6,0.1-1.2,0.2-1.8,0.3c-1.7,0.3-3.5,0.5-5.2,0.7c-2.5,0.3-5.1,0.4-7.7,0.4c-4,0-8.1-0.3-12.2-0.9
	c-11.6-1.7-23.2-5.9-34.4-12.3c-4.8-2.7-9.7-5.8-13.3-10.1c-1.8-2.1-3-4.1-3.5-6c-0.7-2.2-0.9-4.7-1-6.5c-0.3-5.5,0.2-10.1,1.4-14.3
	c1.4-4.6,3.1-10,5.1-15.2c3.2-8.2,8.1-18.4,16.5-23.9c2.2-1.4,5.6-3.2,9.1-3.2c0.9,0,1.7,0.1,2.5,0.3c3,0.8,5.9,3.1,9.2,7.1
	c0.5,0.6,1,1.3,1.5,2c0.7,1,1.5,2,2.4,3c1.6,1.9,3.5,3.6,6.1,5.6c4.6,3.6,10,6.8,16,9.5c4.4,2,9.6,4.1,15.5,4.4
	c1.4,0.1,2.7,0.1,4,0.1c4.4,0,8.5-0.5,12.3-1.4c15.5-3.9,30.4-8.4,44.1-13.5c3.2-1.2,6.5-2.5,10.3-4c1.5-0.6,3.3-1,5.1-1.5
	c1.8-0.4,3.6-0.9,5.4-1.5l0.7-0.3c3.4-1.2,6.8-2.5,10.2-3.8c1.3-0.5,2.6-1,3.8-1.5c2.3-0.9,4.4-1.8,6.6-2.5l7.6-2.2l3.8-1.1
	c3.1-0.9,6-2.1,8.8-3.2c0.8-0.3,1.6-0.6,2.4-0.9c5.5-2.1,11.1-4.2,16.6-6.2c1.6-0.6,3.3-1.2,4.9-1.8c3.9-1.4,7.8-3,11.6-4.5
	c3.1-1.2,6.3-2.5,9.5-3.7c3.5-1.3,7.3-2.5,10.9-3.6c3.6-1.1,7.3-2.2,10.9-3.6c3.3-1.2,6.6-2.5,9.7-3.8c3.7-1.5,7.6-3,11.4-4.4
	c7.3-2.6,14.8-5.2,21.2-7.3l3.8-1.3c12.9-4.3,26.2-8.8,39.1-14l0.6-0.2c3.3-1.3,6.5-2.6,9.8-3.6c0.6-0.2,1.2-0.4,1.8-0.5
	c3.1-0.9,6.3-1.9,9.4-3.1c6.2-2.5,13-5.1,20.8-7.8c3.8-1.3,7.8-2.7,11.6-4c10.2-3.5,20.7-7,30.9-11.2c1.5-0.6,3.1-1.1,4.9-1.6
	c1.8-0.5,3.6-1.1,5.5-1.8c3.2-1.3,6.5-2.5,10.1-3.8c0.5-0.2,1-0.4,1.5-0.5c2.2-0.8,4.2-1.6,6.3-2.1c0.4-0.1,0.9-0.2,1.4-0.3
	c1.6-0.3,3.6-0.7,5.4-1.7c2.1,0.1,3.7,0.6,4.8,1.5c0.9,0.7,1.6,2.1,2,3c1.8,3.8,2.6,8.4,2.5,12.8c-0.1,2.2-0.4,3.9-0.9,5.2
	c-0.6,1.4-1.8,2.7-3.6,3.9c-1.6,1.1-3.5,1.9-5.4,2.8c-0.6,0.3-1.3,0.6-1.9,0.9c-2.1,1-4.1,2.1-6.1,3.1c-1.1,0.6-2.2,1.2-3.3,1.8
	c-3.5,1.8-7.1,3.6-10.6,5.4c-3.2,1.6-6.5,3.3-9.8,4.9c-5.5,2.8-12.7,6.5-20.2,9.9c-6.3,2.9-12.7,5.6-18.9,8.3l-2.2,1
	c-6.8,3-13.9,6-20.7,9.7c-1.2,0.6-2.3,1.3-3.5,1.9c-2,1.1-4,2.2-6,3.3l-0.3,0.2c-3,1.6-6,3.2-9.1,4.3c-1,0.4-2,0.6-3.1,1
	c-0.6,0.2-1.3,0.4-1.9,0.6c-1.7,0.5-3.4,1.2-5,1.8L360,167c-3.3,1.3-6.7,2.7-10,4l-0.9,0.4c-15.5,6.1-30.5,12.9-43.1,18.9
	c-1.8,0.9-3.6,1.7-5.5,2.6c-5.2,2.4-10.5,5-15.8,7.4c-3.5,1.6-7.1,3.2-10.5,4.8c-3.4,1.5-7,3.1-10.5,4.8c-3.7,1.7-7.5,3.5-11.1,5.3
	c-9.2,4.4-18.8,9-28.4,12.7c-4.8,1.8-12.1,4.6-15.6,11.2c-1.9,3.5-2.4,7.4-2.7,10.7c-0.1,1-0.2,1.9-0.2,2.9c-0.2,2.4-0.4,4.8-0.8,7
	c-0.8,4-1.2,7.5-1.5,10.8c-0.1,1.4-0.2,2.9-0.3,4.3c-0.1,2.1-0.2,4.4-0.4,6.5c-0.2,2-0.4,3.6-0.7,5.2c0,0.2-0.1,0.3-0.1,0.5
	c-0.1,0.7-0.3,1.7-0.3,2.7v3.2v11.9c0,0.7,0,1.4,0,2.1c0,3.3,0,6.5-0.2,9.6l-0.2,2.4c-0.3,3-0.5,6.1-0.8,9.1
	c-0.5,4.3-0.9,7.7-1.6,10.8c-0.8,3.9-1.2,7.8-1.4,11.7l0,0.8c-0.1,1.7-0.1,3.2-0.3,4.8c-0.1,0.7-0.2,1.4-0.3,2.1
	c-0.2,1.1-0.4,2.2-0.4,3.5l-0.3,5.8c0,0.7-0.2,1.5-0.3,2.4c-0.1,0.8-0.3,1.7-0.4,2.6c-0.1,1.6-0.2,3.1-0.3,4.7
	c-0.1,2.1-0.2,4.1-0.5,6.1c-0.1,0.8-0.2,1.5-0.3,2.1c-0.2,1.1-0.2,2.2-0.2,3.1c0,0.2,0,0.5,0,0.7l-0.1,3.7l0,2.2l0,2l-0.1,3.9
	c0,0.6-0.1,1.3-0.1,2c-0.1,1-0.1,1.9-0.1,3c0,0.8,0,1.7,0.1,2.5c0,0.8,0.1,1.6,0.1,2.4c0,0.9-0.2,1.9-0.4,3
	c-0.1,0.4-0.1,0.8-0.2,1.1c-0.7,4.6-0.7,9.2-0.7,13.7c0,2.7,0,5.3-0.1,7.9c-0.1,1.7-0.3,3.3-0.5,4.6c-0.3,2-0.3,3.8-0.3,5.6l0,0.8
	c0,0.8,0,1.7-0.1,2.5c0,0.8-0.1,1.6-0.1,2.3c0,0.5,0,1.1,0,1.6c0,0.9,0,1.8-0.1,2.5c-0.1,0.6-0.2,1.3-0.3,1.9
	c-0.2,1.1-0.4,2.2-0.5,3.3c-0.2,1.6-0.3,3.4-0.4,5.7c0,1.3-0.1,2.7-0.1,4c0,2.3-0.1,4.5-0.2,6.7c-0.1,1.8-0.4,3.7-0.8,5.6
	c-0.3,1.5-0.5,3.1-0.7,4.7c-0.1,1.1-0.2,2.2-0.3,3.2c-0.2,2.1-0.3,4.2-0.8,6c-0.5,2-1.5,3.5-3,4.4c-1.7,1-3.8,1.6-6.1,2.2
	c-0.4,0.1-0.9,0.2-1.3,0.3c-1.1,0.3-2.2,0.6-3.3,0.9c-2.2,0.6-4.5,1.3-6.7,1.8c-2.8,0.7-5.6,1.3-8.3,1.9l-2.5,0.6
	c-1.3,0.3-2.6,0.6-3.8,0.9c-4.2,1-8.1,2-12,2c-0.9,0-1.7-0.1-2.5-0.2C134.8,511.6,131.3,510.1,129.9,507.1z M778.7,69.8
	c0,0-0.2-0.7-0.7-2.9c0,0,0,0,0,0C778.2,67.8,778.7,69.8,778.7,69.8z M895.4,458.6c0,0,0.1-0.6,0.3-1.2c0,0,0,0,0,0
	C895.5,458.2,895.4,458.6,895.4,458.6z M897.5,419.3c-1.3-4.2-2.6-7.8-4.2-11c-4-8.4-9.3-14-15.7-16.6c-4-1.7-8.2-1.9-12.6-2
	c-0.9,0-1.7,0-2.6,0c-1.2,0-2.4,0-3.6,0l0,0c-0.1,0-0.2,0-0.4,0c-0.2,0-0.4,0-0.6,0c-0.5,0-0.9,0-1.2,0.1c-1.1,0.2-1.8,0.6-2.2,0.8
	l-0.1,0.1c-0.4,0.2-0.9,0.4-1.6,0.7c-1.5,0.6-3.7,1.5-5.3,3.7c-1.6,2.2-2.2,5-2.1,8.5c0.1,1.2,0.2,2.3,0.3,3.3
	c0.1,1.1,0.3,2.2,0.3,3.3c0,1.6,0,3.2,0,4.8c0,0.8,0,1.6,0,2.4v15.1c0,2.8-0.2,5.6-0.3,8.6c-0.1,2-0.2,4.1-0.3,6.1
	c-0.1,2.8-0.1,5.5-0.2,8.2c0,2.3-0.1,4.7-0.1,7c-0.1,2.2-0.1,4.5-0.2,6.7c-0.1,2.3-0.1,4.6,0.5,7c1.2,4.9,5,8.4,9.9,9
	c1.2,0.1,2.4,0.2,3.5,0.2c0.5,0,1,0,1.5,0c1.1,0,2.3,0.2,3.5,0.4c0.4,0.1,0.8,0.1,1.2,0.2c2.6,0.4,4.9,0.6,7,0.6
	c1.6,0,3.2-0.1,4.6-0.4c5.1-0.9,9.6-3.4,12.5-5.4c4.5-3.1,7.6-6.4,9.1-10c1.2-2.9,1.3-5.9,1.4-8.5c0-1.6,0.1-3,0.3-4.3l0.4-2
	c0.1-0.5,0.1-0.9,0.2-1.3c0.1-0.5,0.1-1.1,0.2-1.7c1-8.3,0.9-16.1-0.2-23.1C899.6,426.4,898.6,422.9,897.5,419.3z M896.4,452.7
	c-0.2,1.5-0.4,3.1-0.7,4.6c0.2-1.1,0.5-2.5,0.5-2.5c0,0-0.1,0.7-0.5,2.5c-0.8,3.9,0.1,8.3-1.4,12.1c-1.5,3.4-4.6,6.2-7.6,8.2
	c-3.2,2.2-7.1,4.1-11,4.7c-1.3,0.2-2.6,0.3-3.9,0.3c-2.2,0-4.3-0.2-6.4-0.6c-1.7-0.3-3.4-0.6-5.2-0.7c-1.6-0.1-3.1,0-4.7-0.2
	c-3.3-0.4-5.7-2.7-6.5-5.9c-0.5-1.9-0.4-3.9-0.4-5.9c0.1-2.2,0.1-4.5,0.2-6.7c0.1-5.1,0.2-10.1,0.3-15.2c0.2-5,0.7-9.9,0.7-14.8
	c0-5,0-10.1,0-15.1c0-2.4,0-4.9,0-7.3c0-2.3-0.5-4.5-0.6-6.7c-0.1-2.1,0.1-4.3,1.3-6c0.9-1.2,2.2-1.8,3.5-2.3c0.7-0.3,1.4-0.5,2-0.9
	c0.4-0.2,0.7-0.4,1.1-0.5c0.2,0,0.4,0,0.7,0c0.3,0,0.7,0,1,0c0,0,0.1,0,0.1,0c1.2,0,2.4,0,3.5,0c0.8,0,1.7,0,2.5,0
	c3.7,0.1,7.7,0.2,11.2,1.7c6.4,2.7,10.7,8.5,13.6,14.6c1.6,3.4,2.9,6.9,3.9,10.4c1,3.3,2,6.8,2.6,10.2
	C897.4,437.9,897.2,445.5,896.4,452.7z M967.3,442c-1.2-2.2-3-4-4.4-6c0.1,0.2,0.2,0.4,0.3,0.4c-0.1-0.1-0.2-0.2-0.3-0.4
	c0,0,0,0,0,0c0,0,0,0,0,0c-0.5-0.7-0.8-1.2-1.1-1.5c0.3,0.5,0.8,1.1,1.1,1.5c-4-5.8-6.7-12.4-9.4-18.8c-1.5-3.7-2.5-7.6-3.6-11.5
	c-0.6-1.9-1-3.9-1.7-5.7c-0.5-1.4-1.1-2.8-1.7-4.2c-4.8-11.5-10.2-23-17-33.5c-3.3-5.1-7-9.9-11.3-14.2c-2-2-4.1-3.8-6.3-5.5
	c-2.4-1.8-4.8-3.4-7.7-4.1c-3.1-0.8-6.3-0.9-9.5-1.4c-3.4-0.6-6.7-1.5-10.1-2c-3.6-0.6-7.3-1-11-1.2c-0.9-0.1-1.9-0.1-2.8-0.1
	c-0.5,0-1.2-0.1-1.8-0.1c-0.4,0-0.7,0-1.1,0.1c-0.9,0.2-1.6,0.5-2.5,0.6c-0.5,0-1.1,0.1-1.6,0.1c-3.3,0-6.6-0.7-9.8-0.7
	c-1,0-1.9,0.1-2.9,0.2c-2.1,0.3-4.1,0.5-6.1,0.5c-1.1,0-2.2,0-3.3-0.1c-1.4-0.1-2.8-0.1-4.3-0.1c-1.8,0-3.6,0.1-5.3,0.5
	c-5,1.1-9.9,2.3-14.8,3.8c-4.5,1.4-9.5,3.1-13.2,6.2c-1.9,1.6-3.1,3.9-4,6.2c-1.3,3-2,6.3-2.6,9.5c-0.6,3.4-1,6.8-1.5,10.2
	c-0.5,3.5-1.5,7-1.7,10.6c-0.2,3.5,0.1,6.9,0.1,10.4c0,1.7-0.2,3.3-0.3,4.9c-0.1,1.9,0,3.9,0,5.9c0,3.7,0.2,7.5-0.3,11.2
	c-0.5,3.2-0.6,6.5-0.6,9.8c0,3.5,0,7.1,0,10.6c0,3.2,0.1,6.1-0.5,9.2c-1.3,7-1.4,14.3-1.4,21.4c0,7.8,0,15.5,0,23.3
	c0,2.1,0,4.1,0,6.2c0,0.9,0.1,1.9,0,2.8c-0.1,0.8-0.3,1.7-0.4,2.5c-0.5,3.4-0.7,6.8-0.7,10.2c-0.1,7.3,0.3,14.6,0.2,21.8
	c-0.1,6.9-0.6,14,0.6,20.9c0.5,2.6,0.4,5.1,0.2,7.7c-0.3,2.5-0.7,5-0.8,7.5c-0.1,3.8,0,7.7,0,11.5c0,3.2,0.1,6.3,0.4,9.5
	c0.5,5.2,1.5,10.6,4.1,15.2c2.4,4.1,6.1,7.2,10.7,8.5c3.2,0.9,6.6,0.9,9.9,0.9c0.4,0,0.7,0,1.1,0c2.9,0,5.9,0,8.8,0
	c5.3-0.1,11.2-0.1,16-2.7c2-1.1,3.7-2.8,4.8-4.8c1.2-2.2,1.5-4.8,1.8-7.2c0.3-2.9,0.2-5.8-0.1-8.7c-0.1-1.3-0.4-2.6-0.6-3.9
	c-0.2-1.9,0-4,0.1-6c0.1-4,0.1-7.9,0.2-11.9c0.1-3.3-0.3-6.7,0-10c0.2-2.7,0.9-5.5,3.1-7.3c2.6-2.2,5.8-3.7,9.2-4.2
	c1-0.1,2.1-0.2,3.1-0.2c4.6,0,9.2,1.2,13.8,1.2c1.1,0,2.2-0.1,3.3-0.2c3.6-0.5,7.1-1.8,10.5-3c3.4-1.1,6.7-2.4,9.9-3.9
	c3.2-1.5,6.2-3.1,9.2-5c0.6-0.4,1.3-0.8,1.9-1.3c0.8-0.6,1.5-1.4,2.2-2.1c1.4-1.4,2.9-2.9,4.3-4.3c1.3-1.3,2.6-2.4,4-3.5
	c1.3-1.1,2.7-2.2,3.8-3.5c2.1-2.4,3.7-5.2,5.3-7.9c6.6-11.5,10.7-24.3,17.2-35.8c1.4-2.5,2.9-5,4.8-7.3c1.8-2.1,3.7-4.1,5.7-6.1
	c3.9-3.9,7.8-8.1,9.4-13.5C968.8,447.1,968.7,444.6,967.3,442z M964.1,448.7c-1.3,4.3-4.6,7.9-8.5,11.9l-0.8,0.8
	c-1.7,1.7-3.5,3.6-5.1,5.6c-2.1,2.5-3.7,5.3-5.2,7.9c-3.3,5.8-6,12-8.6,17.9c-2.6,6-5.3,12.2-8.6,17.9c-1.5,2.7-3.1,5.2-4.8,7.3
	c-1,1.2-2.2,2.2-3.3,3c-1.5,1.2-2.9,2.4-4.3,3.8l-4.3,4.3c-0.2,0.2-0.4,0.4-0.6,0.6c-0.4,0.4-0.8,0.8-1.1,1
	c-0.6,0.4-1.2,0.8-1.7,1.2c-2.6,1.7-5.4,3.2-8.7,4.7c-3,1.4-6.1,2.6-9.5,3.8l-1,0.3c-2.9,1-6,2.1-8.8,2.5c-0.9,0.1-1.7,0.2-2.7,0.2
	c-2,0-4.2-0.3-6.4-0.5c-2.4-0.3-4.8-0.6-7.4-0.6c-1.3,0-2.5,0.1-3.7,0.2c-4,0.6-8,2.4-11.2,5.1c-2.7,2.3-4.1,5.6-4.5,10.1
	c-0.2,2.2-0.1,4.4,0,6.5c0,1.3,0.1,2.6,0.1,3.8l-0.2,8.9l-0.1,3c0,0.6,0,1.1-0.1,1.8c-0.1,1.4-0.2,3.1,0,4.7
	c0.1,0.7,0.2,1.4,0.3,2.1c0.1,0.6,0.2,1.2,0.3,1.8c0.3,2.7,0.3,5.4,0.1,8c-0.2,1.9-0.5,4.1-1.3,5.7c-0.7,1.3-1.8,2.4-3.2,3.2
	c-3.8,2.1-8.9,2.1-13.8,2.2l-0.3,0c-2.8,0-5.8,0-8.8,0l-1,0c-3.4,0-6.2-0.1-8.8-0.8c-3.5-1-6.4-3.3-8.3-6.6
	c-2.5-4.4-3.3-9.8-3.6-13.5c-0.3-3.3-0.3-6.6-0.3-9.1c0-1.3,0-2.5,0-3.8c0-2.5,0-5.1,0-7.6c0-1.4,0.2-2.9,0.4-4.5
	c0.1-0.9,0.2-1.8,0.3-2.7c0.3-3.3,0.3-6-0.2-8.8c-0.9-5-0.7-10.1-0.6-15.5c0-1.5,0.1-3.1,0.1-4.7c0-3.4,0-6.8-0.1-10
	c-0.1-3.9-0.2-7.9-0.1-11.8c0.1-3.9,0.3-6.9,0.7-9.7c0-0.2,0.1-0.5,0.1-0.8c0.1-0.6,0.2-1.3,0.3-2.1c0-0.8,0-1.5,0-2.2
	c0-0.3,0-0.6,0-0.8v-6.2c0-4.4,0-8.8,0-13.2c0-3.4,0-6.7,0-10.1c0-7.8,0.1-14.3,1.3-20.7c0.6-3.3,0.6-6.4,0.6-9.5l0-0.5
	c0-3.1,0-6.8,0-10.5c0-2.8,0.1-6.1,0.6-9.3c0.5-3.1,0.4-6.2,0.4-9.2c0-0.9,0-1.7,0-2.6c0-0.7,0-1.4,0-2c0-1.3-0.1-2.4,0-3.5
	c0-0.4,0.1-0.9,0.1-1.3c0.1-1.3,0.2-2.6,0.2-3.9c0-1.3-0.1-2.6-0.1-3.9c-0.1-2.2-0.2-4.2,0-6.3c0.1-2,0.5-4,0.9-6.1
	c0.3-1.3,0.5-2.7,0.7-4.2c0.2-1.1,0.3-2.2,0.5-3.3c0.3-2.2,0.6-4.6,1-6.8c0.4-2.5,1.1-5.7,2.3-8.6c0.7-1.6,1.6-3.5,2.9-4.7
	c3.2-2.7,8-4.2,11.8-5.5c4.2-1.3,8.9-2.6,14.4-3.7c1.3-0.3,2.7-0.4,4.5-0.4c1.2,0,2.4,0.1,3.6,0.1l0.5,0c1.3,0.1,2.4,0.1,3.5,0.1
	c2.5,0,4.7-0.2,6.8-0.5c0.7-0.1,1.4-0.2,2.3-0.2c1.4,0,2.9,0.2,4.5,0.3c1.7,0.2,3.5,0.4,5.3,0.4c0.7,0,1.3,0,2-0.1
	c1.1-0.1,2-0.4,2.7-0.6c0.1,0,0.3-0.1,0.4-0.1c0,0,0,0,0.1,0c0,0,0,0,0,0c0.2,0,0.5,0,0.8,0c0.3,0,0.6,0,0.9,0
	c0.9,0,1.8,0.1,2.7,0.1c3.4,0.2,7,0.6,10.5,1.1c1.8,0.3,3.6,0.7,5.5,1.1c1.5,0.3,3,0.6,4.5,0.9c1.4,0.3,2.8,0.4,4.1,0.6
	c1.8,0.2,3.5,0.4,5.1,0.8c2.1,0.5,4.1,1.8,6.3,3.4c2,1.5,4,3.2,5.9,5.1c3.7,3.7,7.3,8.1,10.8,13.6c7.2,10.9,12.5,22.7,16.7,32.8
	c0.2,0.4,0.4,0.8,0.5,1.3c0.4,0.9,0.8,1.8,1.1,2.7c0.4,1.1,0.7,2.3,1.1,3.5c0.2,0.7,0.4,1.3,0.6,2c0.3,0.9,0.6,1.9,0.8,2.9
	c0.8,3,1.7,6,2.9,9l0.4,0.9c2.2,5.3,4.4,10.7,7.5,15.7c0.1,0.3,0.3,0.6,0.5,0.9l1.4,2.1c0,0,0,0,0,0c0,0,0,0,0,0l0.3,0.4
	c0,0,0,0,0,0c0,0,0,0,0,0l0,0c0,0,0,0,0,0c0.1,0.1,0.1,0.1,0.2,0.2c0.5,0.6,0.9,1.2,1.4,1.8c0.9,1.1,1.7,2.1,2.3,3.1
	C964.6,445.4,964.7,446.8,964.1,448.7z M302.7,301.4c2.8-3.4,6.6-5.2,10.6-6.8c4.6-1.8,9.3-3.4,13.9-5.2c9.2-3.5,17.7-8.1,26.4-12.8
	c7.3-3.9,14.9-7.2,21.7-11.9c3.3-2.2,6.3-4.9,8.8-8c1.2-1.5,2.5-3.2,3.2-5c0.9-2.1,1.3-4.3,2.1-6.4c1.4-3.7,2-7.6,2.8-11.5
	c0.2-1.2,0.6-2.5,0.6-3.7c0-1.2,0.1-2.5,0.1-3.7c0-1.2,0.1-2.5,0.1-3.7c0.1-0.8,0.3-1.5,0.4-2.3c0.7-3.5,1.5-7.6,0.3-11.1
	c-0.6-1.9-2.2-3.1-3.3-4.6c-0.6-0.7-1.6-0.8-2.5-0.9c-0.9-0.1-1.7-0.2-2.6-0.2c-0.1,0-0.2,0-0.3,0c0,0-0.1,0-0.1,0
	c-1.5,1.2-3.6,1.4-5.2,2.3c-2.1,1.2-4,2.5-6.3,3.4c-4.4,1.6-8.8,2.9-13,5c-4.2,2.2-8.2,4.7-12.4,6.7c-4.2,2-8.6,2.9-13.1,4.1
	c-4.5,1.3-8.9,3.5-13.2,5.4c-4.5,2-9.1,4.1-13.6,6.1c-4.5,2-9,4.2-13.6,5.8c-4.6,1.6-9.4,2.4-14,4.2c-4.4,1.8-8.7,4-13,6
	c-2.1,1-4.2,2-6.4,2.8c-2,0.7-4,1.3-5.9,2.1c-3.4,1.4-6.2,3.7-7.7,7.1c-1.4,3.4-1.9,7.1-2.7,10.7c-1,4.5-1.4,9.1-2.1,13.8
	c-0.2,1.3-0.5,2.6-0.7,3.8c-0.2,1.1-0.1,2.3-0.1,3.4c0,2.3,0,4.7-0.1,7c-0.1,2.3-0.3,4.5-0.6,6.8c-0.4,2.3-0.4,4.7-0.4,7
	c-0.1,2.6,0.1,5.3-0.2,7.8c-0.3,2.4-0.9,4.9-1.2,7.3c-0.6,4.6-1,9.2-1.8,13.8c-0.7,3.5-1.7,6.8-3.2,10.1c-1.3,2.9-2.7,5.8-3.7,8.7
	c-1.1,2.9-2.1,6.1-2,9.3c0.2,3.9,2.6,7.6,4.4,10.9c1,1.8,1.9,3.7,2.5,5.7c0.7,2.1,0.9,4.4,1.1,6.6c0.2,2.3,0.2,4.6,0.4,6.9
	c0.2,2.4,0.7,4.7,0.7,7.1c-0.1,5.1-0.2,10.1-0.3,15.2c-0.2,9.1-0.2,18.4,0.6,27.5c0.7,7.4,1.9,15.2,5.5,21.8c1.8,3.4,4.1,6.2,7.5,8
	c1.9,1,4,1.8,6.1,1.9c0.2,0,0.3,0,0.5,0c1.9,0,3.8-0.4,5.7-1c4.4-1.2,8.8-2.2,13.2-3.1c2.3-0.5,4.5-1,6.8-1.6
	c2.3-0.6,4.5-1.3,6.7-1.9c4.8-1.2,9.5-2.5,14.3-3.7c4.8-1.3,9.7-2.4,14.5-3.7c9.3-2.4,18.2-5.8,27.3-8.9c7.6-2.6,15.3-5.3,22-9.7
	c3.1-2.1,6-4.5,8.3-7.5c2.2-2.9,3.2-6.3,3.7-9.9c0.6-4,0.7-8,1.1-11.9c0.2-2,0.7-4,0.7-6c0-1.2,0-2.3,0.1-3.5c0.2-1,0.2-1.9,0.3-2.9
	c0.1-2.1,0.2-4.1,0.5-6.2c0.3-2.2-0.2-4.4,0.2-6.5c0.3-1.7,0.5-3.5,0.4-5.3c-0.1-2-0.8-3.6-1.8-5.2c-0.3-0.4-0.5-0.9-0.9-1.3
	c-0.3-0.3-0.6-0.4-1-0.5c-0.8-0.3-1.6-0.7-2.5-0.8c-0.2,0-0.5,0-0.7,0c-1.9,0-3.9,0.9-5.5,1.7c-3.9,1.8-7.4,4.2-11.1,6.2
	c-4.1,2.1-8.6,3-12.8,4.6c-4.6,1.7-9.1,3.8-13.6,5.8c-4.4,1.9-8.8,4.3-13.5,5.5c-2.2,0.6-4.4,1.1-6.5,2c-1.9,0.8-3.6,1.9-5.6,2.4
	c-0.8,0.2-1.6,0.3-2.4,0.3c-0.9,0-1.8-0.1-2.6-0.3c-0.7-0.2-1.3-0.6-1.9-0.9c-0.6-0.3-1-0.8-1.3-1.4c-0.9-1.8-1.7-3.6-1.6-5.7
	c0-1.9,0.6-3.7,1.5-5.3c2-3.4,5.4-5.2,8.9-6.6c4-1.5,8.1-2.5,12.1-3.9c5.6-1.9,11.2-4.5,16.3-7.4c4.3-2.4,8.3-5.4,11.2-9.4
	c3.3-4.5,5.1-9.8,6-15.3c0.6-3.6,0.8-7.3,0.9-10.9c0.1-4.4,0.3-9.1-0.7-13.5c-0.8-3.3-2.6-6.2-5.7-7.8c-1.5-0.7-3-1-4.6-1
	c-2.2,0-4.5,0.6-6.6,1.4c-2.3,0.8-4.5,1.7-6.7,2.6c-2.2,0.9-4.4,1.8-6.7,2.2c-2.5,0.4-5,0.7-7.5,1.1c-2.1,0.3-4.1,0.9-6.1,1.5
	c-1.7,0.4-3.6,0.9-5.4,0.9c-0.4,0-0.7,0-1.1-0.1c-0.8-0.1-1.7-1.1-2.3-1.6c-0.6-0.5-1.2-1-1.6-1.8c-0.6-1-0.7-2.3-0.8-3.4
	c-0.1-1.6-0.1-3.2-0.1-4.7c0-1.5,0.1-3,0.2-4.5c0.1-1.4,0.4-2.7,0.6-4.1c0.2-2.2-0.3-4.5,0.2-6.7
	C300.3,304.7,301.5,302.9,302.7,301.4z M299.6,298.9c-2,2.4-3.2,4.7-3.6,7.1c-0.3,1.7-0.3,3.3-0.2,4.8c0,0.9,0.1,1.7,0,2.4
	c0,0.6-0.1,1.2-0.2,1.8c-0.1,0.7-0.2,1.5-0.3,2.3c-0.1,1.5-0.2,3.1-0.3,4.8c0,2,0,3.6,0.1,5.1c0.1,1.4,0.3,3.3,1.3,5.1
	c0.8,1.3,1.8,2.2,2.6,2.9c0.1,0.1,0.2,0.2,0.3,0.3c0.9,0.8,2.2,1.9,4,2.1c0.5,0.1,1,0.1,1.6,0.1c2.2,0,4.4-0.5,6.4-1
	c0.5-0.1,1-0.3,1.5-0.4c1.4-0.4,2.8-0.8,4.2-1l7.5-1.1c2.5-0.4,4.8-1.3,6.9-2.1l0.8-0.3c0.5-0.2,1.1-0.4,1.6-0.6
	c1.7-0.7,3.4-1.3,5-1.9c2.2-0.8,3.9-1.2,5.3-1.2c1,0,2,0.2,2.8,0.6c1.8,0.9,3,2.5,3.5,5c0.8,3.4,0.7,7.2,0.6,10.9c0,0.5,0,1.1,0,1.6
	c0,3.9-0.3,7.2-0.8,10.3c-0.9,5.5-2.7,10.1-5.3,13.5c-2.3,3.1-5.6,5.8-10,8.3c-4.9,2.7-10.3,5.2-15.7,7.1c-1.7,0.6-3.3,1.1-5.1,1.6
	c-2.3,0.7-4.7,1.4-7.1,2.3c-3.7,1.4-8.3,3.6-11,8.3c-1.3,2.3-2,4.8-2,7.3c0,3,1,5.5,2.1,7.5c0.7,1.4,1.7,2.5,3.1,3.1
	c0.1,0.1,0.3,0.2,0.4,0.2c0.5,0.3,1.3,0.7,2.2,1c1.2,0.3,2.4,0.5,3.7,0.5c1.1,0,2.2-0.1,3.3-0.4c1.8-0.4,3.4-1.2,4.8-1.9
	c0.5-0.3,1.1-0.5,1.6-0.7c1.3-0.6,2.8-0.9,4.3-1.4c0.5-0.1,1.1-0.3,1.6-0.4c3.8-1,7.3-2.7,10.7-4.2c1.2-0.5,2.2-1,3.3-1.5
	c1.1-0.5,2.2-0.9,3.2-1.4c3.3-1.5,6.8-3,10.2-4.3c1.5-0.6,3-1,4.6-1.5c2.9-0.9,5.8-1.8,8.7-3.3c1.6-0.9,3.2-1.8,4.7-2.7
	c2.1-1.3,4.1-2.5,6.2-3.4l0.2-0.1c1.2-0.5,2.7-1.2,3.7-1.2c0.1,0,0.1,0,0.1,0c0.3,0,0.7,0.2,1.2,0.4c0.1,0,0.1,0.1,0.2,0.1
	c0.1,0.1,0.1,0.2,0.2,0.4c0.8,1.2,1.1,2.2,1.2,3.2c0.1,1.3-0.1,2.8-0.4,4.5c-0.3,1.5-0.2,3-0.2,4.3c0,0.9,0.1,1.7,0,2.4
	c-0.3,2.1-0.4,4.2-0.5,6.3l0,0.2c0,0.8-0.1,1.7-0.2,2.5c-0.2,1.3-0.2,2.5-0.2,3.6l0,0.5c0,1-0.2,2-0.4,3.2c-0.1,0.8-0.3,1.6-0.3,2.4
	c-0.2,1.7-0.3,3.4-0.4,5.1c-0.2,2.3-0.3,4.6-0.7,6.7c-0.5,3.6-1.4,6-2.9,8.1c-1.8,2.4-4.2,4.5-7.3,6.6c-6.1,4.1-13.2,6.6-21.1,9.3
	c-2.4,0.8-4.8,1.6-7.1,2.5c-6.5,2.3-13.2,4.6-19.9,6.4c-2.5,0.7-5.1,1.3-7.6,1.9c-2.2,0.6-4.6,1.1-6.8,1.7c-1.7,0.4-3.5,0.9-5.2,1.4
	c-3,0.8-6,1.6-9.1,2.4c-1.3,0.3-2.6,0.7-3.9,1.1c-1,0.3-2,0.6-2.9,0.8c-2.3,0.6-4.6,1.1-6.7,1.5c-4.3,0.9-8.8,1.9-13.4,3.2
	c-1.5,0.4-3.2,0.8-4.7,0.8c-0.1,0-0.2,0-0.3,0c-1.3,0-2.7-0.5-4.4-1.4c-2.3-1.3-4.2-3.3-5.8-6.3c-3.4-6.4-4.5-14.2-5-20.3
	c-0.7-8.5-0.8-16.9-0.6-27.1l0.1-6.8l0.1-8.4c0-1.8-0.2-3.4-0.4-5c-0.1-0.9-0.2-1.7-0.3-2.5c-0.1-1.1-0.1-2.3-0.2-3.4
	c-0.1-1.1-0.1-2.3-0.2-3.5c-0.2-2.2-0.4-4.8-1.3-7.5c-0.7-2.3-1.7-4.4-2.8-6.3c-0.3-0.6-0.6-1.2-1-1.8c-1.4-2.5-2.8-5.1-2.9-7.4
	c-0.1-2.5,0.8-5.3,1.7-7.7c1-2.7,2.2-5.3,3.5-8.1l0.2-0.4c1.6-3.6,2.8-7.2,3.5-11c0.6-3.3,1-6.5,1.3-9.7c0.2-1.4,0.3-2.9,0.5-4.3
	c0.1-1.1,0.3-2.1,0.6-3.3c0.2-1.3,0.5-2.7,0.7-4.1c0.2-2,0.2-3.9,0.2-5.7c0-0.9,0-1.7,0-2.5c0-0.4,0-0.9,0-1.3
	c0-1.8,0.1-3.6,0.3-5.2c0.4-2.1,0.6-4.4,0.7-7.3c0.1-2.1,0.1-4.2,0.1-6.2l0-1c0-0.3,0-0.7,0-1c0-0.7,0-1.4,0-1.8
	c0.1-0.6,0.2-1.1,0.3-1.7c0.1-0.7,0.3-1.4,0.4-2.2c0.2-1.3,0.3-2.6,0.5-3.9c0.4-3.3,0.8-6.4,1.5-9.5c0.2-1.1,0.5-2.1,0.7-3.2
	c0.5-2.5,0.9-4.8,1.8-6.8c1-2.2,2.8-3.9,5.5-5c1.1-0.4,2.2-0.8,3.4-1.2c0.8-0.3,1.6-0.5,2.4-0.8c2.4-0.9,4.6-1.9,6.8-2.9
	c1.1-0.5,2.2-1.1,3.3-1.6c3.2-1.6,6.3-3,9.4-4.3c2.4-0.9,4.9-1.6,7.5-2.3c2.1-0.5,4.2-1.1,6.3-1.8c3.9-1.3,7.6-3,11.2-4.6
	c0.9-0.4,1.9-0.8,2.8-1.2c2.5-1.1,4.9-2.2,7.4-3.3c2.1-0.9,4.1-1.9,6.2-2.8c0.9-0.4,1.8-0.8,2.7-1.2c3.4-1.6,6.6-3,9.9-4
	c1.1-0.3,2.3-0.6,3.4-0.9c3.4-0.9,6.9-1.8,10.3-3.5c2.5-1.2,5-2.6,7.3-3.9c1.7-1,3.5-2,5.2-2.8c2.7-1.4,5.6-2.4,8.6-3.4
	c1.3-0.5,2.7-0.9,4-1.4c2.3-0.8,4.2-2,6-3.2c0.3-0.2,0.6-0.4,0.9-0.6c0.3-0.2,0.9-0.4,1.5-0.6c0.8-0.3,1.8-0.6,2.7-1.1
	c0.4,0,0.9,0.1,1.2,0.1c0.2,0,0.3,0,0.5,0.1c0,0,0,0,0.1,0c0.3,0.3,0.5,0.6,0.7,0.8c0.7,0.7,1.2,1.4,1.4,1.9c0.9,2.5,0.1,6.2-0.4,9
	c0,0.2-0.1,0.4-0.1,0.6c-0.1,0.7-0.3,1.4-0.4,2.2c-0.1,0.9-0.1,1.8-0.1,2.7c0,0.4,0,0.8,0,1.2l-0.1,3.7c0,0.6-0.2,1.3-0.3,2
	c-0.1,0.4-0.2,0.7-0.2,1.1c-0.1,0.6-0.2,1.1-0.3,1.7c-0.6,3.2-1.2,6.3-2.2,9.1c-0.4,1.1-0.7,2.2-1.1,3.2c-0.3,1.1-0.6,2.1-1,3
	c-0.6,1.4-1.6,2.8-2.7,4c-2.1,2.6-4.7,4.9-8,7.2c-4.5,3.1-9.3,5.5-14.4,8.1c-2.3,1.1-4.6,2.3-6.9,3.6l-1.5,0.8
	c-8.2,4.4-16,8.6-24.4,11.8c-1.7,0.6-3.4,1.2-5.1,1.9c-2.9,1.1-6,2.2-8.9,3.3C307.8,292.5,303.2,294.6,299.6,298.9z M460.8,524.6
	c-2.2-1.4-4.6-2-6.3-2.3l-0.4-0.1c-0.8-0.2-1.9-0.4-3-0.4c-0.2,0-0.4,0-0.6,0c-0.9,0.1-1.8,0.2-2.6,0.4c-0.3,0.1-0.6,0.1-0.9,0.2
	c-0.2,0-0.5,0.1-0.7,0.1c-0.9,0.1-2,0.3-3.1,0.7c-1.1,0.4-2.1,0.7-3.1,1.1c-2.4,0.9-4.4,1.9-6.2,2.9c-2.5,1.4-5.1,3.3-7.5,5.4
	c-5.3,4.6-9.5,10.1-12.2,16.1c-3.2,7.1-4.2,15.1-3,23c0.1,0.7,0.2,1.3,0.3,2c0.2,1.2,0.4,2.3,0.4,3.3c0,1,0,2,0,3c0,0.7,0,1.5,0,2.2
	c0,0.9,0,1.8,0,2.7c0,3.2-0.1,6.5,0.2,9.8c0.3,3.4,0.9,7.3,3.4,10.5c2.3,2.9,5.7,4.4,9.6,4.4c0.6,0,1.3,0,1.9-0.1
	c5.1-0.7,9.5-3.3,13.3-5.7c1.3-0.8,2.5-1.6,3.8-2.2c0.7-0.4,1.5-0.8,2.3-1.2c5-2.7,10.8-5.7,14.7-10.7c3-3.8,3.6-8.1,3.9-11
	c0.3-3.2,0.2-6.4,0.1-9.5c0-1,0-1.9-0.1-2.9l0-2.4c0-3.4-0.1-6.9,0-10.4c0-4.3,0.2-7.8,1-11.2c0,0,0,0,0,0l0.1-0.3l0-0.1l0-0.2
	c0,0,0,0,0,0c0,0,0,0,0,0l0-0.1l0-0.1c0,0,0-0.1,0-0.1l0,0c0.1-0.3,0.1-0.6,0.1-0.9c0.2-1.5,0.2-3.2,0-4.9
	C465.9,532.2,464.9,527.4,460.8,524.6z M462.1,541.2c0,0.1,0,0.2-0.1,0.3c-0.8,3.9-1,8-1,12c0,4.3,0,8.6,0.1,12.8c0,4,0.3,8-0.1,12
	c-0.3,3.2-1,6.3-3.1,8.9c-3.9,5.1-10.2,7.9-15.7,10.9c-5,2.7-9.9,6.7-15.7,7.5c-0.5,0.1-0.9,0.1-1.4,0.1c-2.5,0-4.9-0.9-6.5-2.9
	c-1.8-2.3-2.4-5.5-2.6-8.4c-0.3-4-0.2-8.1-0.2-12.2c0-1.8,0.1-3.6,0-5.4c-0.1-1.9-0.5-3.8-0.8-5.7c-1-7.1-0.2-14.3,2.7-20.8
	c2.5-5.7,6.5-10.6,11.1-14.7c2.1-1.8,4.5-3.5,6.9-5c1.8-1,3.7-1.9,5.6-2.6c1-0.4,1.9-0.7,2.9-1c1-0.3,2.1-0.5,3.2-0.6
	c1-0.2,2.1-0.4,3.1-0.5c0.1,0,0.2,0,0.3,0c0.9,0,1.8,0.2,2.7,0.4c1.7,0.3,3.4,0.8,4.8,1.8c2.6,1.7,3.4,5.1,3.7,8.1
	c0.2,1.8,0.2,3.7-0.2,5.5C462.1,541.4,462.1,541.3,462.1,541.2z M525,483.2c-0.1-0.3-0.1-0.6-0.2-0.7
	C524.9,482.7,525,482.9,525,483.2c-0.5-2.3-0.3-4.7-0.5-7.1c-0.1-1.9-0.7-3.7-1.3-5.5c-1-3.1-2.3-6.2-3.8-9.1
	c-3-5.5-7.2-10.2-12.9-12.9c-3.2-1.5-6.6-2.3-10.1-2.6c-0.8-0.1-1.6-0.2-2.5-0.2c-0.2,0-0.4,0-0.6,0c-0.6,0.1-1.3,0.4-1.9,0.5
	c-1.6,0.2-3.3,0.1-5,0.2c-2,0.1-3.8,0.8-5.6,1.4c-2.4,0.7-4.7,1.5-7.1,2.3c-4.5,1.6-9.1,3.2-13.2,5.6c-2,1.2-4,2.4-6,3.6
	c-2.1,1.2-4.3,2.2-6.6,3.2c-4.5,2-9,4-13.5,6c-4.4,2.1-8.8,4.3-13,6.7c-2.1,1.2-4.2,2.4-6.1,3.8c-1.9,1.4-3.6,2.9-5.3,4.4
	c-3.2,2.9-6.7,5.4-10,8.2c-3,2.6-5.9,5.3-8.6,8.2c-5.5,6-10.4,12.5-14.5,19.5c-4.4,7.4-8,15.2-11,23.3c-1.6,4.2-2.9,8.5-4,12.8
	c-1.1,4.6-1.9,9.3-2.6,14c-0.8,4.8-1.6,9.6-2.5,14.4c-0.5,2.4-1.1,4.7-1.2,7.2c-0.1,2.5-0.5,4.9-0.5,7.4c-0.1,5.3-0.2,10.6-0.3,15.9
	c-0.1,2.6-0.1,5.2-0.2,7.8c-0.1,2.5,0.2,5.1-0.6,7.5c-1.2,3.7-3.6,6.7-5.6,10c-2.2,3.5-3.8,7.3-3.9,11.5c-0.1,4.6,0.8,9.2,0.2,13.7
	c-0.3,2.6-0.7,5.2-0.8,7.9c-0.1,3.2-0.1,6.4,0,9.6c0.1,2.8,0.4,5.3,1.3,8c1.5,4.3,3.9,8.3,5.2,12.7c1.2,4.1,0.7,8.7,0.6,13
	c-0.1,7.2-0.7,14.4-1.1,21.6c-0.4,6.9-0.8,14,0.7,20.9c1.1,5,3.8,11.2,9.4,12.3c0.7,0.1,1.5,0.2,2.3,0.2c2.4,0,4.9-0.6,7.2-1.3
	c3.2-0.9,6.3-2.2,9.4-3.4c7.4-2.9,16.2-3.8,22.6-9c3.1-2.5,5.1-6,6.7-9.6c1.7-3.9,3-8,4-12.1c0.5-2.2,0.5-4.6,0.6-6.9
	c0.1-2.3,0.5-4.5,0.9-6.7c0.8-4.4,0.9-8.8,1-13.3c0.1-4.4,0.1-8.9,0-13.3c-0.1-4.4-0.4-8.8,0.1-13.1c0.4-3.7,1.5-7.1,4.2-9.9
	c2.6-2.7,6-4.4,9.4-6.1c8.7-4.3,17-9.3,25.5-14c1.6-0.9,3.5-1.8,5.4-1.8c1.1,0,2.2,0.3,3.2,1.3c1.8,1.7,2,4.8,2.2,7.1
	c0.3,3.3,0.2,6.6,0.1,9.8c-0.1,4-0.1,8-0.1,12c0,2.4-0.1,4.9-0.5,7.3c-0.2,1.6-0.6,3.1-0.8,4.7c-0.4,3.2-0.6,6.4-0.7,9.6
	c-0.1,3.5,0,6.9,0.3,10.4c0.3,2.8,0.7,5.7,1.7,8.3c1.3,3.3,4.5,5,7.8,5.7c0.5,0.1,1,0.1,1.5,0.1c3.4,0,6.7-2.1,9.6-3.6
	c8.1-4.2,15.9-8.7,23.6-13.7c2.6-1.7,5.2-3.5,7.4-5.8c2.3-2.4,4.1-5.3,5.5-8.4c0.8-2,1.6-4.1,1.9-6.2c0.4-2.4,0.4-4.8,0.6-7.2
	c0.2-1.8,0.6-3.6,0.9-5.4c0.3-1.8,0.5-3.7,0.6-5.5c0.1-1.7,0.2-3.5,0-5.3c-0.2-2-0.7-4-1-6.1c-0.6-4.9-0.7-9.8-0.7-14.7
	c0-2.6,0-5.3,0-7.9c0-0.6,0-1.2,0-1.8c0-0.6,0.2-1.1,0.4-1.7c0.3-1.2,0.4-2.4,0.5-3.7c0.2-2.5,0.1-4.9,0.1-7.4
	c0.1-2.4,0.5-4.7,0.9-7.1c1.6-9.3,0.9-18.9,0.9-28.3c0-10.6,0-21.2,0-31.9c0-10.1,0-20.1-0.2-30.2c-0.1-4.6-0.2-9.2,0-13.8
	c0.1-2.1,0.3-4.3,0.6-6.4c0.2-1.5,0.6-3,0.7-4.5c0.3-3,0.1-6.1-0.1-9.1C525.7,488.6,525.6,485.8,525,483.2z M522,500
	c-0.1,0.7-0.2,1.5-0.4,2.3c-0.1,0.7-0.3,1.3-0.4,2c-0.3,2-0.5,4.3-0.6,6.8c-0.2,4.7-0.1,9.3,0,14c0.2,9.1,0.2,18.4,0.2,27.4l0,2.6
	v31.9c0,2.2,0,4.5,0.1,6.7c0.1,7,0.3,14.2-0.9,21l-0.1,0.4c-0.4,2.3-0.8,4.7-0.9,7.2c0,1,0,1.9,0,2.9c0,1.5,0,2.9-0.1,4.3
	c-0.1,1.2-0.2,2.1-0.4,3c0,0.1-0.1,0.2-0.1,0.4c-0.1,0.5-0.3,1.1-0.4,1.9c0,0.6,0,1.1,0,1.6c0,0.2,0,0.3,0,0.5l0,2.2
	c0,1.9,0,3.9,0,5.8c0,4.8,0.1,10,0.7,15.2c0.1,1,0.3,2,0.5,3c0.2,1,0.4,2,0.5,3c0.2,1.6,0.1,3.2,0,4.6c-0.1,1.7-0.3,3.5-0.6,5.2
	c-0.1,0.6-0.2,1.3-0.3,1.9c-0.2,1.2-0.4,2.4-0.6,3.6c-0.1,1-0.2,1.9-0.2,2.8c-0.1,1.4-0.2,2.8-0.4,4.1c-0.3,1.5-0.8,3.2-1.7,5.3
	c-1.2,2.8-2.7,5.2-4.6,7.2c-2.1,2.1-4.5,3.8-6.7,5.2c-7.7,5-15.5,9.5-23.2,13.5c-0.5,0.2-0.9,0.5-1.4,0.7c-2.2,1.2-4.5,2.4-6.3,2.4
	c-0.3,0-0.5,0-0.7-0.1c-1.5-0.3-4-1.1-4.9-3.2c-0.8-2-1.1-4.3-1.4-7.2c-0.3-3-0.4-6.3-0.3-9.9c0.1-3.5,0.3-6.4,0.7-9.1
	c0.1-0.7,0.2-1.4,0.4-2.2c0.1-0.8,0.3-1.6,0.4-2.4c0.4-2.8,0.5-5.5,0.5-7.9c0-1.2,0-2.4,0-3.6c0-2.7,0-5.5,0.1-8.3l0-0.1
	c0.1-3.3,0.2-6.7-0.1-10.1l0-0.1c-0.2-2.7-0.6-6.8-3.4-9.5c-1.6-1.5-3.7-2.4-6-2.4c-2.8,0-5.4,1.2-7.3,2.3c-2.4,1.3-4.8,2.7-7.2,4
	c-5.9,3.3-12,6.8-18.2,9.9c-4,2-7.5,3.8-10.4,6.9c-3,3.1-4.8,7.1-5.3,12.2c-0.4,3.8-0.3,7.5-0.2,11.1c0,0.8,0,1.7,0.1,2.5
	c0.1,4.1,0.1,8.4,0,13.2c-0.1,4.8-0.3,8.8-0.9,12.6l-0.1,0.4c-0.4,2.2-0.8,4.4-0.9,6.9c0,0.4,0,0.7,0,1.1c-0.1,1.8-0.1,3.5-0.5,5
	c-1,4.2-2.3,8-3.8,11.5c-1.6,3.7-3.5,6.4-5.6,8.2c-3.6,3-8.4,4.4-13.5,5.8c-2.6,0.7-5.3,1.5-7.9,2.5l-0.9,0.4
	c-2.8,1.1-5.4,2.1-8.1,2.9c-1.9,0.6-4.1,1.1-6.1,1.1c-0.6,0-1.1,0-1.6-0.1c-4.1-0.7-5.8-7.2-6.2-9.2c-1.3-6.1-1-12.5-0.6-19.8
	c0.1-1.8,0.2-3.7,0.3-5.5c0.3-5.3,0.7-10.8,0.8-16.3c0-0.9,0-1.7,0.1-2.7c0.1-3.6,0.3-7.6-0.8-11.5c-0.8-2.7-1.9-5.2-3.1-7.6
	c-0.8-1.8-1.6-3.5-2.2-5.3c-0.8-2.2-1-4.3-1.1-6.8c-0.1-2.9-0.1-6.1,0-9.3c0.1-2.1,0.4-4.1,0.6-6.3l0.2-1.2c0.4-3.1,0.2-6.1,0-8.9
	c-0.1-1.8-0.2-3.5-0.2-5.2c0.1-3,1.1-6,3.3-9.5c0.4-0.7,0.9-1.3,1.3-2c1.8-2.7,3.6-5.5,4.8-8.9c0.8-2.5,0.8-4.9,0.8-7.1
	c0-0.5,0-1.1,0-1.6l0.2-7.8l0.3-15.9c0-1.3,0.1-2.6,0.3-4c0.1-1.1,0.2-2.2,0.3-3.3c0.1-1.8,0.5-3.6,0.9-5.5c0.1-0.4,0.2-0.8,0.2-1.2
	c0.9-4.3,1.6-8.7,2.3-13l0.3-1.6c0.8-4.9,1.6-9.3,2.6-13.8c0.9-3.7,2.1-7.7,3.8-12.4c3-8.1,6.6-15.7,10.7-22.6
	c4.1-7,8.8-13.3,14-18.9c2.6-2.8,5.4-5.5,8.3-7.9c1.3-1.1,2.7-2.2,4.1-3.3c2-1.6,4-3.2,6-5c1.7-1.6,3.3-3,5-4.2
	c1.8-1.3,3.7-2.4,5.7-3.6c3.7-2.1,7.9-4.3,12.8-6.5c4.3-2,8.8-4,13.1-5.9l0.3-0.1l0.4-0.2c2.2-0.9,4.4-1.9,6.6-3.2
	c1.1-0.6,2.1-1.2,3.1-1.9c1-0.6,2-1.2,2.9-1.8c3.8-2.1,7.9-3.6,12.6-5.2c2.1-0.7,4.3-1.5,7-2.3c0.4-0.1,0.7-0.2,1.1-0.3
	c1.3-0.4,2.5-0.8,3.6-0.9c0.5,0,1.1,0,1.7-0.1c1.1,0,2.3,0,3.5-0.2c0.6-0.1,1.2-0.2,1.6-0.4c0.1,0,0.2-0.1,0.3-0.1
	c0.1,0,0.1,0,0.2,0c0.4,0,0.9,0.1,1.4,0.1c0.2,0,0.5,0.1,0.7,0.1c3.2,0.3,6.2,1.1,8.7,2.3c4.4,2.1,8.2,6,11.1,11.2
	c1.3,2.4,2.5,5.2,3.5,8.4c0.5,1.6,1,3.1,1.1,4.5c0.1,0.7,0.1,1.5,0.1,2.2c0,1,0.1,2.1,0.2,3.3c0,0.3,0,0.7,0.1,1l0,0.1
	c0,0,0,0.1,0,0.1c0,0,0,0.1,0,0.1l0.1,0.5l0.1,0.3c0.5,2.2,0.6,4.7,0.8,7.1l0,0.4C522.1,494.4,522.2,497.3,522,500z M461.5,543.8
	c0,0,0-0.1,0-0.2C461.6,543.7,461.5,543.8,461.5,543.8z M825.8,304.7c2.6,0,5.3-0.1,7.9-0.3c8.7-0.6,17.5-2.1,25.9-4.7
	c5.1-1.6,10.5-2.5,15.5-4.4c5-1.8,10-4.2,14.8-6.7c4.6-2.4,9.2-5,13.4-8.2c3.9-2.9,7.1-6.6,10.1-10.4c3.1-4,5.8-8.2,8.6-12.4
	c2.9-4.3,5.9-8.5,8.5-12.9c2.8-4.9,4.7-10.2,6.6-15.5c1.8-5.1,4-10,5.7-15c1.5-4.5,2.8-9.2,5-13.4c2.3-4.6,5.8-8.6,8.6-13
	c2.6-4,4.3-8.3,3.8-13.2c-0.5-4.7-3.8-8.7-6.6-12.3c-1.5-1.9-3-3.8-4.2-6c-1.2-2.3-1.9-4.8-3.1-7.2c-1.2-2.4-3-4.5-4.6-6.6
	c-1.5-1.9-2.8-3.9-4.1-6c-4-6.5-7.5-13.6-13.2-18.8c-3.1-2.7-6.7-4.8-10.4-6.4c-3.1-1.3-6.7-1.5-10-1.6c-0.7,0-1.3,0-2,0
	c-3.4,0-6.8,0.2-10.2,0.6c-1.8,0.2-3.5,0.4-5.3,0.7c-2,0.4-4,0.6-6.1,0.8c-1.4,0.1-2.9,0.2-4.3,0.5c-1,0.2-2,0.5-3,0.7
	c-2.2,0.4-4.4,0.8-6.6,0.8c-0.2,0-0.3,0-0.5,0c-2.2-0.1-4.4-0.5-6.3-1.7c-1.7-1.1-3.1-2.7-4.2-4.4c-2.5-4-4-8.9-3.4-13.7
	c0.3-2.4,1-4.8,1.7-7.2c0.4-1.2,0.7-2.3,0.9-3.5c0.2-1.2,0.3-2.5,0.7-3.7c1.2-3.8,3.9-7.4,6.8-10c1.5-1.4,3.3-2.5,5.1-3.5
	c1.9-1,4.2-2,6.3-2.2c2.8-0.3,5.5,0,8.3-0.5c2.3-0.4,4.6-0.6,7-0.7c1,0,2,0,3,0c4,0,8,0.2,11.9,0.2c0.3,0,0.6,0,0.9,0
	c2.1,0,4.2-0.1,6.4-0.3c2.2-0.2,4.3-0.9,6.5-0.9c0.1,0,0.2,0,0.3,0c2.2,0.1,4.4,0.7,6.6,0.7c0.1,0,0.2,0,0.3,0
	c2.1,0,4.3-0.8,6.1-1.7c6.2-3,8.4-10.2,9.4-16.5c1.1-7.1,0.8-14.4-0.5-21.4c-1.1-6-2.9-12.5-6.8-17.3c-1.6-2-3.6-3.4-6-4.2
	c-3.3-1.1-6.9-1.4-10.4-1.5C914.4,0,912.3,0,910.1,0c-5.9,0-11.8,0.3-17.7,0.4c-0.4,0.3-0.9,0.3-1.4,0.3c-0.6,0-1.2-0.1-1.7-0.1
	c-0.1,0-0.1,0-0.2,0c-1.1,0-2.2,0.3-3.2,0.5c-2.5,0.4-5.1,0.5-7.6,1.1c-2.5,0.5-4.9,1.5-7.3,2.3c-2.4,0.8-4.9,1.7-7.3,2.6
	c-9.4,3.5-19.1,7.7-26.7,14.5c-2,1.8-3.9,3.7-5.8,5.6c-2,2-4,3.9-6.1,5.7c-1.1,0.9-2.1,1.8-2.9,2.9c-0.8,1-1.6,2.1-2.3,3.1
	c-1.5,2-3,4-4.4,6.1c-3,4.5-5.5,9.2-7.5,14.3c-2,5.3-3.5,10.8-5.3,16.2c-1.6,5-3.7,9.9-5.1,14.9c-0.8,2.8-0.7,5.9-0.9,8.8
	c-0.1,1.4-0.1,2.8-0.3,4.1c-0.2,1-0.4,1.9-0.5,2.9c-0.3,2.2-0.5,4.6-0.2,6.8c0.3,2.5,1.3,5,2.1,7.3c0.9,2.4,1.8,4.8,2.6,7.2
	c0.9,2.7,1.4,5.6,2.1,8.4c0.6,2.6,2,5.1,3.1,7.5c1.1,2.4,2.2,4.7,3.4,7c2.3,4.4,4.8,8.6,7.7,12.6c2.3,3.2,4.6,6.2,8,8.3
	c3.1,2,6.6,3.2,10.2,4c4.1,0.9,8.3,1.3,12.5,1.5c2.6,0.1,5.2,0.2,7.8,0.2c2.4,0,4.8-0.1,7.2-0.3c2-0.2,3.9-0.3,5.9-0.3
	c2.8,0,5.6,0.3,8.3,1.5c3.6,1.6,6.6,4.4,8.7,7.8c2.2,3.7,3.8,8.1,3.8,12.4c0,4.4-1.2,8.7-2.8,12.7c-3.2,8.1-8.8,15.6-17.4,18.3
	c-4.7,1.5-9.6,1.7-14.5,2.3c-4.6,0.6-9.2,1.8-13.8,2.1c-0.4,0-0.8,0-1.3,0c-4.5,0-8.8-1.4-13-2.9c-5.1-1.9-9.7-4.8-14.1-8
	c-1.1-0.8-2.2-1.5-3.2-2.4c-0.9-0.8-1.7-1.7-2.5-2.5c-1.7-1.6-3.7-2.6-6.1-2.7c-0.1,0-0.3,0-0.4,0c-3.8,0-7.2,3.3-9.6,5.9
	c-6.2,6.4-10.4,14.7-13.7,22.9c-3.3,8-6.1,16.3-5,25.1c0.5,4.1,2.3,7.9,4.4,11.4c2.2,3.6,4.9,6.8,7.9,9.6
	c6.3,5.8,14.2,9.8,22.3,12.2C812.5,304.1,819.1,304.7,825.8,304.7z M779.3,278.3c-2.3-3.8-3.5-6.8-3.9-9.8
	c-0.9-7.5,1.3-14.7,4.8-23.1c2.5-6.1,6.6-15.1,12.9-21.7c1.6-1.6,4.4-4.6,6.8-4.6c0.1,0,0.1,0,0.2,0c1.3,0.1,2.4,0.6,3.5,1.6
	c0.3,0.3,0.6,0.6,0.9,0.9c0.5,0.5,1.1,1.1,1.7,1.6c1,0.9,2,1.6,3,2.3l0.6,0.4c4.1,2.9,9.1,6.2,15,8.4c4.4,1.7,9.2,3.2,14.4,3.2
	c0.5,0,1,0,1.5,0c2.9-0.2,5.7-0.7,8.4-1.2c1.9-0.4,3.8-0.7,5.6-0.9c1-0.1,2-0.2,3-0.3c4-0.4,8.1-0.8,12.1-2.1
	c6.1-1.9,14.6-7.1,20-20.7c2.1-5.2,3.1-9.9,3.1-14.2c0-4.8-1.5-9.9-4.3-14.5c-2.6-4.2-6.2-7.5-10.5-9.4c-2.9-1.3-6-1.9-9.9-1.9
	c-2.1,0-4.1,0.2-6,0.3l-0.1,0c-2.1,0.2-4.4,0.3-6.9,0.3c-2.2,0-4.6-0.1-7.6-0.2c-4.9-0.2-8.5-0.7-11.8-1.4c-3.6-0.8-6.5-1.9-8.9-3.4
	c-2.7-1.7-4.7-4.1-6.8-7.2c-2.7-3.8-5.1-7.9-7.4-12.2c-1.1-2.1-2.2-4.4-3.3-6.8c-0.2-0.5-0.5-1.1-0.7-1.6c-0.8-1.8-1.7-3.6-2.1-5.2
	c-0.2-0.8-0.4-1.6-0.5-2.4c-0.5-2.1-0.9-4.3-1.7-6.4c-0.5-1.5-1.1-3-1.6-4.4c-0.4-1-0.7-1.9-1.1-2.9l-0.2-0.4
	c-0.7-2-1.5-4.2-1.8-6.1c-0.3-1.9,0-4,0.2-5.7c0.1-0.5,0.2-1.1,0.3-1.7c0.1-0.4,0.1-0.7,0.2-1.1c0.2-1.2,0.3-2.5,0.3-3.5
	c0-0.4,0-0.7,0.1-1.1c0-0.7,0.1-1.4,0.1-2.2c0.1-2.1,0.2-4.1,0.6-5.8c0.8-2.9,1.8-5.6,2.9-8.6c0.7-2,1.5-4.1,2.2-6.2
	c0.6-1.8,1.2-3.7,1.7-5.5c1.1-3.5,2.2-7.1,3.5-10.5c1.7-4.6,4-9,7-13.5c1.5-2.2,3.1-4.4,4.3-6c0.6-0.8,1.3-1.7,1.9-2.5l0.4-0.6
	c0.5-0.7,1.3-1.4,2.1-2.1l0.3-0.2c2-1.8,4.2-3.8,6.3-5.9c1.7-1.7,3.6-3.7,5.6-5.4c7.3-6.5,17-10.6,25.5-13.7
	c2.1-0.8,4.4-1.6,7.2-2.5c0.6-0.2,1.2-0.4,1.8-0.6c1.8-0.6,3.5-1.2,5.2-1.6c1.4-0.3,2.8-0.5,4.3-0.6c1-0.1,2-0.2,3-0.4
	c0.4-0.1,0.7-0.1,1.1-0.2c0.6-0.1,1.1-0.2,1.5-0.2l0.1,0c0.2,0,0.3,0,0.5,0c0.4,0,0.8,0.1,1.3,0.1c0.8,0,1.6-0.1,2.3-0.3
	c2.5,0,5-0.1,7.4-0.2c3.1-0.1,6.3-0.2,9.4-0.2c2.3,0,4.4,0.1,6.3,0.2c3,0.2,6.4,0.4,9.4,1.4c1.7,0.5,3,1.4,4.1,2.9
	c3.6,4.5,5.1,11,6,15.5c1.3,7,1.4,13.7,0.4,20c-1.1,7.3-3.5,11.8-7.2,13.5c-1.7,0.8-3.3,1.3-4.5,1.3l-0.2,0c-0.9,0-1.9-0.1-3-0.3
	c-1.1-0.2-2.3-0.3-3.5-0.4c-0.2,0-0.3,0-0.5,0c-1.6,0-3.2,0.3-4.6,0.5c-0.8,0.1-1.6,0.3-2.3,0.4c-1.7,0.2-3.6,0.2-6,0.2
	c-0.3,0-0.6,0-0.9,0c-1.8,0-3.7-0.1-5.5-0.1c-2.1-0.1-4.3-0.1-6.5-0.1c-1.1,0-2.2,0-3.2,0.1c-2.9,0.1-5.3,0.3-7.6,0.8
	c-1.3,0.2-2.8,0.3-4.3,0.3c-1.2,0-2.4,0.1-3.6,0.2c-2.7,0.3-5.4,1.5-7.7,2.7c-2.2,1.1-4.2,2.5-5.9,4c-3.8,3.3-6.6,7.5-8,11.7
	c-0.4,1.2-0.6,2.4-0.7,3.5c0,0.3-0.1,0.6-0.1,0.8c-0.1,0.9-0.4,1.9-0.7,2.9c-0.8,2.6-1.5,5.1-1.9,7.8c-0.7,5.3,0.8,11.1,4,16.3
	c1.5,2.5,3.4,4.4,5.5,5.7c2.3,1.4,5.1,2.2,8.3,2.3c0.2,0,0.4,0,0.6,0c2.8,0,5.6-0.5,7.3-0.8c0.9-0.2,1.9-0.4,3.1-0.7
	c0.8-0.2,1.7-0.3,2.7-0.3c0.4,0,0.7-0.1,1.1-0.1c2-0.2,4.1-0.5,6.4-0.9c1.5-0.3,3.2-0.5,5-0.7c3.5-0.4,6.7-0.6,9.7-0.6
	c0.6,0,1.3,0,1.9,0c3,0.1,6.1,0.2,8.6,1.3c3.6,1.5,6.8,3.4,9.3,5.7c4.2,3.8,7.1,8.7,10.2,14c0.7,1.3,1.5,2.6,2.3,3.9
	c1.4,2.2,2.8,4.3,4.3,6.3c0.2,0.3,0.5,0.6,0.7,0.9c1.3,1.7,2.6,3.3,3.5,5c0.5,0.9,0.9,2,1.3,3.1c0.5,1.4,1.1,2.7,1.8,4.2
	c1.2,2.3,2.7,4.2,4.2,6.1l0.4,0.5l0.5,0.7c2.4,3.1,4.9,6.3,5.3,9.6c0.4,3.3-0.6,6.6-3.2,10.6c-1,1.5-2,3-3.2,4.6
	c-2,2.7-4,5.5-5.6,8.7c-1.8,3.6-3.1,7.5-4.3,11.1c-0.3,0.9-0.6,1.9-0.9,2.8c-0.9,2.7-1.9,5.3-3,8.1c-0.9,2.2-1.8,4.6-2.6,6.9
	c-1.8,5-3.6,10.2-6.3,14.8c-1.7,2.9-3.6,5.7-5.6,8.6c-0.9,1.3-1.9,2.7-2.8,4.1l-1.1,1.7c-2.3,3.5-4.7,7.1-7.3,10.4
	c-3.2,4.2-6.2,7.3-9.3,9.6c-3.4,2.6-7.4,5-12.8,7.8c-5.7,2.9-10.2,4.9-14.3,6.5c-2.7,1-5.5,1.7-8.4,2.4c-2.3,0.6-4.6,1.1-6.9,1.9
	c-7.6,2.4-16,3.9-24.9,4.6c-2.7,0.2-5.2,0.3-7.6,0.3c-7,0-13-0.8-18.5-2.4c-8-2.4-15.2-6.3-20.7-11.3
	C783.7,284.4,781.3,281.5,779.3,278.3z M554.4,363c1.5-1.8,2.9-3.8,4.4-5.7c1.7-2.2,4-4,5.9-6c2-2,4.1-3.9,5.8-6.1
	c1.6-2.1,3.2-4.3,4.8-6.4c2.3-3.2,5.9-7.2,6-11.4c0-3.3-2.5-6.3-4.5-8.6c-2.1-2.4-4.5-4.5-6.5-7c-3.3-4.1-6.5-8.4-9.8-12.4
	c-3.4-4.2-6.9-8.3-10.4-12.5c-1.7-2.1-3.4-4.2-5.1-6.4c-1.4-1.7-2.6-3.6-4.1-5.2c-2.3-2.6-4.9-5-6.8-8c-0.9-1.4-1.7-2.9-1.8-4.5
	c-0.2-2,0.7-4.1,1.5-5.8c0.9-2,2.1-3.9,3.2-5.9c1.1-2.1,2-4.3,2.9-6.5c1.8-4.7,3.5-9.5,6-13.9c2.5-4.3,6-8,8.7-12.3
	c1.4-2.3,2.3-4.6,3.1-7.2c0.8-2.6,1.9-5.1,3-7.6c2.2-5.1,4.3-10.3,6.4-15.4c4.3-10.4,9-20.6,13.9-30.7c4.8-10,9.6-20,13.9-30.2
	c2.1-5,3.9-10.2,5.7-15.4c0.9-2.7,1.9-5.3,2.8-8c0.7-2,1.6-4,2.2-6.1c1.3-4.3,1-8.5-1.2-12.4c-1.8-3.3-4.6-6.2-7.5-8.5
	c-5.1-4-11.1-7-17.4-8.8c0.1,0,0.1,0,0.2,0c0.8,0-0.1-0.3-5.2-1.1c-0.9,0.5-2,0.5-2.9,0.6c-1,0.1-1.9,0.3-2.8,0.7
	c-2.2,0.8-4.3,1.8-6.3,3c-1.8,1.1-3.5,2.4-4.7,4.1c-1.3,1.7-2.2,3.6-3.2,5.5c-1.1,2.1-2.4,4.1-3.5,6.3c-1.2,2.3-2.3,4.7-3.4,7
	c-2.1,4.8-3.9,9.8-5.7,14.8c-3.8,10.3-8.2,20.2-12.7,30.2c-2.3,5-4.6,10-6.8,15.1c-2.1,5.1-3.8,10.3-5.8,15.5c-1,2.5-2,5-3.2,7.3
	c-1.2,2.3-2.6,4.4-4,6.5c-2.6,4-5,7.9-6.9,12.3c-1.7,4.1-3.2,8.3-5.5,12.1c-0.6,1-1.2,2-2,2.9c-0.3,0.4-0.6,0.8-1,1.2
	c-0.4,0.4-0.5,0.6-1,0.6c-0.1,0-0.1,0-0.2,0c-1.7-0.1-3.3-0.9-4.6-1.9c-3-2.1-5.1-5.2-7.1-8.2c-0.9-1.4-1.8-2.8-2.8-4
	c-1.6-1.9-3.5-3.4-5-5.4c-3.3-4.3-6.8-8.4-10.2-12.6c-3.2-3.9-6-8-9.4-11.8c-2.9-3.3-6.5-6.5-10.8-7.6c-0.9-0.2-1.9-0.3-2.8-0.3
	c-3.2,0-6.4,1.2-9.1,2.7c-3.2,1.7-6.2,3.9-8.8,6.4c-3.2,3.2-6,6.8-9,10.1c-5,5.4-10.5,12.1-9.9,20c0.4,4.6,3,8.6,5.7,12.3
	c1.4,1.8,2.7,3.7,3.9,5.6c1.2,2,2.2,4,3.6,5.9c1.3,1.9,3.1,3.1,4.9,4.5c1.9,1.4,3.8,2.9,5.5,4.6c1.8,1.8,3.3,3.8,4.8,5.8
	c1.7,2.2,3.4,4.4,5.1,6.5c3.4,4.3,6.9,8.7,10.3,13.1c2.6,3.4,5.6,6.3,8.5,9.5c2.7,3.1,5.4,7.1,5.3,11.3c-0.1,2.1-0.8,4.1-1.8,5.9
	c-1,1.9-1.9,3.8-2.7,5.8c-2,5-3.9,10-6.1,14.9c-1.1,2.4-2.3,4.7-3.4,7.1c-1.1,2.4-2.2,4.9-3.3,7.4c-2.1,4.8-4.6,9.3-7.5,13.7
	c-2.9,4.4-5.5,8.8-7,13.9c-0.8,2.6-1.4,5.2-2.3,7.8c-0.9,2.5-2,4.9-3.3,7.2c-1.3,2.3-2.6,4.6-3.7,7c-1.2,2.6-2.4,5.3-3.6,7.9
	c-2.2,4.9-4.8,9.6-7,14.5c-1.1,2.5-2.2,4.9-3.3,7.4c-0.8,1.9-1.7,3.9-2,6c-0.6,4.2,1.6,8.8,3.9,12.1c2.2,3.3,5.2,6,8.5,8.3
	c3.4,2.4,7.2,4.2,11,5.8c2.3,1,4.7,1.7,7.1,1.7c0.9,0,1.8-0.1,2.7-0.3c6-1.5,9.9-7.1,12.9-12.1c1.5-2.5,2.8-5.1,4.3-7.6
	c2.4-4.1,4.7-8.2,6.9-12.5c1.2-2.3,2.4-4.7,3.7-7c1.2-2.2,2.7-4.4,3.6-6.8c0.5-1.2,0.9-2.5,1.5-3.6c0.5-1.1,1.2-2.1,1.8-3.2
	c1.2-2.3,2.3-4.7,3.6-6.9c1.4-2.3,2.9-4.4,4.3-6.7c1.3-2.2,2.2-4.4,3.1-6.8c1.7-4.3,3.3-8.8,5.1-13.1c1.7-4.1,3.7-8.2,6.3-11.9
	c0.6-0.9,1.3-1.8,2.1-2.7c0.3-0.4,0.7-0.9,1.1-1.2c0.3-0.2,0.6-0.2,0.9-0.2c0.3,0,0.5,0,0.8,0c0.3,0,0.7-0.1,1-0.1
	c0.2,0,0.3,0,0.4,0.1c0.2,0.1,0.5,0.5,0.7,0.7c0.4,0.4,0.8,0.8,1.2,1.2c0.8,0.9,1.6,1.8,2.4,2.7c3.3,4,6.3,8.3,9.3,12.6
	c1.5,2.1,3,4.1,4.7,6c1.7,1.9,3.5,3.7,5,5.7c2.6,3.4,4.9,7.1,8.3,9.8c2.1,1.7,4.5,2.4,6.9,2.4c1.8,0,3.7-0.4,5.5-1.3
	C548.2,369.2,551.6,366.3,554.4,363z M538.7,368.3c-1.6,0-3.1-0.5-4.5-1.6c-2.2-1.7-3.9-4.1-5.8-6.6c-0.6-0.8-1.2-1.6-1.8-2.4
	c-1.3-1.7-2.6-3.1-4-4.6c-0.4-0.5-0.8-0.9-1.2-1.4c-1.7-1.9-3.2-3.9-4.4-5.6c-0.6-0.8-1.1-1.6-1.7-2.4c-2.4-3.5-5-7.1-7.8-10.4
	c-0.9-1-1.7-2-2.6-2.9c-0.4-0.4-0.8-0.8-1.2-1.2l0,0c-0.3-0.4-1-1.1-2-1.6c-0.6-0.3-1.3-0.4-2-0.4c-0.4,0-0.7,0-1,0.1l-0.1,0
	c0,0-0.1,0-0.1,0c-0.2,0-0.4,0-0.6,0c-1.3,0-2.4,0.3-3.3,1c-0.7,0.5-1.2,1.2-1.6,1.6c-0.1,0.1-0.1,0.2-0.2,0.2
	c-0.8,0.9-1.6,1.9-2.3,3c-3,4.3-5.2,9-6.7,12.7c-1.1,2.5-2,5.1-3,7.5c-0.7,1.8-1.4,3.7-2.2,5.6c-0.9,2.2-1.8,4.3-2.9,6.2
	c-0.7,1.2-1.4,2.3-2.2,3.6c-0.6,1-1.3,2-2,3.1c-1,1.7-1.9,3.4-2.7,5c-0.4,0.7-0.7,1.4-1.1,2.1c-0.2,0.4-0.5,0.9-0.7,1.3
	c-0.3,0.6-0.7,1.2-1,1.9c-0.5,1.1-0.9,2.1-1.3,3.1c-0.1,0.3-0.2,0.6-0.3,0.9c-0.6,1.4-1.4,2.8-2.2,4.3c-0.4,0.7-0.8,1.4-1.2,2.1
	c-1.2,2.3-2.4,4.6-3.6,6.8l-0.1,0.3c-2,3.9-4.3,7.9-6.8,12.3c-0.7,1.2-1.4,2.4-2,3.6c-0.8,1.4-1.5,2.6-2.2,3.9
	c-2.7,4.4-6,9.1-10.4,10.2c-0.6,0.1-1.2,0.2-1.8,0.2c-1.6,0-3.3-0.4-5.6-1.4c-4.2-1.8-7.4-3.5-10.3-5.4c-3.2-2.2-5.7-4.6-7.5-7.2
	c-2.4-3.5-3.6-6.9-3.2-9.3c0.2-1.4,0.9-2.9,1.6-4.5l0.2-0.5c0.9-2.2,2.1-4.7,3.2-7.3c1.1-2.4,2.3-4.7,3.4-7c1.2-2.4,2.4-4.9,3.6-7.4
	l1.8-3.8l1.9-4.1c0.8-1.6,1.7-3.2,2.6-4.9c0.3-0.6,0.7-1.2,1-1.8c1.7-3,2.8-5.4,3.6-7.9c0.6-1.7,1.1-3.4,1.5-5
	c0.3-1,0.5-1.9,0.8-2.9c1.3-4.3,3.5-8.1,6.6-12.9c3.1-4.7,5.6-9.4,7.8-14.3c0.4-0.8,0.7-1.6,1.1-2.4c0.7-1.6,1.5-3.3,2.2-4.9
	c0.5-1,1-2.1,1.5-3.2c0.6-1.3,1.3-2.6,1.9-4c1.5-3.3,2.8-6.7,4.1-10c0.7-1.7,1.3-3.4,2-5.1c0.7-1.7,1.5-3.5,2.5-5.5
	c1-2,2.1-4.6,2.2-7.6c0.1-4.5-1.9-9.1-6.3-14.1c-1.1-1.2-2.2-2.4-3.2-3.6c-1.8-1.9-3.5-3.8-5.1-5.8c-2.7-3.6-5.6-7.2-8.4-10.7
	l-2-2.5c-1.5-1.9-3.3-4.2-5.1-6.5c-0.3-0.4-0.6-0.8-0.9-1.2c-1.3-1.7-2.6-3.5-4.3-5.1c-1.9-1.8-3.9-3.3-5.9-4.9l-0.1-0.1
	c-1.7-1.2-3-2.2-4-3.6c-0.7-1-1.4-2.2-2.1-3.4c-0.4-0.7-0.8-1.5-1.3-2.2c-1.1-1.8-2.3-3.4-3.4-4.9l-0.7-0.9
	c-2.3-3.2-4.6-6.6-4.9-10.2c-0.5-6.2,4.3-12,8.8-17c1.3-1.4,2.5-2.8,3.6-4.2c1.8-2.1,3.4-4,5.2-5.8c2.2-2.2,4.9-4.1,7.9-5.7
	c2.7-1.5,5.2-2.2,7.2-2.2c0.6,0,1.3,0.1,1.9,0.2c2.8,0.7,5.7,2.8,8.8,6.3c1.9,2.1,3.6,4.3,5.4,6.7c1.3,1.6,2.5,3.3,3.9,5
	c0.9,1.1,1.8,2.1,2.7,3.2c2.5,3,5.1,6.1,7.5,9.3c1,1.3,2.1,2.5,3.2,3.5c0.7,0.7,1.3,1.4,1.9,2c0.7,0.8,1.3,1.7,1.9,2.7
	c0.2,0.3,0.4,0.7,0.7,1c2,3,4.5,6.6,8.1,9.2c2.1,1.5,4.3,2.4,6.6,2.6c0.2,0,0.4,0,0.6,0c2.2,0,3.4-1.3,4-1.9
	c0.4-0.4,0.8-0.9,1.2-1.4c0.8-1,1.5-2.1,2.2-3.3c1.9-3.2,3.2-6.5,4.6-9.7c0.4-1,0.8-1.9,1.2-2.9c1.7-3.9,3.7-7.3,6.6-11.7
	c1.3-2,2.8-4.4,4.1-6.9c1.3-2.4,2.3-4.9,3.4-7.8c0.8-2.1,1.5-4.1,2.2-6.2c1.1-3.1,2.2-6.2,3.5-9.2c1.6-3.9,3.5-7.9,5.2-11.7
	c0.5-1.1,1-2.2,1.5-3.3c4.4-9.6,9-20,12.8-30.5l0.6-1.6c1.6-4.3,3.2-8.8,5-13c1.1-2.5,2.1-4.7,3.2-6.8c0.5-1,1.1-1.9,1.6-2.9
	c0.6-1.1,1.3-2.2,1.9-3.4l0.3-0.7c0.8-1.6,1.6-3.1,2.5-4.3c0.8-1.1,2-2.1,3.5-3c1.6-0.9,3.5-1.8,5.7-2.7c0.6-0.2,1.1-0.4,1.7-0.4
	l0.4,0c0.7-0.1,1.7-0.1,2.7-0.4c1.2,0.2,2,0.3,2.5,0.5c0.3,0.2,0.6,0.3,0.9,0.4c5.9,1.6,11.4,4.4,16,8c2.9,2.3,5.1,4.8,6.5,7.3
	c1.6,2.9,1.9,6,0.9,9.3c-0.4,1.2-0.9,2.5-1.4,3.8c-0.3,0.7-0.6,1.4-0.8,2.1c-1,2.7-1.9,5.4-2.8,8l0,0.1c-1.6,4.7-3.5,10.1-5.6,15.2
	c-3.8,9.1-8.2,18.2-12.4,27l-1.4,3c-5.7,11.9-10.1,21.8-13.9,30.9c-0.8,2-1.6,3.9-2.5,5.9c-1.3,3.1-2.6,6.3-4,9.4l-0.2,0.4
	c-1,2.4-2.1,4.9-2.9,7.6c-0.8,2.6-1.7,4.5-2.7,6.3c-1.1,1.8-2.5,3.6-3.9,5.4c-1.7,2.2-3.4,4.4-4.8,6.9c-2.3,3.9-3.9,8-5.4,12
	c-0.3,0.8-0.6,1.6-0.9,2.4c-0.9,2.2-1.7,4.2-2.7,6c-0.3,0.6-0.6,1.2-1,1.7c-0.8,1.4-1.6,2.9-2.4,4.4c-0.7,1.6-2.1,4.7-1.8,7.9
	c0.3,2.7,1.5,4.9,2.5,6.3c1.6,2.4,3.4,4.4,5.3,6.4c0.7,0.7,1.3,1.4,1.9,2.1c0.8,1,1.6,2,2.5,3.1c0.5,0.6,0.9,1.3,1.4,1.9
	c1.5,2,3.2,4.1,5.2,6.4c1.9,2.4,3.9,4.7,5.8,7c1.5,1.8,3.1,3.7,4.6,5.5c2.1,2.6,4.2,5.3,6.3,7.9c1.2,1.5,2.3,3,3.5,4.5
	c1.2,1.6,2.6,3,3.9,4.3c1,1,1.9,1.9,2.7,2.8c1.3,1.5,3.6,4.1,3.5,6c0,2.2-2.1,5-4,7.4c-0.4,0.6-0.9,1.1-1.3,1.7
	c-1.4,1.9-2.9,3.9-4.3,5.8l-0.4,0.6c-1.2,1.5-2.6,2.9-4.1,4.4c-0.4,0.4-0.9,0.9-1.3,1.3c-0.6,0.6-1.2,1.2-1.8,1.8
	c-1.5,1.4-3,2.9-4.4,4.6c-0.7,0.9-1.4,1.8-2,2.6c-0.8,1.1-1.5,2.1-2.3,3c-2.6,3.1-5.6,5.5-8.7,6.9C541.3,368,540,368.3,538.7,368.3z
	 M774.5,464.5c-1.2-2.6-2.2-5.3-2.4-8.2c-0.2-3.1,0.1-6.2-0.5-9.3c-1-5-1.5-10.2-1.2-15.3c0.1-2.5,0.7-5,0.9-7.5
	c0.2-2.9-0.2-5.8-0.2-8.7c0-1.3,0-2.6,0.2-3.9c0.2-1.6,0.1-3.3,0.1-4.9c0-0.8-0.1-1.7,0-2.5c0-0.7,0.2-1.4,0.4-2.1
	c0.2-1.5,0.4-3.1,0.4-4.7c0.2-6-0.7-12-1.9-17.9c-0.3-1.4-0.6-2.7-0.6-4.1c0-1.7,0.1-3.4,0-5.1c0-1.3-0.5-2.8-0.7-4.1
	c-0.2-1.1-0.5-2.3-0.9-3.4c-0.8-2.2-2.2-3.9-4.4-4.8c-2-0.8-4.2-0.9-6.4-0.9c-0.5,0-0.9,0-1.3,0c-1,0.6-2.4,0.7-3.5,0.9
	c-1.9,0.3-3.8,0.5-5.6,0.6c-1.3,0.1-2.6,0.1-3.9,0.1c-0.6,0-1.1,0-1.7,0c-1.7-0.1-3.2-0.5-4.9-0.9c-1.3-0.3-2.6-0.5-3.9-0.5
	c-0.1,0-0.1,0-0.2,0c-1.4,0-2.8,0.4-4.2,0.8c-2.6,0.7-5.2,1.6-7.6,2.9c-2,1.1-4,2.4-5.6,4.1c-1.7,1.8-3.1,3.9-4.4,6
	c-1.3,2-2.6,4.1-4,6.1c-1.5,2.3-3.4,4.3-5.3,6.3c-4.4,4.8-8,10.4-11.7,15.7c-3.8,5.5-7.6,11-11.2,16.6c-2.2,3.2-4.2,6.6-6.4,9.8
	c-2.3,3.4-4.8,7-7.9,9.7c-1.2,1.1-2.5,1.9-4.1,2.1c-0.2,0-0.5,0-0.7,0c-1.7,0-3.3-0.7-4.7-1.7c-3.2-2.2-5.4-5.6-8.4-8
	c-4.6-3.6-8.4-8.1-11.9-12.6c-1.8-2.3-3.6-4.7-5.3-7.1c-1.9-2.6-4.5-4.7-6.8-7c-2.2-2.2-4.7-4.2-6.4-6.7c-1.5-2.1-2.8-4.5-5-5.9
	c-1.7-1.1-3.6-1.5-5.5-1.5c-3.4,0-6.9,1.3-9.8,2.5c-5.5,2.3-10.9,4.9-16.2,7.8c-4.9,2.6-9.7,5.4-14.3,8.6
	c-4.2,2.8-8.1,6.1-10.9,10.4c-1.4,2.1-2.6,4.4-3.3,6.8c-0.7,2.6-1,5.3-1.2,8c-0.3,6,0,12.1,0,18.1c0,13.8,0,27.6,0,41.5
	c0,11.9-0.7,24.4-4.9,35.6c-1.9,5-4.1,10-4.3,15.4c-0.3,6,2.5,11.9,4.5,17.4c4.2,11.7,4.7,24.2,4.7,36.5c0,6.9,0,13.7,0,20.6
	c0,3.3,0,6.6,0,9.9c-0.1,2.9-0.2,5.8-0.1,8.8c0.1,2.7,0.8,5.4,0.7,8.2c0,1.4-0.1,2.8-0.2,4.2c0,1.3,0.2,2.7,0.2,4
	c0,1.5-0.1,3,0.2,4.5c0.2,1.1,0.4,2.1,0.6,3.2c0.3,1.9,0.6,3.7,1.1,5.5c1,3.4,3.4,5.6,6.8,6.7c1.4,0.5,2.8,0.7,4.2,0.7
	c3,0,5.8-0.9,8.7-2.1c4-1.8,7.6-4.1,11.3-6.5c4-2.6,8.3-4.5,12.4-6.8c4.4-2.4,8.7-5.4,11.2-9.9c1.4-2.5,2-5.3,2.6-8
	c0.3-1.5,0.6-3,0.9-4.5c0.3-1.6,0.2-3.3,0.2-4.9c0-1.7,0.1-3.5,0.1-5.2c0-1.6,0.3-3.1,0.4-4.6c0.1-1.6,0.1-3.3,0.1-4.9
	c0.1-1.6,0.3-3.2,0.6-4.7c0.4-2.6-0.3-5.3,0.2-8c0.4-2.5,0.7-4.9,0.8-7.4c0.2-5.6-0.3-11.1-0.4-16.7c-0.1-5.6-0.7-11.4,0-17
	c0.1-0.6,0.2-1.3,0.3-1.9c0.1-0.8,0-1.6,0-2.4c0-1.7,0-3.5,0-5.2c0-3.4,0.1-6.8,0.1-10.2c0.1-6.6,0.3-13.1,0.1-19.7
	c-0.1-2.5-0.2-5.1-0.1-7.6c0.1-1.8,0.2-4.9,1.7-6.1c0.5-0.4,1.4-1.3,2-1.4c0.1,0,0.2,0,0.3,0c0.4,0,1,0.1,1.3,0.2
	c1.2,0.2,2.4,0.7,3.4,1.3c2.2,1.2,4.1,2.8,5.8,4.5c3.9,3.8,7.9,7.8,11.2,12.2c3.5,4.8,5,11,9.4,15.3c1,1,2.1,1.9,3.1,2.9
	c0.9,1,1.7,2.1,2.5,3.2c0.8,1.1,1.7,2.1,2.7,3.1c0.5,0.5,1.1,0.9,1.7,1.2c0.3,0.1,0.5,0.2,0.8,0.3c0.3,0.1,0.6,0.4,0.8,0.4
	c0.1,0,0.3,0.1,0.5,0.1c0.7,0,1.6-0.3,2.1-0.5c0.8-0.3,1.5-0.7,2.1-1.2c1.4-1.1,2.5-2.6,3.3-4.1c1.9-3.4,3-7.2,4.5-10.9
	c2-5.1,5.1-9.9,8.1-14.5c3.5-5.4,7.2-10.6,11-15.8c1-1.3,2.3-2.5,3.5-3.6c0.8-0.8,1.4-1.7,2-2.6c1.4-1.9,2.9-3.9,4.5-5.7
	c0.7-0.8,1.4-1.6,2.2-2.3c0.9-0.8,2-1.2,3-1.6c0.3-0.1,0.6-0.2,1-0.2c1.3,0,2.4,1,3,2.1c1.5,3.1,1.1,7.2,1.1,10.5
	c-0.1,4-0.5,8-0.1,12c0.2,2.2,0.8,4.3,1,6.5c0.3,3,0.4,6,0.4,9c0,6.5-0.1,13-0.1,19.4c0,6.7,0,13.4,0,20.1c0,6.1,0.1,12.1-0.1,18.2
	c-0.2,5-0.5,10.1,0,15.2c0.4,3.9,1.3,8,4.8,10.2c2.8,1.8,6.2,2.2,9.5,2.2c1.1,0,2.1,0,3.1-0.1c4.8-0.3,9.5-0.9,14.3-1.2
	c4.9-0.3,9.9-0.7,14.6-2.2c2-0.6,3.8-1.4,5.3-2.8c1.6-1.5,2.8-3.5,3.7-5.5c2.1-5,2.4-10.8,1.5-16.1c-0.5-3.3-0.3-6.7-0.3-10.1
	c0-3.4,0-6.7,0-10.1c0-1.7-0.2-3.3-0.2-5c0-1.5,0.2-2.9,0.2-4.4c0-3.4,0-6.9,0-10.3c0-1.5,0.3-2.9,0.3-4.4c0-1.6-0.1-3.1,0-4.7
	c0-1.5,0.3-3,0.5-4.5c0.2-1.2,0-2.5,0-3.7c0-3.1,0.6-6.2,0.9-9.3c0.3-3.4,0.7-6.9,1-10.3c0.2-1.7,0.3-3.4,0.5-5.2
	c0.2-1.6,0.2-3.3,0.5-4.9c0.4-1.8,1.2-3.7,1.8-5.4c1.6-4.4,3.4-8.9,4.1-13.6c0.3-2.2,0.2-4.3-0.5-6.4
	C777,469.7,775.7,467.1,774.5,464.5z M774.3,478.3c-0.5,3.8-1.9,7.6-3.4,11.5l-0.5,1.2c-0.2,0.4-0.3,0.8-0.5,1.2
	c-0.6,1.4-1.2,3.1-1.5,4.8c-0.3,1.3-0.4,2.6-0.4,3.8c0,0.5-0.1,1-0.1,1.5l-0.3,2.9l-0.2,2.2l-0.7,7.2l-0.3,3.1
	c-0.1,0.9-0.2,1.8-0.3,2.8c-0.3,2.2-0.6,4.6-0.6,6.9c0,0.4,0,0.8,0,1.2c0,0.8,0,1.5,0,2c0,0.3-0.1,0.5-0.1,0.8
	c-0.2,1.3-0.4,2.7-0.4,4.2c0,0.7,0,1.5,0,2.2c0,0.8,0,1.6,0,2.4c0,0.5-0.1,1.1-0.1,1.8c-0.1,0.8-0.2,1.7-0.2,2.7V555
	c0,0.5-0.1,1.1-0.1,1.6c-0.1,0.9-0.2,1.8-0.1,2.9c0,0.7,0.1,1.5,0.1,2.2c0.1,0.9,0.1,1.8,0.1,2.7c0,2.2,0,4.5,0,6.7
	c0,1.1,0,2.2,0,3.3c0,0.8,0,1.6,0,2.4c-0.1,2.7-0.1,5.5,0.4,8.3c0.8,5,0.4,10-1.3,13.9c-0.7,1.8-1.7,3.2-2.7,4.2
	c-0.9,0.8-2,1.4-3.7,1.9c-4.5,1.4-9.4,1.8-13.7,2c-2.5,0.1-4.9,0.4-7.3,0.6c-2.3,0.2-4.7,0.4-7,0.6c-0.8,0-1.9,0.1-2.9,0.1
	c-3.4,0-5.7-0.5-7.3-1.6c-1.7-1.1-2.6-3.3-3-7.3c-0.4-4-0.2-8.1-0.1-12.4c0-0.7,0.1-1.5,0.1-2.2c0.2-4.6,0.1-9.3,0.1-13.8
	c0-1.5,0-3,0-4.5l0-1c0-6.4,0-12.7,0-19.1c0-3.1,0-6.2,0.1-9.3c0-3.3,0.1-6.8,0.1-10.1c0-2.6-0.1-6-0.4-9.4
	c-0.1-1.2-0.3-2.2-0.5-3.3c-0.2-1.1-0.4-2.1-0.5-3.1c-0.2-2.6-0.1-5.3,0-8.1c0-1.2,0.1-2.3,0.1-3.5c0-0.4,0-0.8,0-1.1
	c0.1-3.4,0.2-7.5-1.5-11.2c-1.2-2.6-3.9-4.4-6.6-4.4c-0.9,0-1.7,0.2-2.5,0.5l-0.1,0.1c-1.2,0.5-2.6,1.1-3.9,2.2
	c-1,0.9-1.8,1.8-2.6,2.7c-1.7,1.9-3.1,3.9-4.7,5.9c-0.1,0.2-0.3,0.4-0.4,0.6c-0.4,0.6-0.8,1.2-1.2,1.6c-0.3,0.3-0.6,0.6-0.9,0.9
	c-1,0.9-2,2-3,3.2c-3.2,4.3-7.3,10.1-11.1,16l-0.4,0.6c-3,4.6-6,9.4-8.1,14.6c-0.4,1.1-0.8,2.2-1.2,3.2c-0.9,2.6-1.8,5-3,7.1
	c-0.8,1.4-1.5,2.3-2.3,3c-0.3,0.3-0.7,0.5-1,0.6c-0.2,0.1-0.3,0.1-0.4,0.1c-0.1,0-0.2-0.1-0.3-0.1c-0.2-0.1-0.4-0.1-0.6-0.2
	c0,0-0.1,0-0.1,0c-0.1,0-0.2-0.1-0.5-0.4c-0.7-0.7-1.4-1.5-2.2-2.5c-0.2-0.3-0.4-0.5-0.6-0.8c-0.6-0.9-1.4-1.8-2.2-2.8
	c-0.7-0.7-1.4-1.4-2.1-2c-0.4-0.3-0.7-0.7-1.1-1c-2.1-2-3.5-4.8-4.9-7.8c-1.2-2.3-2.4-4.7-4-7c-3.4-4.7-7.5-8.8-11.6-12.7l-0.1-0.1
	c-1.7-1.6-3.9-3.7-6.7-5.2c-1.5-0.8-3.1-1.4-4.6-1.7l-0.2,0c-0.5-0.1-1.2-0.3-1.9-0.3c-0.5,0-0.9,0.1-1.4,0.2
	c-1.4,0.4-2.4,1.3-3.2,2c-0.1,0.1-0.2,0.2-0.3,0.2c-2.8,2.3-3,6.3-3.2,8.8l0,0.3c-0.1,2.2,0,4.4,0,6.5c0,0.5,0,1,0,1.5
	c0.1,4.5,0,9.1,0,13.5c0,2-0.1,4-0.1,6l0,5.2l0,5.1l0,5l0,0.2c0,0.3,0,0.6,0,0.9c0,0.4,0,0.8,0,1.1c0,0.2-0.1,0.4-0.1,0.7
	c-0.1,0.3-0.1,0.7-0.2,1.2c-0.5,4.3-0.4,8.6-0.2,12.7c0.1,1.7,0.1,3.2,0.2,4.8c0,2.2,0.1,4.4,0.2,6.5c0.1,3.5,0.3,6.7,0.2,10
	c-0.1,2.5-0.4,4.9-0.7,6.9c-0.3,1.8-0.2,3.4-0.1,4.9c0.1,1.1,0.1,2.2,0,3.1l-0.1,0.8c-0.2,1.4-0.4,2.8-0.5,4.3c0,0.7,0,1.4-0.1,2.1
	c0,0.9,0,1.8-0.1,2.7c0,0.6-0.1,1.2-0.2,1.8c-0.1,0.9-0.2,1.9-0.2,2.9l0,1.6l-0.1,3.6c0,0.5,0,1.1,0,1.6c0,1,0,2-0.1,2.7
	c-0.2,1.1-0.4,2.2-0.7,3.3l-0.2,1c-0.5,2.5-1.1,4.9-2.2,6.9c-2.1,3.9-6.3,6.5-9.6,8.4c-1.4,0.8-2.8,1.5-4.2,2.2
	c-2.8,1.5-5.7,3-8.4,4.7c-3.4,2.2-7,4.5-10.7,6.2c-2.8,1.2-5,1.8-7,1.8c-1,0-2-0.2-3-0.5c-2.3-0.7-3.5-2-4.2-4
	c-0.4-1.3-0.6-2.8-0.9-4.3l-0.1-0.7c-0.2-1.2-0.4-2.3-0.6-3.3c-0.2-0.9-0.2-1.9-0.2-3.1l0-0.7c0-0.8-0.1-1.6-0.1-2.2
	c-0.1-0.6-0.1-1.2-0.1-1.7c0-0.6,0-1.3,0.1-1.9c0-0.7,0.1-1.5,0.1-2.3c0-1.8-0.2-3.5-0.4-5.1c-0.2-1.1-0.3-2.2-0.3-3.2
	c-0.1-1.9,0-3.8,0.1-5.8c0-0.9,0.1-1.8,0.1-2.7c0-2.3,0-4.7,0-7c0-1,0-2,0-3c0-2.2,0-4.4,0-6.5c0-4.6,0-9.4,0-14.1
	c0-11.7-0.5-25.2-5-37.8c-0.4-1-0.7-2-1.1-3.1c-1.6-4.3-3.3-8.7-3.1-12.8c0.2-4,1.7-7.9,3.3-12.1c0.3-0.7,0.5-1.4,0.8-2.1
	c4.5-12.1,5.1-25.5,5.1-37v-41.5c0-2,0-3.9-0.1-5.8c-0.1-4-0.1-8.1,0.1-12.1c0.1-2,0.3-4.7,1-7.1c0.5-1.8,1.4-3.7,2.8-5.7
	c2.2-3.2,5.3-6.2,9.8-9.3c3.9-2.6,8.2-5.2,14-8.3c5.8-3.1,10.9-5.6,15.8-7.6c2.6-1.1,5.7-2.2,8.3-2.2c1.3,0,2.4,0.3,3.3,0.9
	c1.1,0.7,2.1,2.1,3,3.6c0.3,0.4,0.5,0.8,0.8,1.2c1.6,2.3,3.5,4.1,5.4,5.9c0.5,0.5,1,0.9,1.5,1.4c0.6,0.6,1.2,1.1,1.8,1.7
	c1.7,1.6,3.4,3.2,4.6,4.8l1.2,1.6c1.4,1.8,2.8,3.8,4.2,5.6c3.3,4.3,7.4,9.2,12.6,13.3c1.2,0.9,2.2,2.1,3.4,3.3
	c1.5,1.7,3.1,3.4,5.2,4.9c2.3,1.6,4.7,2.4,7,2.4c0.4,0,0.8,0,1.2-0.1c2.9-0.3,5-1.9,6.3-3c3.6-3.1,6.3-7,8.6-10.5
	c1.3-1.9,2.6-3.9,3.8-5.8c0.9-1.3,1.8-2.7,2.6-4.1c4.1-6.2,7.8-11.6,11.2-16.5c0.6-0.9,1.2-1.7,1.8-2.6c3-4.4,6.1-8.9,9.6-12.7
	c1.8-2,3.9-4.2,5.6-6.8c0.8-1.2,1.6-2.5,2.4-3.7c0.5-0.8,1.1-1.7,1.6-2.5c1.3-2,2.6-3.9,4-5.5c1.1-1.2,2.5-2.2,4.5-3.2
	c1.9-1,4.1-1.8,6.8-2.5l0.4-0.1c1-0.3,2-0.5,2.8-0.6l0.1,0c1,0,2,0.2,3,0.4c0.3,0.1,0.5,0.1,0.8,0.2c1.5,0.3,3.1,0.7,4.9,0.8
	c0.6,0,1.2,0,1.8,0c1.2,0,2.5,0,4.1-0.1c2.2-0.1,4.2-0.3,6-0.6c0.2,0,0.3,0,0.5-0.1c0.9-0.1,2.1-0.3,3.3-0.8l0.4,0
	c1.7,0,3.5,0,4.9,0.6c1,0.4,1.7,1.2,2.1,2.4c0.3,0.9,0.5,1.9,0.7,2.8c0.1,0.4,0.2,0.8,0.3,1.2c0.2,0.8,0.4,1.6,0.4,2.2
	c0,1,0,2.1,0,3.2c0,0.6,0,1.2,0,1.7c0,1.8,0.3,3.3,0.6,4.7l0,0.2c1,4.7,2,10.9,1.8,17c-0.1,1.5-0.2,2.9-0.4,4.2
	c0,0.2-0.1,0.4-0.1,0.6c-0.1,0.5-0.2,1.1-0.3,1.9c-0.1,0.7,0,1.4,0,2.1c0,0.3,0,0.5,0,0.7c0,0.5,0,1,0,1.5c0,1.1,0,2.1-0.1,2.9
	c-0.2,1.5-0.3,3-0.2,4.5c0,1.1,0.1,2.1,0.2,3.1c0.1,1.8,0.2,3.6,0.1,5.2c-0.1,1-0.2,2-0.4,3.1c-0.2,1.4-0.5,2.9-0.5,4.5
	c-0.2,5.4,0.2,10.9,1.3,16.3c0.3,1.7,0.3,3.5,0.4,5.4c0,1.1,0,2.2,0.1,3.3c0.2,3.7,1.5,6.9,2.7,9.6c0.2,0.5,0.4,0.9,0.6,1.4
	c1,2.1,1.9,4.1,2.4,6.1C774.4,475.2,774.5,476.6,774.3,478.3z M525,483.2C525,483.2,525,483.2,525,483.2c0,0.2,0.1,0.5,0.1,0.6
	C525.1,483.7,525.1,483.5,525,483.2z M525.1,483.8c0,0.1,0,0.2,0.1,0.3C525.2,484,525.2,484,525.1,483.8z M332.8,681.8
	c-1-1.8-2.5-3.4-4.1-4.7c-1.8-1.4-3.9-2.6-6.2-2.6c-0.1,0-0.1,0-0.2,0c-1.4,0-2.8,0.1-4.2,0.2c-1.3,0-2.6,0-3.8,0.1
	c-2.1,0.3-4.3,0.9-6.4,1.4c-4.2,0.9-8.6,1.9-12.5,3.8c-3.5,1.7-6.2,4.3-7.8,7.8c-1.7,3.7-2.4,7.8-3.3,11.8c-0.5,2.5-1.1,4.9-1.3,7.4
	c-0.2,2.3-0.3,4.7-0.8,6.9c-0.9,4.2-3.4,8.3-5.8,11.8c-2.4,3.5-5.3,6.7-8.7,9.3c-6.4,4.9-14.8,7.4-22.9,7.4c-0.8,0-1.6,0-2.5-0.1
	c-8.1-0.5-15.9-4-21.3-10.1c-2.9-3.2-5-7.1-6.8-11c-2-4.4-3.7-9-4.9-13.7c-0.3-1.3-0.7-2.5-0.7-3.8c0-1.3,0.1-2.6,0-3.9
	c-0.1-1.4-0.5-2.8-0.5-4.2c-0.1-1.3-0.1-2.6-0.1-3.9c0-2.7,0-5.4-0.4-8c-0.2-1.4-0.5-2.7-0.6-4.1c-0.6-6.5-0.7-13.3,0-19.8
	c0.4-4,1.6-8,2.5-12c1.3-5.3,2.6-10.6,4.1-15.8c2.3-8.4,4-17.1,8.8-24.5c2.4-3.7,5.4-6.6,9.3-8.7c4-2.2,8.4-3.6,12.7-4.8
	c2.5-0.7,5-1,7.4-1c1.6,0,3.3,0.2,5,0.5c4,0.8,7.9,2.3,11.3,4.6c2.5,1.7,5.5,4.1,6.2,7.2c0.3,1.1,0.3,2.3,0.5,3.5
	c0.3,1.2,0.6,2.3,0.9,3.5c0.6,2.3,1.3,4.6,2.3,6.7c0.8,1.8,1.9,3.5,3.5,4.7c1.6,1.1,3.6,1.7,5.6,2c0.7,0.1,1.4,0.1,2,0.1
	c3.6,0,7.2-1.1,10.8-1.9c8.3-1.7,17.4-2.9,24.8-7.4c1.8-1.1,3.3-2.4,4.5-4.3c1.2-2,2.1-4.1,2.9-6.3c1.7-4.9,2.2-10.1,1.7-15.2
	c-0.8-9.5-4.6-18.5-9-26.8c-4.2-7.9-9.6-15.4-16.6-21.2c-3.6-2.9-7.5-5.2-11.8-6.8c-4.6-1.7-9.5-2.8-14.2-4.3
	c-7.9-2.3-16-3.3-24.2-3.4c-0.4,0-0.8,0-1.4,0c-0.5,0-1,0-1.6,0c-1,0.7-2.4,0.8-3.7,0.8c-0.5,0-1.1,0-1.6,0c-0.1,0-0.1,0-0.2,0
	c-2.2,0-4.2,0.6-6.4,1c-5,1-9.8,2-14.6,3.6c-9.4,3.1-18.8,6.7-27.5,11.6c-2.1,1.2-4.2,2.5-6.2,3.9c-2.1,1.4-3.9,3.2-5.8,4.9
	c-3.7,3.3-7.8,6-10.8,10c-5.6,7.5-9.9,15.9-13.5,24.5c-1.9,4.5-3.5,9.1-5.1,13.7c-1.6,4.8-3.1,9.6-4.2,14.5
	c-2.2,9.6-2.6,19.6-4.6,29.2c-1,5-2.7,9.9-4.3,14.7c-0.8,2.5-1.7,5-2.6,7.5c-0.8,2.1-1.7,4.2-2.4,6.3c-1.6,4.7-2,9.3-0.5,14
	c1.4,4.5,3.9,8.5,6.3,12.5c2.6,4.3,4.7,8.8,7.1,13.2c2.3,4.1,3.9,8.6,5.4,13.1c1.6,4.8,3.3,9.6,4.5,14.6c0.6,2.5,1.1,4.9,2,7.3
	c0.9,2.2,1.8,4.5,2.8,6.7c3.5,8.1,7.3,16.2,12.5,23.4c2.5,3.4,5.2,6.6,8.3,9.5c3.2,3,6.7,5.5,10.2,8.1c3.5,2.5,7.2,4.7,11.4,6.1
	c3.1,1,6.2,1.2,9.4,1.2c1.5,0,3.1-0.1,4.7-0.1c1.2,0,2.4-0.1,3.5-0.1c5.6,0,11.1,0.4,16.7,0.4c2.2,0,4.4-0.1,6.5-0.2
	c4.4-0.4,8.7-1.7,12.8-3.2c4.6-1.8,9.1-4,13.4-6.4c15-8.4,29.3-18.8,39.8-32.6c2.7-3.5,5.1-7.2,7.2-11.1c2.1-3.9,4.2-8,4.9-12.5
	c0.8-5.2,2-10.3,2.9-15.5c0.2-1.5,0.5-2.9,0.8-4.3c0.2-1.3,0.6-2.7,0.7-4c0.2-2.8,0.1-5.7,0.2-8.6c0-1.4,0-2.7,0.1-4.1
	c0.1-0.9,0.3-1.9,0.4-2.8c0.2-2.1,0.2-4.2,0.1-6.3C335,689,334.5,685,332.8,681.8z M331.2,698.5c0,0.3-0.1,0.6-0.1,1
	c-0.1,0.6-0.2,1.3-0.3,2c-0.1,1-0.1,2-0.1,2.9c0,0.4,0,0.9,0,1.3c0,1,0,1.9,0,2.9c0,1.9,0,3.7-0.2,5.5c0,0.6-0.2,1.3-0.4,2.1
	c-0.1,0.5-0.2,1-0.3,1.5c-0.3,1.4-0.5,2.8-0.8,4.4c-0.4,2.3-0.8,4.6-1.3,6.8c-0.6,2.8-1.2,5.8-1.6,8.7c-0.6,3.8-2.4,7.4-4.4,11.2
	c-2,3.6-4.3,7.2-6.8,10.6c-8.8,11.6-21.4,21.9-38.6,31.6c-4.6,2.6-8.8,4.6-12.9,6.2c-4.7,1.8-8.3,2.7-11.7,3
	c-1.9,0.2-3.9,0.2-6.2,0.2c-2.7,0-5.5-0.1-8.2-0.2c-2.8-0.1-5.6-0.2-8.5-0.2c-1.3,0-2.5,0-3.7,0.1c-1.5,0.1-3,0.1-4.5,0.1
	c-3.4,0-5.9-0.3-8.2-1.1c-3.3-1.1-6.5-2.8-10.3-5.5c-3.2-2.3-6.8-4.9-9.8-7.8c-2.8-2.6-5.4-5.6-7.8-8.9c-5.2-7.2-9-15.5-12-22.6
	l-0.4-0.9c-0.8-1.8-1.6-3.7-2.3-5.6c-0.8-2.1-1.3-4.4-1.9-6.8c-1-4.4-2.4-8.6-3.8-12.7c-0.3-0.7-0.5-1.5-0.8-2.2
	c-1.7-5-3.3-9.5-5.7-13.8c-1-1.7-1.9-3.5-2.8-5.3c-1.4-2.7-2.8-5.4-4.4-8l-0.1-0.1c-2.3-3.8-4.6-7.5-5.8-11.4
	c-1.1-3.6-0.9-7.2,0.5-11.5c0.4-1.2,0.9-2.4,1.4-3.6c0.3-0.9,0.7-1.7,1-2.6c0.8-2.2,1.7-4.7,2.7-7.6l0.5-1.6
	c1.4-4.4,2.9-8.9,3.9-13.5c1-4.7,1.6-9.5,2.2-14.2c0.7-5.2,1.3-10.1,2.4-15c1.1-4.7,2.5-9.4,4.1-14.1c1.6-4.9,3.2-9.3,5-13.4
	c3.9-9.4,8.2-17.1,13-23.6c1.8-2.4,4.1-4.3,6.6-6.4c1.2-1,2.4-2,3.6-3.1l0.8-0.7c1.6-1.4,3-2.8,4.6-3.9c1.8-1.2,3.8-2.5,5.8-3.7
	c8.8-5,18.5-8.5,26.8-11.3c4.4-1.5,8.9-2.4,13.6-3.3l0.5-0.1c0.5-0.1,1-0.2,1.5-0.3c1.5-0.3,2.8-0.6,4.1-0.6l0.2,0
	c0.2,0,0.4,0,0.7,0c0.3,0,0.6,0,0.9,0c1.4,0,3.1-0.1,4.6-0.8c0.2,0,0.5,0,0.7,0c0.5,0,0.9,0,1.3,0c0,0,0,0,0.1,0
	c8.5,0.1,16,1.2,23.1,3.3c1.6,0.5,3.1,0.9,4.7,1.3c3.2,0.9,6.3,1.7,9.3,2.8c3.7,1.4,7.3,3.4,10.6,6.1c5.9,4.8,11.1,11.5,15.6,19.9
	c5.2,9.7,7.9,17.7,8.6,25.3c0.4,4.8-0.1,9.4-1.5,13.5c-0.8,2.3-1.6,4.1-2.5,5.6c-0.7,1.2-1.7,2.1-3.1,2.9
	c-5.6,3.4-12.6,4.8-19.4,6.1c-1.4,0.3-2.8,0.5-4.1,0.8c-1,0.2-1.9,0.4-2.8,0.6c-2.5,0.6-4.9,1.2-7.1,1.2c-0.5,0-1,0-1.5-0.1
	c-1.6-0.2-2.9-0.6-3.8-1.3c-0.7-0.5-1.4-1.4-2.2-3.1c-0.9-2-1.6-4.2-2.1-6.1l-0.2-0.9c-0.2-0.8-0.5-1.6-0.7-2.4
	c-0.1-0.3-0.1-0.8-0.2-1.3c-0.1-0.7-0.2-1.4-0.3-2.2c-0.8-3.5-3.4-6.7-7.9-9.6c-3.7-2.5-8.2-4.2-12.8-5.1c-1.9-0.4-3.8-0.6-5.7-0.6
	c-2.8,0-5.6,0.4-8.5,1.2c-4.2,1.1-9,2.6-13.6,5.1c-4.5,2.4-8,5.7-10.7,10c-4.4,6.8-6.3,14.5-8.3,21.9c-0.3,1.2-0.6,2.5-1,3.7
	c-1.7,6.1-3,11.2-4.1,15.9c-0.2,0.9-0.5,1.8-0.7,2.8c-0.8,3.1-1.6,6.4-1.9,9.7c-0.7,6.6-0.7,13.8,0,20.6c0.1,1,0.3,2,0.4,2.9
	c0.1,0.5,0.2,1,0.2,1.5c0.3,2.2,0.3,4.4,0.3,6.8l0,0.7c0,1.3,0,2.7,0.1,4.1c0.1,1,0.2,1.9,0.3,2.7c0.1,0.6,0.2,1.1,0.2,1.6
	c0.1,0.6,0,1.3,0,2.1c0,0.5,0,0.9,0,1.4c0,1.8,0.4,3.3,0.8,4.6l0.1,0.2c1.3,5.1,3.1,9.9,5.1,14.4c2.4,5.1,4.7,8.9,7.5,12
	c5.9,6.6,14.7,10.8,24,11.4c0.9,0.1,1.8,0.1,2.7,0.1c9.2,0,18.4-3,25.3-8.2c3.6-2.7,6.8-6.2,9.6-10.2c2.4-3.5,5.3-8.2,6.4-13.3
	c0.4-1.9,0.6-3.8,0.7-5.6c0-0.6,0.1-1.2,0.1-1.8c0.2-2,0.6-4,1-6.1l0.2-0.9c0.1-0.5,0.2-0.9,0.3-1.4c0.7-3.5,1.4-6.7,2.7-9.6
	c1.2-2.6,3.2-4.6,5.9-5.9c3.6-1.7,7.7-2.6,11.6-3.5c0.8-0.2,1.5-0.3,2.3-0.5c1.4-0.3,2.6-0.6,3.9-0.8c0.6-0.1,1.3-0.1,2-0.1
	c0.5,0,0.9,0,1.4,0l2-0.1l2.2-0.1l0.1,0c0.7,0,1.8,0.3,3.8,1.8c1.3,1,2.4,2.2,3,3.4c1.4,2.7,1.8,6.3,2,9.1
	C331.4,694.9,331.4,696.8,331.2,698.5z M461.9,542.1c0-0.2,0.1-0.4,0.1-0.6c0,0,0,0,0,0C462,541.7,461.9,541.9,461.9,542.1z
	 M461.8,542.7c-0.1,0.4-0.1,0.7-0.2,0.9C461.6,543.4,461.7,543.1,461.8,542.7z"/>
</svg>
