<?xml version="1.0" encoding="utf-8"?>
<!-- Generator: Adobe Illustrator 19.2.1, SVG Export Plug-In . SVG Version: 6.00 Build 0)  -->
<svg version="1.1" id="Layer_1" xmlns="http://www.w3.org/2000/svg" xmlns:xlink="http://www.w3.org/1999/xlink" x="0px" y="0px"
	 viewBox="0 0 968.5 804.3" style="enable-background:new 0 0 968.5 804.3;" xml:space="preserve">
<style type="text/css">
	.st0{fill:#EBC387;}
</style>
<g>
	<path class="st0" d="M892.4,0.4c8.1-0.1,16.2-0.6,24.2-0.2c3.5,0.2,7,0.5,10.4,1.5c2.5,0.8,4.4,2.2,6,4.2
		c3.9,4.8,5.7,11.3,6.8,17.3c1.3,7,1.6,14.3,0.5,21.4c-1,6.3-3.2,13.6-9.4,16.5c-1.9,0.9-4.1,1.6-6.1,1.7c-2.3,0.1-4.6-0.6-6.9-0.7
		c-2.3-0.1-4.5,0.6-6.8,0.8c-2.4,0.2-4.8,0.3-7.3,0.3c-5,0-10-0.4-15-0.2c-2.3,0.1-4.7,0.3-7,0.7c-2.7,0.5-5.5,0.3-8.3,0.5
		c-2.1,0.2-4.4,1.3-6.3,2.2c-1.8,0.9-3.6,2.1-5.1,3.5c-3,2.6-5.6,6.2-6.8,10c-0.4,1.2-0.5,2.4-0.7,3.7c-0.2,1.2-0.5,2.3-0.9,3.5
		c-0.7,2.4-1.4,4.7-1.7,7.2c-0.6,4.7,0.9,9.7,3.4,13.7c1.1,1.7,2.5,3.3,4.2,4.4c1.9,1.2,4.1,1.6,6.3,1.7c2.4,0.1,4.7-0.3,7.1-0.8
		c1-0.2,2-0.4,3-0.7c1.4-0.3,2.9-0.4,4.3-0.5c2.1-0.2,4.1-0.5,6.1-0.8c1.7-0.3,3.5-0.5,5.3-0.7c4-0.4,8.1-0.7,12.2-0.6
		c3.4,0.1,6.9,0.3,10,1.6c3.8,1.6,7.4,3.6,10.4,6.4c5.8,5.2,9.3,12.3,13.2,18.8c1.3,2.1,2.6,4,4.1,6c1.6,2.1,3.4,4.2,4.6,6.6
		c1.2,2.3,1.9,4.9,3.1,7.2c1.1,2.1,2.7,4.1,4.2,6c2.8,3.6,6.1,7.6,6.6,12.3c0.5,4.9-1.2,9.2-3.8,13.2c-2.8,4.4-6.2,8.3-8.6,13
		c-2.2,4.3-3.5,8.9-5,13.4c-1.7,5.1-3.9,10-5.7,15c-1.9,5.3-3.8,10.6-6.6,15.5c-2.6,4.5-5.7,8.6-8.5,12.9c-2.8,4.2-5.5,8.4-8.6,12.4
		c-3,3.8-6.2,7.5-10.1,10.4c-4.2,3.2-8.8,5.8-13.4,8.2c-4.8,2.5-9.7,4.8-14.8,6.7c-5,1.8-10.4,2.7-15.5,4.4
		c-8.4,2.6-17.1,4.1-25.9,4.7c-9.2,0.6-18.7,0.4-27.5-2.2c-8.1-2.4-16-6.5-22.3-12.2c-3.1-2.8-5.8-6.1-7.9-9.6
		c-2.1-3.5-3.9-7.3-4.4-11.4c-1-8.8,1.7-17.1,5-25.1c3.4-8.2,7.6-16.5,13.7-22.9c2.6-2.7,6.1-6.1,10-5.9c2.3,0.1,4.4,1.1,6.1,2.7
		c0.8,0.8,1.6,1.7,2.5,2.5c1,0.9,2.1,1.6,3.2,2.4c4.4,3.2,9,6,14.1,8c4.6,1.7,9.3,3.2,14.2,2.9c4.7-0.3,9.2-1.6,13.8-2.1
		c4.8-0.6,9.8-0.8,14.5-2.3c8.6-2.7,14.2-10.2,17.4-18.3c1.6-4,2.8-8.4,2.8-12.7c0-4.3-1.5-8.7-3.8-12.4c-2.1-3.4-5.1-6.2-8.7-7.8
		c-4.5-2-9.3-1.6-14.2-1.2c-5,0.4-10,0.3-15,0.1c-4.2-0.2-8.4-0.6-12.5-1.5c-3.6-0.8-7.1-2-10.2-4c-3.4-2.1-5.7-5.1-8-8.3
		c-2.8-4-5.4-8.2-7.7-12.6c-1.2-2.3-2.3-4.6-3.4-7c-1.1-2.4-2.5-4.9-3.1-7.5c-0.7-2.8-1.2-5.7-2.1-8.4c-0.8-2.4-1.8-4.8-2.6-7.2
		c-0.9-2.4-1.8-4.8-2.1-7.3c-0.3-2.2-0.1-4.6,0.2-6.8c0.1-1,0.4-1.9,0.5-2.9c0.2-1.3,0.2-2.8,0.3-4.1c0.2-2.9,0.1-6,0.9-8.8
		c1.4-5.1,3.5-9.9,5.1-14.9c1.8-5.4,3.3-10.9,5.3-16.2c1.9-5.1,4.4-9.8,7.5-14.3c1.4-2.1,2.9-4.1,4.4-6.1c0.8-1,1.5-2.1,2.3-3.1
		c0.9-1.1,1.9-2,2.9-2.9c2.1-1.9,4.2-3.7,6.1-5.7c1.9-1.9,3.8-3.8,5.8-5.6c7.6-6.8,17.3-11,26.7-14.5c2.4-0.9,4.8-1.7,7.3-2.6
		c2.4-0.8,4.9-1.8,7.3-2.3c2.5-0.5,5.1-0.7,7.6-1.1c1.1-0.2,2.2-0.5,3.4-0.5C890.2,0.6,891.5,0.9,892.4,0.4
		C903.5,0.3,891.3,1,892.4,0.4z M574.3,66.9c8,1.3,16,4.8,22.4,9.9c3,2.4,5.7,5.2,7.5,8.5c2.2,3.9,2.5,8.1,1.2,12.4
		c-0.6,2.1-1.5,4.1-2.2,6.1c-1,2.6-1.9,5.3-2.8,8c-1.8,5.2-3.6,10.3-5.7,15.4c-4.3,10.2-9.1,20.2-13.9,30.2
		c-4.8,10.2-9.5,20.4-13.9,30.7c-2.1,5.1-4.3,10.3-6.4,15.4c-1.1,2.5-2.1,5-3,7.6c-0.8,2.5-1.7,4.9-3.1,7.2
		c-2.6,4.3-6.1,7.9-8.7,12.3c-2.5,4.4-4.2,9.2-6,13.9c-0.9,2.2-1.7,4.4-2.9,6.5c-1.1,2-2.3,3.9-3.2,5.9c-0.8,1.8-1.7,3.9-1.5,5.8
		c0.2,1.6,1,3.2,1.8,4.5c1.9,3,4.5,5.4,6.8,8c1.5,1.6,2.7,3.5,4.1,5.2c1.7,2.1,3.4,4.3,5.1,6.4c3.4,4.2,6.9,8.4,10.4,12.5
		c3.4,4.1,6.5,8.3,9.8,12.4c2,2.5,4.4,4.6,6.5,7c2,2.3,4.6,5.4,4.5,8.6c-0.1,4.2-3.6,8.2-6,11.4c-1.6,2.2-3.2,4.3-4.8,6.4
		c-1.7,2.2-3.8,4.1-5.8,6.1c-2,2-4.2,3.8-5.9,6c-1.5,1.9-2.8,3.9-4.4,5.7c-2.8,3.3-6.2,6.2-10.1,8c-4.2,1.9-8.8,1.7-12.5-1.2
		c-3.4-2.7-5.7-6.4-8.3-9.8c-1.5-2-3.3-3.8-5-5.7c-1.7-1.9-3.2-3.9-4.7-6c-3-4.2-5.9-8.6-9.3-12.6c-0.8-0.9-1.6-1.8-2.4-2.7
		c-0.4-0.4-0.8-0.8-1.2-1.2c-0.2-0.2-0.5-0.6-0.7-0.7c-0.3-0.1-1.1,0-1.5,0c-0.6,0-1.2-0.1-1.7,0.2c-0.4,0.3-0.8,0.8-1.1,1.2
		c-0.7,0.9-1.4,1.8-2.1,2.7c-2.6,3.7-4.5,7.8-6.3,11.9c-1.8,4.3-3.4,8.7-5.1,13.1c-0.9,2.3-1.9,4.6-3.1,6.8
		c-1.3,2.3-2.9,4.4-4.3,6.7c-1.3,2.2-2.4,4.6-3.6,6.9c-0.6,1.1-1.2,2.1-1.8,3.2c-0.6,1.2-1,2.4-1.5,3.6c-0.9,2.4-2.4,4.5-3.6,6.8
		c-1.3,2.3-2.5,4.6-3.7,7c-2.2,4.2-4.5,8.4-6.9,12.5c-1.5,2.5-2.8,5.1-4.3,7.6c-3,5-7,10.6-12.9,12.1c-3.4,0.8-6.7-0.1-9.9-1.4
		c-3.8-1.6-7.6-3.5-11-5.8c-3.3-2.3-6.3-5-8.5-8.3c-2.3-3.4-4.5-8-3.9-12.1c0.3-2.1,1.2-4.1,2-6c1.1-2.5,2.1-5,3.3-7.4
		c2.2-4.9,4.8-9.6,7-14.5c1.2-2.6,2.4-5.3,3.6-7.9c1.1-2.4,2.5-4.6,3.7-7c1.3-2.3,2.5-4.7,3.3-7.2c0.9-2.6,1.5-5.2,2.3-7.8
		c1.5-5.1,4.2-9.5,7-13.9c2.9-4.4,5.3-8.9,7.5-13.7c1.1-2.5,2.1-4.9,3.3-7.4c1.1-2.4,2.4-4.7,3.4-7.1c2.2-4.9,4.1-10,6.1-14.9
		c0.8-2,1.7-3.9,2.7-5.8c0.9-1.9,1.7-3.8,1.8-5.9c0.1-4.2-2.6-8.3-5.3-11.3c-2.8-3.2-5.9-6.1-8.5-9.5c-3.4-4.4-6.8-8.7-10.3-13.1
		c-1.7-2.2-3.4-4.4-5.1-6.5c-1.5-2-3-4.1-4.8-5.8c-1.7-1.7-3.6-3.1-5.5-4.6c-1.8-1.4-3.5-2.6-4.9-4.5c-1.3-1.9-2.4-3.9-3.6-5.9
		c-1.2-1.9-2.6-3.8-3.9-5.6c-2.7-3.6-5.3-7.6-5.7-12.3c-0.6-7.9,4.9-14.6,9.9-20c3.1-3.3,5.8-6.9,9-10.1c2.6-2.6,5.6-4.7,8.8-6.4
		c3.6-1.9,7.9-3.4,12-2.3c4.3,1.1,8,4.3,10.8,7.6c3.3,3.7,6.2,7.9,9.4,11.8c3.4,4.2,7,8.3,10.2,12.6c1.5,2,3.4,3.5,5,5.4
		c1.1,1.2,1.9,2.7,2.8,4c2,3,4.2,6.1,7.1,8.2c1.4,1,2.9,1.7,4.6,1.9c0.7,0.1,0.8-0.1,1.2-0.6c0.3-0.4,0.7-0.8,1-1.2
		c0.7-0.9,1.4-1.9,2-2.9c2.3-3.8,3.8-8,5.5-12.1c1.9-4.4,4.3-8.3,6.9-12.3c1.4-2.1,2.8-4.3,4-6.5c1.3-2.4,2.2-4.8,3.2-7.3
		c2-5.1,3.6-10.4,5.8-15.5c2.1-5.1,4.5-10.1,6.8-15.1c4.5-10,8.9-19.9,12.7-30.2c1.8-5,3.6-9.9,5.7-14.8c1-2.4,2.1-4.8,3.4-7
		c1.1-2.1,2.4-4.1,3.5-6.3c1-1.9,1.9-3.8,3.2-5.5c1.3-1.7,2.9-3,4.7-4.1c2-1.2,4.1-2.1,6.3-3c0.9-0.4,1.8-0.6,2.8-0.7
		C572.3,67.4,573.4,67.4,574.3,66.9C587,69,573,67.6,574.3,66.9z M482.9,75.4c2.9,0,5.9,0.6,8.3,2.4c1.5,1.1,2.4,2.9,3.2,4.5
		c2.1,4.5,3,9.7,2.9,14.6c-0.1,2.3-0.4,4.6-1.3,6.7c-1,2.4-3,4.3-5.1,5.7c-2.4,1.6-5.2,2.7-7.8,3.9c-3.2,1.5-6.2,3.3-9.3,4.9
		c-6.8,3.5-13.6,6.8-20.4,10.3c-6.7,3.5-13.5,6.8-20.4,10c-7,3.2-14.1,6.2-21.2,9.3c-6.9,3-13.8,6-20.4,9.6
		c-3.2,1.7-6.3,3.5-9.5,5.2c-3.2,1.7-6.5,3.5-9.9,4.7c-1.7,0.6-3.5,1-5.2,1.6c-1.8,0.6-3.6,1.3-5.3,2c-3.7,1.5-7.3,2.9-11,4.3
		c-14.5,5.7-28.7,12.1-42.8,18.8c-7.1,3.3-14.1,6.7-21.2,10c-7,3.2-14,6.3-21,9.5c-13.2,6.1-26.2,12.9-39.8,18.1
		c-5.1,1.9-10.8,4.3-13.5,9.3c-1.5,2.8-2,6-2.3,9.1c-0.3,3.4-0.5,6.9-1.1,10.2c-0.7,3.4-1.2,6.8-1.4,10.3c-0.2,3.6-0.4,7.3-0.7,10.9
		c-0.2,1.8-0.4,3.7-0.7,5.5c-0.1,0.9-0.3,1.7-0.3,2.5c0,1.1,0,2.1,0,3.2c0,4,0,7.9,0,11.9c0,4,0.1,8-0.3,12c-0.3,3.8-0.6,7.7-1,11.5
		c-0.4,3.7-0.9,7.5-1.6,11.1c-0.7,3.7-1.2,7.3-1.3,11.1c-0.1,1.9-0.1,3.8-0.3,5.7c-0.2,1.8-0.6,3.6-0.7,5.4
		c-0.1,1.9-0.2,3.8-0.3,5.8c-0.1,1.7-0.5,3.4-0.7,5.2c-0.3,3.6-0.3,7.3-0.8,10.9c-0.1,0.8-0.2,1.6-0.4,2.4c-0.2,1-0.1,2.1-0.1,3.1
		c0,2-0.1,4-0.1,5.9c0,2-0.1,4-0.1,5.9c0,1.6-0.3,3.3-0.3,4.9c0,1.6,0.2,3.3,0.2,4.9c0,1.6-0.4,3.2-0.6,4.8
		c-1.1,7-0.4,14.1-0.8,21.2c-0.1,1.7-0.3,3.4-0.6,5.1c-0.3,1.9-0.3,3.8-0.3,5.7c0,1.7-0.1,3.3-0.1,4.9c0,1.5,0.1,3.1-0.1,4.6
		c-0.2,1.7-0.6,3.4-0.8,5.1c-0.2,1.8-0.3,3.6-0.3,5.4c-0.1,3.6-0.1,7.2-0.3,10.8c-0.2,3.6-1.1,7-1.5,10.5c-0.4,3.2-0.4,6.6-1.2,9.8
		c-0.7,2.8-2.2,5.3-4.8,6.8c-2.6,1.6-5.6,2.2-8.4,3c-3.4,0.9-6.7,1.9-10.1,2.7c-3.6,0.9-7.2,1.7-10.9,2.5c-6.5,1.5-13,3.7-19.7,2.8
		c-4.4-0.6-9-2.9-11-7.2c-2-4.4-1.3-9.7-0.3-14.3c0.7-3.3,1.3-6.6,1.6-10c0.3-3.6,0.6-7.3,1.3-10.9c0.4-1.8,0.2-3.9,0.2-5.8
		c0-2,0.1-3.9,0.1-5.9c0-1.5,0-3.1,0.2-4.6c0.2-0.9,0.3-1.9,0.4-2.8c0.3-2.5,0.5-5,0.6-7.5c0.1-2.1,0.2-4.3-0.1-6.5
		c-0.5-3.3-1.5-6.6-2.3-9.8c-0.9-3.4-1.9-6.8-3-10.1c-2.1-6.3-4.7-12.5-7.7-18.4c-2.4-4.6-5.9-8.6-7.4-13.7
		c-1.7-6.2,2.1-12.1,5.3-17.1c1.8-2.8,3.6-5.7,5-8.8c1.6-3.4,2.8-6.9,4.3-10.3c1.5-3.4,3.3-6.7,4.9-10c1.6-3.3,2.9-6.7,3.8-10.3
		c0.5-1.8,0.9-3.6,1.3-5.4c0.4-1.8,1-3.7,1.1-5.5c0.2-4,0.2-8,0.2-12c0-1.8,0-3.7,0.3-5.5c0.2-1.6,0.3-3.2,0.3-4.8
		c0-3.5-0.1-6.9-0.1-10.4c0.1-5.9,0.8-12.4-1.5-17.9c-0.5-1.2-1.1-2.3-1.9-3.3c-0.2-0.2-0.4-0.6-0.6-0.7c-0.3-0.2-1-0.1-1.4-0.1
		c-0.9,0-1.8,0-2.6,0.1c-3.2,0.2-6.3,1.2-9.4,2.1c-1.6,0.5-3.2,1-4.8,1.4c-1.8,0.3-3.6,0.5-5.4,0.8c-3.4,0.6-6.6,2.1-9.8,3.2
		c-3.7,1.2-7.6,1.1-11.5,1.4c-1.9,0.1-3.7,0.6-5.6,1c-1.8,0.3-3.6,0.5-5.4,0.7c-7,0.7-14,0.5-20.9-0.6c-12.6-1.9-24.7-6.4-35.8-12.7
		c-5.2-3-10.4-6.3-14.4-11c-1.9-2.2-3.5-4.7-4.3-7.5c-0.7-2.4-1-5-1.1-7.5c-0.3-5.3,0.1-10.6,1.6-15.6c1.6-5.2,3.2-10.4,5.2-15.5
		c3.8-9.7,9-19.9,18-25.7c4.3-2.8,9.6-4.7,14.7-3.3c4.7,1.3,8.3,4.8,11.3,8.5c1.3,1.6,2.4,3.4,3.8,4.9c1.6,1.9,3.5,3.5,5.5,5.1
		c4.7,3.6,9.9,6.6,15.2,9.1c4.5,2.1,9.1,3.8,14,4.1c5.1,0.3,10.1,0.1,15.1-1.2c14.8-3.7,29.4-8,43.6-13.4c3.4-1.3,6.8-2.6,10.2-4
		c3.4-1.4,7.2-1.8,10.6-3.1c3.6-1.3,7.3-2.7,10.9-4c3.5-1.3,7.1-3,10.7-4.1c3.8-1.1,7.6-2.2,11.4-3.3c3.7-1.1,7.3-2.6,10.9-4
		c7.1-2.8,14.3-5.4,21.5-8c7.1-2.6,14.1-5.5,21.1-8.2c7.2-2.7,14.7-4.5,21.8-7.1c7.1-2.6,14-5.6,21.1-8.1c7.1-2.5,14.2-5,21.3-7.4
		c14.3-4.8,28.7-9.6,42.7-15.2c3.5-1.4,7-2.8,10.7-3.9c3.6-1.1,7.3-2.1,10.8-3.5c6.9-2.8,13.9-5.4,21-7.9
		c14.1-4.9,28.4-9.4,42.3-15.1c3.4-1.4,7-2,10.3-3.4c3.4-1.3,6.8-2.6,10.2-3.9c2.7-1,5.4-2.1,8.2-2.8C478.3,77,481,76.7,482.9,75.4
		C486.4,75.4,481,76.6,482.9,75.4z M778,66.9c-0.6-2.4-0.5-4.8-1.1-7.2c-0.4-1.7-1.1-3.4-1.7-5.1c-1.1-3-2.3-5.9-3.7-8.7
		c-2.7-5.2-6-10.1-10.3-14.1c-10-9.3-23.7-12.3-36.9-12.4c-0.8,0-1.5-0.1-2.3,0.3c-0.6,0.3-1.2,0.4-1.8,0.6
		c-1.5,0.4-3.1,0.5-4.7,0.5c-3.5,0.1-7.1,0-10.6,0.1c-3.9,0.2-7.8,1.4-11.6,2.3c-4.2,1.1-8.4,2.4-12.4,4.2
		c-8.3,3.8-15.8,9.8-22.5,15.9c-3.6,3.2-7,6.5-10.4,9.9c-3.4,3.4-7,6.7-10.1,10.3c-3.2,3.6-5.4,7.7-7.4,12c-2,4.4-4.3,8.6-6.6,12.8
		c-4.7,8.6-6.9,18-8.9,27.5c-0.5,2.4-1,4.7-1.5,7.1c-0.3,1.1-0.5,2.3-0.8,3.4c-0.3,1.3-0.4,2.5-0.5,3.8c-0.1,1.3-0.1,2.6-0.2,3.8
		c-0.1,1.2-0.4,2.4-0.6,3.6c-0.2,2.3-0.3,4.5-0.3,6.8c0,4.8,0.3,9.6-0.3,14.3c-0.3,2.2-0.8,4.4-0.9,6.6c-0.1,2.4,0.2,4.8,0.3,7.3
		c0.1,2.3-0.1,4.5-0.8,6.6c-0.6,1.8-1.5,3.4-2.6,4.9c-2.1,3-4.9,5.5-7.3,8.3c-1.2,1.4-2.3,2.9-3.1,4.5c-1,1.9-1.5,4-1.7,6.1
		c-0.2,2.3-0.3,4.7-0.7,7c-0.5,2.5,0.2,5.2-0.2,7.7c-0.4,2.3-0.8,4.6-1.1,6.9c-0.3,2.3-0.5,4.7-0.7,7c-0.4,5.2-0.4,10.4-0.5,15.6
		c-0.1,4.6-1.5,9.5,0.8,13.8c1.7,3.2,5,5.4,6.4,8.8c1.2,3.1,1,7,0.7,10.3c-0.1,0.8-0.2,1.6-0.3,2.4c-0.2,1.1-0.2,2.2-0.2,3.4
		c0,2.7-0.1,5.5-0.1,8.2c0,2.6,0,5.2-0.1,7.8c-0.1,2-0.7,4.1-0.9,6.2c-0.2,2.1-0.3,4.3,0,6.4c0.2,1.9,0.6,3.7,0.7,5.5
		c0.2,3.4-0.2,7.3,1.1,10.5c1.3,2.9,4.2,4,7.2,3.9c6.5-0.3,12.5-3.8,18.3-6.3c6.9-3,14.1-5.4,20.5-9.5c3.1-1.9,5.9-4.2,8.2-7.1
		c2.4-3,3.9-6.6,4.8-10.4c2.1-8.9,1.6-18.2,2.7-27.2c0.3-2.4,0.9-4.7,1.2-7.1c0.3-2.4,0.2-4.9,0.3-7.4c0.1-2.4,0.7-4.7,0.8-7.1
		c0.1-2.3-0.1-4.6-0.2-6.9c-0.1-3.3-0.1-7.1,2.4-9.5c1.8-1.7,4.2-2.8,6.5-3.6c6.3-2.3,13.1-3.3,19.7-4.4c2.9-0.5,5.7-0.9,8.6-1.5
		c3-0.6,5.9-0.4,8.1,1.9c2.2,2.3,3,5.6,3,8.7c0,1.8-0.5,3.6-0.5,5.4c0,1.2,0.1,2.5-0.1,3.7c-0.2,1.2-0.3,2.5-0.4,3.7
		c-0.1,2.4-0.1,4.8-0.4,7.2c-0.2,2.4-0.9,4.7-1.3,7.1c-0.9,4.9-1.7,9.8-2.6,14.7c-0.4,2.5-0.3,5-0.4,7.5c-0.1,2.1-0.6,4.2-0.7,6.3
		c-0.2,3.7,0.4,7.6,1.5,11.2c1,3.4,2.9,6,6.1,7.8c3.6,2,7.4,2.1,11.3,1.6c1.9-0.3,3.8-0.7,5.7-0.9c2.3-0.3,4.6-0.4,7-0.5
		c4.1-0.2,8.4-0.4,12.2-2.1c7.9-3.6,10.3-13.7,11.5-21.5c0.7-4.6,1.1-9.3,1.6-13.9c0.3-2.3,0.5-4.6,0.9-7c0.4-2.3,1-4.6,1.3-6.9
		c0.3-2.5,0.1-5,0.4-7.5c0.3-2.5,0.5-5,0.6-7.5c0.2-2.7,0.4-5.4,0.5-8.1c0.2-2.6,1-5.3,1.5-7.9c1-5.1,1.9-10.2,2.9-15.3
		c1-4.9,2.4-9.8,2.8-14.8c0.1-1.3,0.1-2.5,0.2-3.8c0.1-1.2,0.3-2.4,0.5-3.6c0.3-2.5,0.2-5.2,0.2-7.8c0-1.3,0-2.5,0.3-3.7
		c0.2-1.2,0.4-2.4,0.5-3.7c0.3-2.5,0.4-5,0.5-7.5c0.2-4.9,0.5-9.6,1.3-14.4c0.2-1.2,0.1-2.4,0.2-3.6c0.1-1.5,0.1-2.9,0.2-4.4
		c0.1-2.3,0.6-4.5,1-6.8c1.4-10,1.2-20.1,1.2-30.2c0-1.2,0-2.5,0-3.7c0-1.4-0.1-2.8,0-4.1c0.2-1.5,0.5-3,0.6-4.5
		c0.3-3.7,0.4-7.3,0.3-11C779.8,80.1,779.5,73.3,778,66.9C777.2,63.9,779.9,74.7,778,66.9z M722.4,143.2c-1.3,3.1-3.6,5.3-6.7,6.4
		c-3.3,1.2-6.8,1.3-10.2,1.4c-3.8,0.2-7.6,0.3-11.4,1.1c-2.7,0.6-5.4,1.5-8.1,2.2c-3.1,0.8-6.3,1.6-9.6,1.6c-2.2,0-4.7-0.5-6.1-2.4
		c-1.6-2.2-1.6-5.4-1.5-8c0-3.3,0.4-6.6,0.8-10c0.7-7.3-0.2-14.8,1.2-22c1.7-8.1,7.8-14.8,14.8-18.9c1.8-1.1,3.8-2,5.8-2.7
		c2.2-0.8,4.6-1.1,6.9-1.4c1.2-0.2,2.4-0.3,3.6-0.5c1.1-0.2,2.2-0.4,3.3-0.4c0.6,0,1.1,0.1,1.7,0.1c0.4,0,0.8-0.2,1.1-0.3
		c0.9-0.2,2.2,0,3.1,0.1c2.8,0.2,5.8,0.9,8.1,2.6c1.9,1.4,3.2,3.5,3.9,5.7c1.8,5.7,0.9,12.1,0.7,18c-0.3,7.6,0.5,15.3-0.4,22.9
		C723.2,140.2,723,141.7,722.4,143.2C718,153.9,724.5,138,722.4,143.2z M385,203.8c1,0,2,0,3,0.2c0.9,0.1,2,0.2,2.5,0.9
		c1.2,1.5,2.7,2.7,3.3,4.6c1.2,3.4,0.4,7.6-0.3,11.1c-0.2,0.8-0.4,1.5-0.4,2.3c-0.1,1.2-0.1,2.5-0.1,3.7c0,1.2-0.1,2.5-0.1,3.7
		c0,1.3-0.4,2.5-0.6,3.7c-0.7,3.9-1.3,7.8-2.8,11.5c-0.8,2.1-1.3,4.3-2.1,6.4c-0.8,1.8-2,3.5-3.2,5c-2.5,3.1-5.5,5.7-8.8,8
		c-6.8,4.7-14.5,8-21.7,11.9c-8.6,4.6-17.2,9.3-26.4,12.8c-4.6,1.7-9.3,3.3-13.9,5.2c-4,1.6-7.8,3.4-10.6,6.8
		c-1.3,1.5-2.4,3.3-2.8,5.3c-0.4,2.2,0,4.5-0.2,6.7c-0.1,1.4-0.4,2.7-0.6,4.1c-0.1,1.5-0.2,3-0.2,4.5c0,1.6,0,3.2,0.1,4.7
		c0.1,1.2,0.2,2.4,0.8,3.4c0.4,0.7,1,1.3,1.6,1.8c0.6,0.5,1.6,1.5,2.3,1.6c2.1,0.3,4.4-0.3,6.4-0.8c2.1-0.5,4-1.1,6.1-1.5
		c2.5-0.4,5-0.7,7.5-1.1c2.3-0.3,4.5-1.3,6.7-2.2c2.2-0.9,4.5-1.8,6.7-2.6c3.7-1.3,7.5-2.1,11.2-0.4c3.2,1.5,5,4.4,5.7,7.8
		c1,4.4,0.8,9,0.7,13.5c0,3.6-0.3,7.3-0.9,10.9c-0.9,5.4-2.7,10.8-6,15.3c-3,4-6.9,7-11.2,9.4c-5.2,2.9-10.8,5.4-16.3,7.4
		c-4,1.4-8.1,2.4-12.1,3.9c-3.6,1.4-7,3.1-8.9,6.6c-0.9,1.6-1.5,3.4-1.5,5.3c0,2.1,0.7,3.9,1.6,5.7c0.3,0.6,0.7,1.1,1.3,1.4
		c0.7,0.3,1.2,0.7,1.9,0.9c1.6,0.5,3.4,0.4,5.1,0.1c2-0.4,3.8-1.6,5.6-2.4c2.1-0.9,4.3-1.4,6.5-2c4.6-1.3,9.1-3.6,13.5-5.5
		c4.5-2,9-4,13.6-5.8c4.3-1.6,8.8-2.5,12.8-4.6c3.8-2,7.2-4.5,11.1-6.2c1.8-0.8,4.2-1.9,6.2-1.6c0.9,0.1,1.7,0.5,2.5,0.8
		c0.4,0.2,0.8,0.2,1,0.5c0.3,0.4,0.6,0.9,0.9,1.3c1.1,1.6,1.7,3.3,1.8,5.2c0.1,1.8-0.1,3.6-0.4,5.3c-0.4,2.2,0.1,4.4-0.2,6.5
		c-0.3,2.1-0.4,4.1-0.5,6.2c-0.1,1-0.1,1.9-0.3,2.9c-0.2,1.2-0.1,2.3-0.1,3.5c0,2-0.5,4-0.7,6c-0.4,4-0.5,8-1.1,11.9
		c-0.5,3.6-1.5,7-3.7,9.9c-2.3,3-5.2,5.5-8.3,7.5c-6.7,4.5-14.4,7.2-22,9.7c-9.1,3.1-18,6.5-27.3,8.9c-4.8,1.3-9.7,2.4-14.5,3.7
		c-4.8,1.2-9.5,2.6-14.3,3.7c-2.3,0.5-4.5,1.3-6.7,1.9c-2.3,0.6-4.5,1.1-6.8,1.6c-4.4,1-8.8,2-13.2,3.1c-2,0.5-4.1,1-6.2,0.9
		c-2.1-0.1-4.3-0.9-6.1-1.9c-3.4-1.8-5.7-4.6-7.5-8c-3.5-6.7-4.8-14.4-5.5-21.8c-0.8-9.1-0.8-18.3-0.6-27.5
		c0.1-5.1,0.2-10.1,0.3-15.2c0-2.4-0.5-4.7-0.7-7.1c-0.2-2.3-0.2-4.6-0.4-6.9c-0.2-2.2-0.4-4.5-1.1-6.6c-0.6-2-1.5-3.8-2.5-5.7
		c-1.7-3.3-4.2-7-4.4-10.9c-0.2-3.2,0.9-6.4,2-9.3c1.1-3,2.4-5.9,3.7-8.7c1.5-3.2,2.6-6.6,3.2-10.1c0.9-4.6,1.2-9.2,1.8-13.8
		c0.3-2.4,0.9-4.9,1.2-7.3c0.3-2.6,0.1-5.3,0.2-7.8c0.1-2.4,0-4.7,0.4-7c0.4-2.2,0.5-4.5,0.6-6.8c0.1-2.3,0.1-4.7,0.1-7
		c0-1.1-0.1-2.3,0.1-3.4c0.2-1.3,0.5-2.6,0.7-3.8c0.7-4.6,1.1-9.2,2.1-13.8c0.8-3.6,1.2-7.3,2.7-10.7c1.5-3.5,4.2-5.7,7.7-7.1
		c1.9-0.8,4-1.4,5.9-2.1c2.2-0.8,4.3-1.8,6.4-2.8c4.3-2.1,8.6-4.3,13-6c4.5-1.8,9.4-2.7,14-4.2c4.6-1.6,9.1-3.8,13.6-5.8
		c4.5-2,9.1-4.1,13.6-6.1c4.3-1.9,8.6-4.1,13.2-5.4c4.4-1.3,8.9-2.1,13.1-4.1c4.2-2,8.2-4.6,12.4-6.7c4.2-2.2,8.6-3.4,13-5
		c2.3-0.8,4.2-2.2,6.3-3.4C381.5,205.1,383.6,205,385,203.8C387.3,203.7,383.8,204.8,385,203.8z M756,357.1c2.6,0,5.3-0.1,7.8,0.9
		c2.1,0.9,3.6,2.6,4.4,4.8c0.4,1.1,0.6,2.2,0.9,3.4c0.3,1.3,0.7,2.8,0.7,4.1c0.1,1.7,0,3.4,0,5.1c0,1.4,0.3,2.7,0.6,4.1
		c1.2,5.9,2.1,11.9,1.9,17.9c-0.1,1.6-0.2,3.1-0.4,4.7c-0.1,0.7-0.3,1.4-0.4,2.1c-0.1,0.8,0,1.7,0,2.5c0,1.6,0.1,3.3-0.1,4.9
		c-0.2,1.3-0.2,2.6-0.2,3.9c0.1,2.9,0.5,5.8,0.2,8.7c-0.2,2.5-0.8,5-0.9,7.5c-0.2,5.1,0.2,10.3,1.2,15.3c0.6,3.1,0.3,6.2,0.5,9.3
		c0.2,2.9,1.2,5.6,2.4,8.2c1.2,2.6,2.5,5.2,3.3,8c0.6,2.1,0.8,4.2,0.5,6.4c-0.6,4.7-2.4,9.2-4.1,13.6c-0.6,1.7-1.5,3.6-1.8,5.4
		c-0.3,1.6-0.3,3.3-0.5,4.9c-0.2,1.7-0.3,3.4-0.5,5.2c-0.3,3.4-0.7,6.9-1,10.3c-0.3,3.1-0.9,6.2-0.9,9.3c0,1.2,0.1,2.5,0,3.7
		c-0.2,1.5-0.4,2.9-0.5,4.5c0,1.6,0.1,3.1,0,4.7c0,1.5-0.3,2.9-0.3,4.4c0,3.4,0,6.9,0,10.3c0,1.5-0.3,2.9-0.2,4.4
		c0.1,1.7,0.2,3.3,0.2,5c0,3.4,0,6.7,0,10.1c0,3.3-0.3,6.8,0.3,10.1c0.9,5.3,0.6,11.1-1.5,16.1c-0.9,2.1-2.1,4-3.7,5.5
		c-1.5,1.4-3.3,2.2-5.3,2.8c-4.7,1.4-9.7,1.9-14.6,2.2c-4.8,0.3-9.5,0.9-14.3,1.2c-4.2,0.2-9,0.3-12.6-2.1
		c-3.5-2.3-4.4-6.4-4.8-10.2c-0.5-5-0.2-10.1,0-15.2c0.2-6.1,0.1-12.1,0.1-18.2c0-6.7,0-13.4,0-20.1c0-6.5,0.1-13,0.1-19.4
		c0-3-0.1-6-0.4-9c-0.2-2.2-0.8-4.3-1-6.5c-0.3-4,0-8,0.1-12c0.1-3.3,0.4-7.4-1.1-10.5c-0.7-1.4-2.4-2.6-3.9-1.9
		c-1.1,0.4-2.1,0.9-3,1.6c-0.8,0.7-1.5,1.5-2.2,2.3c-1.6,1.8-3,3.7-4.5,5.7c-0.7,0.9-1.3,1.8-2,2.6c-1.2,1.2-2.5,2.3-3.5,3.6
		c-3.8,5.2-7.5,10.4-11,15.8c-3,4.6-6.1,9.4-8.1,14.5c-1.4,3.6-2.5,7.4-4.5,10.9c-0.9,1.5-1.9,3-3.3,4.1c-0.6,0.5-1.3,0.9-2.1,1.2
		c-0.7,0.3-1.8,0.6-2.6,0.5c-0.3-0.1-0.6-0.3-0.8-0.4c-0.3-0.1-0.5-0.2-0.8-0.3c-0.7-0.3-1.2-0.7-1.7-1.2c-1-0.9-1.9-2-2.7-3.1
		c-0.8-1.1-1.6-2.2-2.5-3.2c-1-1-2.1-2-3.1-2.9c-4.3-4.2-5.9-10.4-9.4-15.3c-3.2-4.5-7.2-8.4-11.2-12.2c-1.8-1.7-3.6-3.4-5.8-4.5
		c-1.1-0.6-2.2-1-3.4-1.3c-0.5-0.1-1.2-0.3-1.7-0.2c-0.6,0.2-1.5,1-2,1.4c-1.5,1.3-1.6,4.3-1.7,6.1c-0.1,2.5,0,5.1,0.1,7.6
		c0.2,6.5-0.1,13.1-0.1,19.7c0,3.4-0.1,6.8-0.1,10.2c0,1.7,0,3.5,0,5.2c0,0.8,0.1,1.6,0,2.4c-0.1,0.6-0.2,1.3-0.3,1.9
		c-0.7,5.6-0.1,11.4,0,17c0.1,5.6,0.5,11.1,0.4,16.7c-0.1,2.5-0.4,4.9-0.8,7.4c-0.4,2.6,0.2,5.3-0.2,8c-0.2,1.6-0.5,3.1-0.6,4.7
		c-0.1,1.6,0,3.3-0.1,4.9c-0.1,1.6-0.4,3.1-0.4,4.6c0,1.7-0.1,3.5-0.1,5.2c0,1.6,0.1,3.4-0.2,4.9c-0.3,1.5-0.6,3-0.9,4.5
		c-0.6,2.7-1.2,5.5-2.6,8c-2.5,4.5-6.8,7.5-11.2,9.9c-4.1,2.3-8.4,4.3-12.4,6.8c-3.6,2.4-7.3,4.7-11.3,6.5
		c-4.1,1.8-8.5,2.9-12.9,1.5c-3.4-1.1-5.7-3.2-6.8-6.7c-0.5-1.8-0.8-3.7-1.1-5.5c-0.2-1.1-0.4-2.1-0.6-3.2c-0.3-1.5-0.2-3-0.2-4.5
		c0-1.3-0.3-2.6-0.2-4c0-1.4,0.1-2.8,0.2-4.2c0.1-2.8-0.6-5.4-0.7-8.2c-0.1-2.9,0.1-5.8,0.1-8.8c0.1-3.3,0-6.6,0-9.9
		c0-6.9,0-13.7,0-20.6c-0.1-12.3-0.6-24.8-4.7-36.5c-2-5.5-4.7-11.4-4.5-17.4c0.2-5.4,2.4-10.4,4.3-15.4c4.2-11.2,4.9-23.7,4.9-35.6
		c0-13.8,0-27.6,0-41.5c0-6-0.3-12.1,0-18.1c0.1-2.7,0.4-5.4,1.2-8c0.7-2.4,1.9-4.7,3.3-6.8c2.8-4.2,6.7-7.5,10.9-10.4
		c4.6-3.1,9.4-5.9,14.3-8.6c5.3-2.8,10.6-5.5,16.2-7.8c4.6-1.9,10.7-4,15.3-1c2.2,1.4,3.5,3.8,5,5.9c1.8,2.5,4.2,4.6,6.4,6.7
		c2.3,2.3,4.9,4.4,6.8,7c1.8,2.4,3.5,4.8,5.3,7.1c3.5,4.6,7.4,9,11.9,12.6c3.1,2.4,5.2,5.8,8.4,8c1.6,1.1,3.5,1.9,5.5,1.6
		c1.6-0.2,2.9-1,4.1-2.1c3.1-2.7,5.6-6.3,7.9-9.7c2.2-3.2,4.2-6.5,6.4-9.8c3.7-5.6,7.4-11.1,11.2-16.6c3.7-5.3,7.3-10.9,11.7-15.7
		c1.9-2,3.7-4.1,5.3-6.3c1.4-2,2.6-4.1,4-6.1c1.4-2.1,2.8-4.1,4.4-6c1.6-1.7,3.5-3,5.6-4.1c2.4-1.3,5-2.2,7.6-2.9
		c1.4-0.4,2.8-0.8,4.2-0.8c1.4,0,2.7,0.2,4.1,0.5c1.7,0.4,3.2,0.8,4.9,0.9c1.8,0.1,3.7,0,5.5-0.1c1.9-0.1,3.8-0.3,5.6-0.6
		C753.6,357.8,755,357.7,756,357.1C759.9,357.1,754.2,358.2,756,357.1z M962.9,436c-4-5.8-6.7-12.4-9.4-18.8
		c-1.5-3.7-2.5-7.6-3.6-11.5c-0.6-1.9-1-3.9-1.7-5.7c-0.5-1.4-1.1-2.8-1.7-4.2c-4.8-11.5-10.2-23-17-33.5c-3.3-5.1-7-9.9-11.3-14.2
		c-2-2-4.1-3.8-6.3-5.5c-2.4-1.8-4.8-3.4-7.7-4.1c-3.1-0.8-6.3-0.9-9.5-1.4c-3.4-0.6-6.7-1.5-10.1-2c-3.6-0.6-7.3-1-11-1.2
		c-0.9-0.1-1.9-0.1-2.8-0.1c-0.9,0-2-0.2-2.8,0c-0.9,0.2-1.6,0.5-2.5,0.6c-4.8,0.4-9.6-1.2-14.4-0.4c-3.2,0.5-6.2,0.5-9.4,0.4
		c-3.2-0.1-6.4-0.3-9.6,0.4c-5,1.1-9.9,2.3-14.8,3.8c-4.5,1.4-9.5,3.1-13.2,6.2c-1.9,1.6-3.1,3.9-4,6.2c-1.3,3-2,6.3-2.6,9.5
		c-0.6,3.4-1,6.8-1.5,10.2c-0.5,3.5-1.5,7-1.7,10.6c-0.2,3.5,0.1,6.9,0.1,10.4c0,1.7-0.2,3.3-0.3,4.9c-0.1,1.9,0,3.9,0,5.9
		c0,3.7,0.2,7.5-0.3,11.2c-0.5,3.2-0.6,6.5-0.6,9.8c0,3.5,0,7.1,0,10.6c0,3.2,0.1,6.1-0.5,9.2c-1.3,7-1.4,14.3-1.4,21.4
		c0,7.8,0,15.5,0,23.3c0,2.1,0,4.1,0,6.2c0,0.9,0.1,1.9,0,2.8c-0.1,0.8-0.3,1.7-0.4,2.5c-0.5,3.4-0.7,6.8-0.7,10.2
		c-0.1,7.3,0.3,14.6,0.2,21.8c-0.1,6.9-0.6,14,0.6,20.9c0.5,2.6,0.4,5.1,0.2,7.7c-0.3,2.5-0.7,5-0.8,7.5c-0.1,3.8,0,7.7,0,11.5
		c0,3.2,0.1,6.3,0.4,9.5c0.5,5.2,1.5,10.6,4.1,15.2c2.4,4.1,6.1,7.2,10.7,8.5c3.2,0.9,6.6,0.9,9.9,0.9c3.3,0,6.6,0,9.9,0
		c5.3-0.1,11.2-0.1,16-2.7c2-1.1,3.7-2.8,4.8-4.8c1.2-2.2,1.5-4.8,1.8-7.2c0.3-2.9,0.2-5.8-0.1-8.7c-0.1-1.3-0.4-2.6-0.6-3.9
		c-0.2-1.9,0-4,0.1-6c0.1-4,0.1-7.9,0.2-11.9c0.1-3.3-0.3-6.7,0-10c0.2-2.7,0.9-5.5,3.1-7.3c2.6-2.2,5.8-3.7,9.2-4.2
		c6.8-0.9,13.5,1.7,20.2,0.7c3.6-0.5,7.1-1.8,10.5-3c3.4-1.1,6.7-2.4,9.9-3.9c3.2-1.5,6.2-3.1,9.2-5c0.6-0.4,1.3-0.8,1.9-1.3
		c0.8-0.6,1.5-1.4,2.2-2.1c1.4-1.4,2.9-2.9,4.3-4.3c1.3-1.3,2.6-2.4,4-3.5c1.3-1.1,2.7-2.2,3.8-3.5c2.1-2.4,3.7-5.2,5.3-7.9
		c6.6-11.5,10.7-24.3,17.2-35.8c1.4-2.5,2.9-5,4.8-7.3c1.8-2.1,3.7-4.1,5.7-6.1c3.9-3.9,7.8-8.1,9.4-13.5c0.8-2.8,0.7-5.3-0.7-7.8
		C966.1,439.8,964.3,438.1,962.9,436C958.7,430.1,964.8,438.7,962.9,436z M895.7,457.3c-0.8,3.9,0.1,8.3-1.4,12.1
		c-1.5,3.4-4.6,6.2-7.6,8.2c-3.2,2.2-7.1,4.1-11,4.7c-3.3,0.6-7,0.3-10.3-0.3c-1.7-0.3-3.4-0.6-5.2-0.7c-1.6-0.1-3.1,0-4.7-0.2
		c-3.3-0.4-5.7-2.7-6.5-5.9c-0.5-1.9-0.4-3.9-0.4-5.9c0.1-2.2,0.1-4.5,0.2-6.7c0.1-5.1,0.2-10.1,0.3-15.2c0.2-5,0.7-9.9,0.7-14.8
		c0-5,0-10.1,0-15.1c0-2.4,0-4.9,0-7.3c0-2.3-0.5-4.5-0.6-6.7c-0.1-2.1,0.1-4.3,1.3-6c0.9-1.2,2.2-1.8,3.5-2.3
		c0.7-0.3,1.4-0.5,2-0.9c0.4-0.2,0.7-0.4,1.1-0.5c0.5-0.1,1.2,0,1.7,0c2,0,4,0,6.1,0c3.7,0.1,7.7,0.2,11.2,1.7
		c6.4,2.7,10.7,8.5,13.6,14.6c1.6,3.4,2.9,6.9,3.9,10.4c1,3.3,2,6.8,2.6,10.2c1.1,7.2,1,14.8,0.1,22
		C896.2,454.3,896,455.8,895.7,457.3C894.6,462.4,897.3,449.6,895.7,457.3z M525,483.2c-0.5-2.3-0.3-4.7-0.5-7.1
		c-0.1-1.9-0.7-3.7-1.3-5.5c-1-3.1-2.3-6.2-3.8-9.1c-3-5.5-7.2-10.2-12.9-12.9c-3.2-1.5-6.6-2.3-10.1-2.6c-1-0.1-2.1-0.3-3.1-0.2
		c-0.6,0.1-1.3,0.4-1.9,0.5c-1.6,0.2-3.3,0.1-5,0.2c-2,0.1-3.8,0.8-5.6,1.4c-2.4,0.7-4.7,1.5-7.1,2.3c-4.5,1.6-9.1,3.2-13.2,5.6
		c-2,1.2-4,2.4-6,3.6c-2.1,1.2-4.3,2.2-6.6,3.2c-4.5,2-9,4-13.5,6c-4.4,2.1-8.8,4.3-13,6.7c-2.1,1.2-4.2,2.4-6.1,3.8
		c-1.9,1.4-3.6,2.9-5.3,4.4c-3.2,2.9-6.7,5.4-10,8.2c-3,2.6-5.9,5.3-8.6,8.2c-5.5,6-10.4,12.5-14.5,19.5c-4.4,7.4-8,15.2-11,23.3
		c-1.6,4.2-2.9,8.5-4,12.8c-1.1,4.6-1.9,9.3-2.6,14c-0.8,4.8-1.6,9.6-2.5,14.4c-0.5,2.4-1.1,4.7-1.2,7.2c-0.1,2.5-0.5,4.9-0.5,7.4
		c-0.1,5.3-0.2,10.6-0.3,15.9c-0.1,2.6-0.1,5.2-0.2,7.8c-0.1,2.5,0.2,5.1-0.6,7.5c-1.2,3.7-3.6,6.7-5.6,10
		c-2.2,3.5-3.8,7.3-3.9,11.5c-0.1,4.6,0.8,9.2,0.2,13.7c-0.3,2.6-0.7,5.2-0.8,7.9c-0.1,3.2-0.1,6.4,0,9.6c0.1,2.8,0.4,5.3,1.3,8
		c1.5,4.3,3.9,8.3,5.2,12.7c1.2,4.1,0.7,8.7,0.6,13c-0.1,7.2-0.7,14.4-1.1,21.6c-0.4,6.9-0.8,14,0.7,20.9c1.1,5,3.8,11.2,9.4,12.3
		c3.1,0.6,6.5-0.2,9.5-1.1c3.2-0.9,6.3-2.2,9.4-3.4c7.4-2.9,16.2-3.8,22.6-9c3.1-2.5,5.1-6,6.7-9.6c1.7-3.9,3-8,4-12.1
		c0.5-2.2,0.5-4.6,0.6-6.9c0.1-2.3,0.5-4.5,0.9-6.7c0.8-4.4,0.9-8.8,1-13.3c0.1-4.4,0.1-8.9,0-13.3c-0.1-4.4-0.4-8.8,0.1-13.1
		c0.4-3.7,1.5-7.1,4.2-9.9c2.6-2.7,6-4.4,9.4-6.1c8.7-4.3,17-9.3,25.5-14c2.6-1.4,6.1-2.9,8.6-0.5c1.8,1.7,2,4.8,2.2,7.1
		c0.3,3.3,0.2,6.6,0.1,9.8c-0.1,4-0.1,8-0.1,12c0,2.4-0.1,4.9-0.5,7.3c-0.2,1.6-0.6,3.1-0.8,4.7c-0.4,3.2-0.6,6.4-0.7,9.6
		c-0.1,3.5,0,6.9,0.3,10.4c0.3,2.8,0.7,5.7,1.7,8.3c1.3,3.3,4.5,5,7.8,5.7c3.9,0.8,7.8-1.7,11.1-3.4c8.1-4.2,15.9-8.7,23.6-13.7
		c2.6-1.7,5.2-3.5,7.4-5.8c2.3-2.4,4.1-5.3,5.5-8.4c0.8-2,1.6-4.1,1.9-6.2c0.4-2.4,0.4-4.8,0.6-7.2c0.2-1.8,0.6-3.6,0.9-5.4
		c0.3-1.8,0.5-3.7,0.6-5.5c0.1-1.7,0.2-3.5,0-5.3c-0.2-2-0.7-4-1-6.1c-0.6-4.9-0.7-9.8-0.7-14.7c0-2.6,0-5.3,0-7.9
		c0-0.6,0-1.2,0-1.8c0-0.6,0.2-1.1,0.4-1.7c0.3-1.2,0.4-2.4,0.5-3.7c0.2-2.5,0.1-4.9,0.1-7.4c0.1-2.4,0.5-4.7,0.9-7.1
		c1.6-9.3,0.9-18.9,0.9-28.3c0-10.6,0-21.2,0-31.9c0-10.1,0-20.1-0.2-30.2c-0.1-4.6-0.2-9.2,0-13.8c0.1-2.1,0.3-4.3,0.6-6.4
		c0.2-1.5,0.6-3,0.7-4.5c0.3-3,0.1-6.1-0.1-9.1C525.7,488.6,525.6,485.8,525,483.2C524.2,479.5,525.7,486.5,525,483.2z M462,541.5
		c-0.8,3.9-1,8-1,12c0,4.3,0,8.6,0.1,12.8c0,4,0.3,8-0.1,12c-0.3,3.2-1,6.3-3.1,8.9c-3.9,5.1-10.2,7.9-15.7,10.9
		c-5,2.7-9.9,6.7-15.7,7.5c-2.9,0.4-5.9-0.4-7.8-2.8c-1.8-2.3-2.4-5.5-2.6-8.4c-0.3-4-0.2-8.1-0.2-12.2c0-1.8,0.1-3.6,0-5.4
		c-0.1-1.9-0.5-3.8-0.8-5.7c-1-7.1-0.2-14.3,2.7-20.8c2.5-5.7,6.5-10.6,11.1-14.7c2.1-1.8,4.5-3.5,6.9-5c1.8-1,3.7-1.9,5.6-2.6
		c1-0.4,1.9-0.7,2.9-1c1-0.3,2.1-0.5,3.2-0.6c1-0.2,2.1-0.4,3.1-0.5c1-0.1,2.1,0.2,3,0.4c1.7,0.3,3.4,0.8,4.8,1.8
		c2.6,1.7,3.4,5.1,3.7,8.1C462.4,537.8,462.4,539.7,462,541.5C460.6,548.3,462.9,537.4,462,541.5z M254.8,528.4
		c9.2-0.1,18.4,0.8,27.2,3.4c4.7,1.4,9.5,2.5,14.2,4.3c4.3,1.6,8.2,3.9,11.8,6.8c7,5.7,12.4,13.2,16.6,21.2c4.4,8.3,8.2,17.4,9,26.8
		c0.5,5.1,0,10.3-1.7,15.2c-0.8,2.2-1.7,4.3-2.9,6.3c-1.1,1.9-2.6,3.2-4.5,4.3c-7.4,4.5-16.5,5.7-24.8,7.4
		c-4.2,0.9-8.4,2.3-12.8,1.8c-2-0.3-3.9-0.8-5.6-2c-1.6-1.1-2.7-2.9-3.5-4.7c-1-2.2-1.7-4.4-2.3-6.7c-0.3-1.1-0.7-2.3-0.9-3.5
		c-0.3-1.1-0.3-2.3-0.5-3.5c-0.7-3.1-3.6-5.5-6.2-7.2c-3.4-2.2-7.3-3.8-11.3-4.6c-4.2-0.8-8.3-0.6-12.4,0.6
		c-4.4,1.2-8.7,2.6-12.7,4.8c-3.9,2.1-6.9,4.9-9.3,8.7c-4.7,7.4-6.5,16.1-8.8,24.5c-1.4,5.3-2.8,10.5-4.1,15.8
		c-0.9,3.9-2.1,7.9-2.5,12c-0.6,6.5-0.6,13.3,0,19.8c0.1,1.4,0.4,2.7,0.6,4.1c0.4,2.7,0.4,5.4,0.4,8c0,1.3,0,2.6,0.1,3.9
		c0.1,1.4,0.4,2.8,0.5,4.2c0.1,1.3,0,2.6,0,3.9c0,1.3,0.3,2.5,0.7,3.8c1.2,4.7,2.9,9.3,4.9,13.7c1.8,3.9,3.9,7.8,6.8,11
		c5.5,6.1,13.2,9.5,21.3,10.1c8.8,0.6,18.3-2,25.3-7.4c3.4-2.6,6.3-5.8,8.7-9.3c2.4-3.5,4.9-7.6,5.8-11.8c0.5-2.3,0.6-4.6,0.8-6.9
		c0.2-2.5,0.8-4.9,1.3-7.4c0.8-4,1.5-8.1,3.3-11.8c1.7-3.5,4.3-6.2,7.8-7.8c3.9-1.9,8.3-2.8,12.5-3.8c2.1-0.5,4.3-1.1,6.4-1.4
		c1.2-0.2,2.6-0.1,3.8-0.1c1.4,0,2.8-0.1,4.2-0.2c2.3-0.1,4.6,1.2,6.4,2.6c1.6,1.3,3.1,2.9,4.1,4.7c1.7,3.2,2.2,7.2,2.5,10.8
		c0.1,2.1,0.1,4.2-0.1,6.3c-0.1,0.9-0.3,1.9-0.4,2.8c-0.1,1.4-0.1,2.7-0.1,4.1c-0.1,2.8,0,5.7-0.2,8.6c-0.1,1.3-0.5,2.7-0.7,4
		c-0.3,1.4-0.5,2.9-0.8,4.3c-0.9,5.2-2.1,10.3-2.9,15.5c-0.7,4.5-2.7,8.5-4.9,12.5c-2.1,3.9-4.5,7.6-7.2,11.1
		c-10.5,13.8-24.8,24.2-39.8,32.6c-4.3,2.4-8.8,4.6-13.4,6.4c-4.2,1.6-8.4,2.9-12.8,3.2c-8.9,0.7-17.8-0.5-26.7-0.1
		c-4.8,0.2-9.4,0.4-14.1-1.1c-4.1-1.3-7.9-3.5-11.4-6.1c-3.5-2.5-7-5.1-10.2-8.1c-3.1-2.9-5.8-6.1-8.3-9.5
		c-5.2-7.2-9-15.2-12.5-23.4c-0.9-2.2-1.9-4.4-2.8-6.7c-0.9-2.4-1.5-4.8-2-7.3c-1.1-5-2.9-9.7-4.5-14.6c-1.5-4.5-3-9-5.4-13.1
		c-2.4-4.4-4.5-8.9-7.1-13.2c-2.4-4-4.9-8-6.3-12.5c-1.5-4.7-1-9.3,0.5-14c0.7-2.1,1.6-4.2,2.4-6.3c0.9-2.5,1.8-5,2.6-7.5
		c1.6-4.8,3.3-9.7,4.3-14.7c2-9.7,2.4-19.6,4.6-29.2c1.1-4.9,2.6-9.7,4.2-14.5c1.5-4.6,3.2-9.2,5.1-13.7c3.6-8.6,7.9-17,13.5-24.5
		c3-4,7.1-6.7,10.8-10c1.9-1.7,3.7-3.4,5.8-4.9c2-1.4,4-2.7,6.2-3.9c8.7-4.9,18.1-8.4,27.5-11.6c4.8-1.6,9.7-2.6,14.6-3.6
		c2.1-0.4,4.2-1,6.4-1C251.1,529.1,253.3,529.4,254.8,528.4C266.1,528.2,252.9,529.6,254.8,528.4z"/>
</g>
</svg>
