<?xml version="1.0" standalone="no"?>
<!DOCTYPE svg PUBLIC "-//W3C//DTD SVG 20010904//EN"
 "http://www.w3.org/TR/2001/REC-SVG-20010904/DTD/svg10.dtd">
<svg version="1.0" xmlns="http://www.w3.org/2000/svg"
 width="16.000000pt" height="16.000000pt" viewBox="0 0 16.000000 16.000000"
 preserveAspectRatio="xMidYMid meet">
<metadata>
Created by potrace 1.11, written by Peter Selinger 2001-2013
</metadata>
<g transform="translate(0.000000,16.000000) scale(0.006154,-0.006154)"
fill="#000000" stroke="none">
<path d="M1008 2573 c-15 -16 -39 -45 -55 -65 -88 -115 -239 -282 -409 -452
-145 -145 -200 -219 -301 -403 -28 -50 -66 -134 -84 -185 -34 -93 -34 -94 -37
-305 -4 -253 9 -325 88 -489 45 -93 62 -115 200 -262 111 -120 171 -175 234
-217 121 -80 246 -139 359 -169 231 -61 622 -13 858 105 30 15 98 65 150 112
106 94 309 303 309 318 0 5 25 49 55 97 98 154 120 263 112 542 -7 225 -14
260 -87 428 -75 174 -122 243 -232 337 -98 84 -144 118 -183 135 -25 11 -84
42 -131 70 -47 28 -126 71 -175 95 -49 25 -113 61 -143 80 -30 19 -79 45 -109
59 -30 13 -101 57 -158 98 -131 94 -138 98 -191 98 -35 0 -50 -6 -70 -27z"/>
</g>
</svg>
